{"glyphs":{"0":{"ha":843,"x_min":0,"x_max":0,"o":"m 418 1104 b 260 1078 357 1104 306 1096 b 147 990 215 1061 178 1032 b 78 822 117 949 93 893 b 56 554 63 751 56 663 b 78 279 56 444 63 353 b 147 103 93 206 117 147 b 260 8 178 58 215 26 b 417 -21 306 -11 357 -21 b 575 7 476 -21 529 -11 b 688 100 619 25 657 56 b 757 276 718 143 742 203 b 779 554 772 350 779 443 b 757 813 779 657 772 743 b 690 983 742 883 719 939 b 576 1075 660 1026 622 1057 b 418 1104 531 1094 478 1104 z m 411 142 b 329 161 381 142 353 147 b 268 229 304 175 285 197 b 232 356 253 261 240 303 b 221 550 225 408 221 472 b 233 736 221 625 225 686 b 269 854 242 785 253 825 b 329 915 286 883 306 904 b 413 933 354 928 382 933 b 499 919 444 935 474 929 b 560 861 524 910 543 890 b 596 743 576 833 588 794 b 608 550 604 693 608 629 b 596 356 608 472 604 408 b 558 231 588 304 575 263 b 497 163 542 199 521 175 b 411 142 472 149 444 142 z "},"1":{"ha":557,"x_min":0,"x_max":0,"o":"m 335 1104 l 238 1104 b 185 1075 214 1104 196 1094 l 78 886 b 117 838 60 854 72 838 l 201 838 l 201 151 l 122 151 b 83 104 96 151 83 135 l 83 24 b 126 -21 83 -6 97 -21 l 433 -21 b 482 26 465 -21 482 -4 l 482 101 b 431 151 482 135 465 151 l 376 151 l 376 1063 b 335 1104 376 1090 363 1104 z "},"2":{"ha":790,"x_min":0,"x_max":0,"o":"m 683 144 l 294 144 b 513 329 303 165 376 226 b 719 733 650 431 719 565 b 392 1103 719 981 610 1103 b 69 774 174 1103 67 993 b 113 729 69 740 83 725 l 204 733 b 239 776 228 736 239 751 b 388 929 239 878 288 929 b 543 729 490 931 543 864 b 304 369 543 599 463 479 b 67 94 146 260 67 168 l 67 31 b 106 -19 67 -3 79 -19 l 686 -19 b 732 24 717 -19 732 -6 l 732 97 b 683 144 732 128 715 144 z "},"3":{"ha":790,"x_min":0,"x_max":0,"o":"m 315 479 b 556 346 465 474 546 429 b 392 136 565 207 510 138 b 240 301 292 136 240 192 b 206 344 240 326 228 342 l 110 349 b 67 304 81 349 67 333 b 394 -19 65 89 175 -19 b 728 318 617 -18 728 94 b 600 547 721 442 678 518 b 725 785 678 571 719 650 b 392 1103 722 996 611 1101 b 140 1003 278 1103 194 1069 b 65 781 88 936 63 861 b 108 736 65 751 79 736 l 204 740 b 239 783 228 743 239 757 b 246 836 239 800 242 817 b 272 886 251 854 260 871 b 318 922 283 900 299 913 b 388 936 338 932 360 936 b 543 736 492 938 544 871 b 328 614 540 649 468 608 b 276 578 293 614 276 601 l 276 519 b 315 479 278 493 292 481 z "},"4":{"ha":853,"x_min":0,"x_max":0,"o":"m 428 1103 l 344 1103 b 292 1060 318 1103 300 1089 l 68 349 b 50 236 57 315 50 278 l 50 181 b 97 133 50 149 67 133 l 525 133 l 525 29 b 572 -19 525 -3 542 -19 l 649 -19 b 699 32 682 -19 699 -3 l 699 133 l 767 133 b 813 176 797 133 813 147 l 813 254 b 767 299 813 283 797 299 l 699 299 l 699 988 b 651 1035 699 1019 683 1035 l 571 1035 b 525 986 540 1035 525 1018 l 525 299 l 239 299 l 460 1053 b 428 1103 471 1086 460 1103 z "},"5":{"ha":792,"x_min":0,"x_max":0,"o":"m 160 513 b 554 361 408 576 540 525 b 390 143 563 215 508 142 b 228 300 282 143 228 196 b 194 342 228 326 217 340 l 99 342 b 56 297 69 342 56 326 b 396 -21 56 86 169 -21 b 731 356 628 -24 739 101 b 279 686 714 621 564 731 l 279 926 l 668 926 b 715 982 700 926 715 946 l 715 1053 b 660 1103 715 1086 697 1103 l 136 1103 b 97 1053 110 1103 97 1086 l 97 565 b 115 515 97 540 103 524 b 160 513 128 508 143 507 z "},"6":{"ha":835,"x_min":0,"x_max":0,"o":"m 631 838 l 714 860 b 735 897 732 865 739 878 b 424 1103 707 1035 603 1103 b 64 761 183 1101 64 988 l 64 299 b 417 -19 67 88 183 -18 b 768 358 650 -19 768 107 b 418 738 771 611 654 738 b 228 682 339 736 276 718 l 228 788 b 429 946 232 894 299 947 b 572 861 513 946 560 918 b 631 838 576 838 596 831 z m 418 133 b 236 321 299 132 238 194 l 236 388 b 418 578 236 514 297 578 b 599 354 539 579 599 506 b 418 133 596 207 535 133 z "},"7":{"ha":796,"x_min":0,"x_max":0,"o":"m 665 1103 l 85 1103 b 44 1057 58 1103 44 1088 l 44 833 b 92 785 44 801 61 785 l 169 785 b 219 838 203 785 219 803 l 219 932 l 501 932 l 175 25 b 214 -19 161 -4 174 -19 l 299 -19 b 361 17 329 -19 350 -7 l 717 1000 b 665 1103 739 1068 721 1101 z "},"8":{"ha":810,"x_min":0,"x_max":0,"o":"m 746 264 b 631 543 746 397 707 490 b 732 776 699 606 732 683 b 404 1104 731 994 621 1104 b 76 776 186 1103 76 993 b 181 543 75 697 110 619 b 63 258 103 486 64 390 b 404 -19 63 75 176 -18 b 746 264 632 -19 746 75 z m 404 953 b 578 799 519 953 578 901 b 406 611 576 674 519 611 b 233 799 290 611 233 674 b 404 953 233 901 290 953 z m 406 482 b 576 286 519 483 576 418 b 404 121 576 176 518 121 b 233 286 290 119 233 174 b 406 482 233 415 292 481 z "},"9":{"ha":835,"x_min":0,"x_max":0,"o":"m 204 246 l 121 224 b 100 186 104 218 96 206 b 411 -19 128 49 232 -19 b 772 333 651 -18 772 99 l 772 786 b 418 1104 768 997 651 1103 b 67 726 185 1104 67 978 b 418 347 65 474 182 347 b 607 403 496 349 560 367 l 607 311 b 406 138 604 194 538 136 b 263 222 322 138 275 165 b 204 246 258 246 239 253 z m 418 951 b 599 764 538 953 597 890 l 599 697 b 417 507 599 571 538 507 b 236 731 296 506 236 579 b 418 951 239 878 300 951 z "},"\u0000":{"ha":0,"x_min":0,"x_max":0,"o":""}," ":{"ha":322,"x_min":0,"x_max":0,"o":""},"\r":{"ha":404,"x_min":0,"x_max":0,"o":""}," ":{"ha":301,"x_min":0,"x_max":0,"o":""},"!":{"ha":361,"x_min":0,"x_max":0,"o":"m 226 1103 l 132 1103 b 67 1021 86 1103 65 1076 l 97 308 b 144 264 101 278 118 264 l 208 264 b 256 313 236 267 251 283 l 281 1021 b 226 1103 282 1076 264 1103 z m 236 -19 l 124 -19 b 74 29 89 -19 72 -3 l 85 139 b 128 179 86 167 101 179 l 242 179 b 288 129 269 179 285 163 l 296 29 b 236 -19 296 -6 276 -21 z "},"\"":{"ha":433,"x_min":0,"x_max":0,"o":"m 139 1115 l 121 1115 b 71 1064 85 1115 68 1099 l 86 901 b 128 861 89 874 104 861 l 140 861 b 186 911 167 861 182 878 l 199 1064 b 139 1115 201 1099 182 1115 z m 303 1115 l 283 1115 b 233 1064 247 1115 231 1099 l 249 901 b 293 861 253 874 267 861 l 304 861 b 349 911 331 861 344 878 l 363 1064 b 303 1115 365 1099 346 1115 z "},"#":{"ha":1122,"x_min":0,"x_max":0,"o":"m 671 110 l 725 288 l 878 288 b 947 346 911 288 935 307 l 965 401 b 925 456 976 438 963 456 l 779 456 l 835 636 l 975 636 b 1044 692 1008 636 1032 654 l 1063 749 b 1022 803 1072 783 1060 801 l 886 803 l 943 981 b 901 1035 954 1017 940 1035 l 838 1035 b 769 986 803 1035 781 1019 l 713 803 l 550 803 l 606 981 b 564 1035 617 1017 603 1035 l 500 1035 b 432 986 465 1035 443 1019 l 375 803 l 243 803 b 178 753 210 803 189 786 l 158 692 b 199 636 147 656 160 636 l 322 636 l 267 456 l 146 456 b 81 406 114 456 92 439 l 61 346 b 100 290 50 308 63 290 l 214 290 l 160 115 b 199 61 150 79 163 61 l 258 61 b 333 110 297 61 322 78 l 389 288 l 551 288 l 497 115 b 536 61 488 79 500 61 l 596 61 b 671 110 635 61 660 78 z m 604 456 l 442 456 l 497 636 l 660 636 z "},"$":{"ha":692,"x_min":0,"x_max":0,"o":"m 403 922 l 403 963 b 357 1003 404 990 388 1003 l 315 1003 b 274 961 288 1001 274 988 l 274 922 b 53 676 126 903 53 821 b 264 464 53 561 122 490 b 274 463 267 464 269 463 l 274 264 b 204 346 228 278 206 306 b 161 369 201 364 186 372 l 85 364 b 50 326 63 361 50 349 b 274 121 51 208 125 140 l 274 82 b 314 42 274 56 288 43 l 353 42 b 403 81 386 43 403 56 l 403 119 b 639 358 560 138 639 217 b 418 557 638 464 564 531 l 403 560 l 403 781 b 476 665 447 763 472 724 b 518 639 479 646 494 638 l 594 646 b 628 683 617 650 628 663 b 403 922 626 828 551 907 z m 201 683 b 274 783 201 735 225 767 l 274 599 b 201 683 225 622 201 651 z m 478 360 b 403 264 478 311 453 279 l 403 428 b 478 360 453 408 478 386 z "},"%":{"ha":1007,"x_min":0,"x_max":0,"o":"m 683 850 l 172 39 b 201 -19 149 0 158 -19 l 269 -19 b 347 26 306 -19 331 -4 l 854 839 b 819 888 875 871 864 888 l 754 888 b 683 850 724 888 700 875 z m 253 885 b 60 671 125 885 60 813 b 251 457 60 529 125 458 b 443 671 379 457 443 528 b 253 885 444 814 382 885 z m 251 583 b 185 671 207 583 185 613 b 253 758 185 729 207 758 b 321 671 299 758 321 729 b 251 583 319 613 297 583 z m 754 407 b 560 193 626 407 561 335 b 753 -21 561 51 626 -19 b 944 193 879 -21 943 50 b 754 407 946 336 883 407 z m 753 104 b 685 193 707 104 685 133 b 754 281 685 251 708 281 b 821 193 799 281 821 251 b 753 104 821 133 797 104 z "},"&":{"ha":889,"x_min":0,"x_max":0,"o":"m 768 76 l 819 151 b 813 200 833 172 831 189 b 725 260 783 218 756 238 b 806 392 747 290 774 335 b 790 456 818 419 813 440 l 740 489 b 682 474 714 507 694 501 b 604 354 661 433 636 394 b 438 536 535 419 479 481 b 515 628 465 565 490 596 b 578 726 540 660 561 693 b 607 825 594 760 604 793 b 583 919 610 857 601 889 b 494 1004 558 956 529 983 b 386 1035 461 1024 424 1033 b 274 1015 347 1036 310 1031 b 181 946 238 1000 206 978 b 139 861 158 919 144 892 b 139 767 133 832 133 800 b 172 665 144 735 156 700 b 229 558 188 629 207 594 b 47 229 108 461 47 351 b 93 68 47 158 63 106 b 203 -8 124 32 161 6 b 346 -18 246 -24 293 -26 b 500 35 397 -11 449 7 b 567 82 522 49 544 64 b 626 135 589 99 608 117 l 676 97 l 714 68 b 768 76 736 51 754 54 z m 228 193 b 229 306 210 226 211 264 b 329 424 247 349 281 388 b 500 243 376 364 433 304 b 343 142 442 189 389 156 b 228 193 296 128 258 146 z m 361 874 b 401 872 374 876 388 875 b 436 851 415 868 428 861 b 447 811 444 842 449 828 b 418 747 446 793 436 772 b 386 710 410 736 399 724 b 342 667 374 696 358 682 b 308 729 326 690 315 711 b 293 779 300 749 294 764 b 293 815 292 793 292 806 b 306 840 296 825 300 833 b 361 874 317 857 336 868 z "},"'":{"ha":250,"x_min":0,"x_max":0,"o":"m 128 1115 l 110 1115 b 60 1064 74 1115 57 1099 l 74 901 b 118 861 78 874 93 861 l 131 861 b 175 911 156 861 171 878 l 188 1064 b 128 1115 190 1099 171 1115 z "},"(":{"ha":478,"x_min":0,"x_max":0,"o":"m 217 542 b 250 796 217 614 228 699 b 410 1081 272 893 325 988 b 376 1104 424 1096 413 1104 l 304 1104 b 204 1033 275 1104 242 1081 b 96 821 165 986 129 915 b 46 542 63 726 46 633 b 96 261 46 449 63 354 b 204 47 129 167 165 96 b 304 -24 242 0 275 -24 l 376 -24 b 410 3 413 -24 424 -15 b 250 286 325 93 272 189 b 217 542 228 383 217 468 z "},")":{"ha":478,"x_min":0,"x_max":0,"o":"m 261 542 b 228 286 261 468 250 383 b 68 3 204 189 151 93 b 101 -24 53 -15 64 -24 l 174 -24 b 274 47 201 -24 235 0 b 381 261 311 96 347 167 b 431 542 414 354 431 449 b 381 821 431 633 414 726 b 274 1033 347 915 311 986 b 174 1104 235 1081 201 1104 l 101 1104 b 68 1081 64 1104 53 1096 b 228 796 151 988 204 893 b 261 542 250 699 261 614 z "},"*":{"ha":594,"x_min":0,"x_max":0,"o":"m 511 617 l 424 617 l 485 718 b 469 772 499 742 493 760 l 424 794 b 371 776 403 806 385 800 l 296 651 l 221 776 b 168 794 207 800 189 806 l 124 772 b 107 718 99 760 93 742 l 169 617 l 88 617 b 51 576 64 617 51 603 l 51 521 b 86 482 51 496 63 482 l 193 482 l 107 342 b 124 288 93 318 99 300 l 168 265 b 221 285 189 256 207 261 l 296 408 l 371 285 b 424 265 385 261 403 256 l 469 288 b 485 342 493 300 499 318 l 399 482 l 508 482 b 543 519 532 482 543 494 l 543 578 b 511 617 543 604 532 617 z "},"+":{"ha":563,"x_min":0,"x_max":0,"o":"m 69 482 l 215 482 l 215 339 b 251 304 215 315 228 304 l 311 304 b 349 335 336 304 349 314 l 349 482 l 492 482 b 526 519 515 482 526 494 l 526 578 b 494 617 526 604 517 617 l 349 617 l 349 758 b 308 794 349 782 335 794 l 253 794 b 215 761 228 794 215 783 l 215 617 l 72 617 b 36 576 49 617 36 603 l 36 521 b 69 482 36 496 47 482 z "},",":{"ha":324,"x_min":0,"x_max":0,"o":"m 144 -142 b 268 42 221 -100 263 -39 b 168 190 274 140 240 190 b 47 92 88 190 47 157 b 131 -7 47 28 75 -4 b 136 -26 142 -7 143 -12 b 100 -72 131 -39 118 -54 b 81 -115 81 -90 75 -104 b 144 -142 99 -146 119 -156 z "},"-":{"ha":639,"x_min":0,"x_max":0,"o":"m 111 476 l 525 476 b 565 517 551 476 565 489 l 565 583 b 524 624 565 610 551 624 l 113 624 b 74 581 86 624 74 608 l 74 518 b 111 476 74 490 86 476 z "},".":{"ha":325,"x_min":0,"x_max":0,"o":"m 263 96 b 240 175 261 135 253 161 b 163 197 226 188 201 196 b 86 172 124 196 99 188 b 64 96 72 158 65 132 b 86 19 65 58 74 33 b 163 -4 99 7 125 -4 b 238 19 199 -4 224 7 b 263 96 253 32 261 57 z "},"/":{"ha":617,"x_min":0,"x_max":0,"o":"m 406 1064 l 54 47 b 94 -19 38 3 51 -19 l 163 -19 b 228 35 193 -19 215 -1 l 571 1054 b 531 1103 582 1086 568 1103 l 465 1103 b 406 1064 435 1103 414 1090 z "},":":{"ha":310,"x_min":0,"x_max":0,"o":"m 243 344 b 224 414 242 379 235 401 b 154 435 211 426 189 433 b 86 413 121 433 97 425 b 67 344 75 400 68 378 b 88 276 68 311 75 288 b 154 254 99 264 121 257 b 222 275 186 257 208 264 b 243 344 235 288 242 310 z m 243 761 b 224 831 242 796 235 819 b 154 851 211 843 189 850 b 86 829 121 850 97 842 b 67 761 75 817 68 794 b 88 693 68 728 75 706 b 154 672 99 682 121 675 b 222 693 186 675 208 682 b 243 761 235 704 242 726 z "},";":{"ha":290,"x_min":0,"x_max":0,"o":"m 228 761 b 207 831 226 796 219 819 b 139 851 194 843 172 850 b 69 829 104 850 81 842 b 50 761 58 817 53 794 b 71 693 53 728 58 706 b 139 672 82 682 104 675 b 206 693 171 675 193 682 b 228 761 218 704 226 726 z m 131 171 b 232 324 194 206 228 257 b 149 446 236 406 208 446 b 50 364 83 446 50 418 b 118 283 50 313 74 285 b 125 268 128 283 129 278 b 93 229 119 257 110 244 b 78 193 78 214 72 201 b 131 171 92 168 110 161 z "},"<":{"ha":565,"x_min":0,"x_max":0,"o":"m 501 82 l 208 543 l 504 1006 b 492 1063 518 1029 514 1049 l 435 1096 b 375 1082 410 1111 389 1106 l 46 563 b 39 544 42 557 39 551 b 46 524 39 538 42 531 l 374 1 b 438 -12 389 -25 410 -29 l 490 18 b 501 82 514 33 518 54 z "},"=":{"ha":642,"x_min":0,"x_max":0,"o":"m 113 347 l 526 347 b 565 388 553 347 565 361 l 565 442 b 525 482 565 468 553 482 l 114 482 b 74 439 88 482 74 467 l 74 389 b 113 347 74 361 88 347 z m 113 618 l 526 618 b 565 658 553 618 565 631 l 565 713 b 525 751 565 739 553 751 l 114 751 b 74 708 88 751 74 738 l 74 660 b 113 618 74 632 88 618 z "},">":{"ha":565,"x_min":0,"x_max":0,"o":"m 61 1006 l 357 543 l 64 82 b 74 18 47 54 51 33 l 128 -12 b 193 1 156 -29 176 -25 l 518 524 b 525 544 524 531 525 538 b 518 563 525 551 524 557 l 192 1082 b 131 1096 176 1106 156 1111 l 74 1063 b 61 1006 50 1049 46 1029 z "},"?":{"ha":733,"x_min":0,"x_max":0,"o":"m 299 -19 l 411 -19 b 471 29 451 -21 471 -6 l 463 129 b 418 179 460 163 444 179 l 303 179 b 260 139 276 179 263 167 l 249 29 b 299 -19 247 -3 265 -19 z m 690 739 b 351 1117 686 992 574 1117 b 44 797 146 1117 44 1010 b 85 753 44 768 58 753 l 171 753 b 214 800 200 753 214 768 b 363 939 214 892 264 939 b 513 739 463 939 513 872 b 388 575 513 686 471 631 b 264 426 304 518 264 468 l 264 288 b 308 244 265 258 279 244 l 404 244 b 451 297 435 244 451 263 l 451 406 b 571 522 451 426 492 465 b 690 739 651 579 690 651 z "},"@":{"ha":1128,"x_min":0,"x_max":0,"o":"m 549 172 b 417 197 503 172 458 181 b 299 274 369 213 331 238 b 226 389 268 308 243 347 b 200 536 208 431 200 481 b 228 676 200 585 210 632 b 306 793 247 721 272 760 b 421 871 338 825 376 851 b 563 899 464 889 511 899 b 704 871 613 899 660 889 b 819 793 750 851 788 825 b 897 676 853 760 878 721 b 925 536 915 632 925 585 b 897 394 925 485 915 438 b 814 314 869 336 842 310 b 772 369 786 317 772 335 l 772 757 b 733 785 772 776 758 785 l 668 785 b 636 753 647 785 636 775 b 342 529 440 789 342 714 b 524 268 342 361 401 274 b 635 293 565 267 601 275 b 806 185 654 226 711 190 b 1015 304 899 179 968 219 b 1071 536 1053 379 1071 456 b 1031 733 1071 606 1058 672 b 922 896 1004 794 968 849 b 761 1004 876 942 824 978 b 563 1044 699 1031 633 1044 b 364 1004 492 1044 426 1031 b 203 896 303 978 249 942 b 94 733 157 849 121 794 b 54 536 67 672 54 606 b 89 335 54 465 65 399 b 193 169 113 271 147 217 b 358 61 239 121 293 86 b 563 25 424 38 492 25 l 581 25 b 615 33 596 25 608 28 b 619 64 622 39 624 49 l 600 139 b 549 172 593 161 576 172 z m 550 400 b 471 531 499 397 472 442 b 633 636 472 639 526 674 l 633 429 b 550 400 611 410 583 400 z "},"A":{"ha":729,"x_min":0,"x_max":0,"o":"m 483 26 b 531 -19 482 -4 499 -19 l 631 -19 b 664 21 651 -19 663 -6 b 604 538 658 193 639 364 b 453 1065 568 710 518 886 b 400 1100 442 1089 424 1100 l 326 1100 b 274 1063 303 1100 285 1088 b 189 803 242 978 214 890 b 125 538 164 714 143 625 b 83 275 108 449 93 361 b 63 21 72 188 65 103 b 71 -7 63 10 65 0 b 93 -19 75 -15 83 -19 l 190 -19 b 242 26 224 -19 240 -4 b 256 239 244 100 249 171 l 469 239 l 478 136 z m 360 815 l 361 814 l 361 815 b 417 618 383 756 401 689 b 454 388 432 547 444 471 l 269 388 b 307 618 279 468 292 544 b 360 815 322 690 340 757 z "},"B":{"ha":807,"x_min":0,"x_max":0,"o":"m 703 853 b 386 1101 703 1018 597 1101 l 135 1101 b 64 1032 88 1101 64 1078 l 64 47 b 136 -19 64 3 88 -19 l 482 -19 b 751 329 663 -19 751 97 b 594 628 751 494 699 594 b 703 853 667 650 703 725 z m 476 144 l 246 144 l 246 540 l 403 540 b 586 329 525 540 586 469 b 476 144 586 206 550 144 z m 536 814 b 389 696 536 735 488 696 l 246 696 l 246 946 l 385 946 b 536 814 486 946 536 901 z "},"C":{"ha":819,"x_min":0,"x_max":0,"o":"m 408 1111 b 57 713 175 1111 57 978 l 57 381 b 392 -26 57 108 169 -26 b 757 310 635 -26 757 85 b 714 358 757 340 743 357 l 638 369 b 582 321 603 372 585 357 b 394 144 574 203 513 144 b 240 365 292 144 240 218 l 240 699 b 413 940 240 860 299 940 b 578 756 517 940 571 879 b 631 714 579 725 597 711 l 714 719 b 757 768 743 724 757 740 b 408 1111 757 997 640 1111 z "},"D":{"ha":771,"x_min":0,"x_max":0,"o":"m 700 343 l 700 740 b 293 1101 700 981 564 1101 l 131 1101 b 61 1032 83 1101 61 1078 l 61 49 b 133 -18 61 4 85 -18 l 310 -18 b 700 343 569 -18 700 103 z m 333 150 l 233 150 l 233 935 l 333 935 b 526 785 463 935 526 885 l 526 297 b 333 150 526 199 463 150 z "},"E":{"ha":738,"x_min":0,"x_max":0,"o":"m 631 153 l 246 153 l 246 483 l 565 483 b 625 542 606 483 625 503 l 625 601 b 572 654 625 638 607 654 l 246 654 l 246 928 l 626 928 b 679 975 663 928 679 944 l 679 1051 b 622 1101 679 1085 660 1101 l 135 1101 b 67 1029 89 1101 67 1078 l 67 49 b 121 -17 67 6 85 -17 l 629 -17 b 679 28 663 -17 679 -1 l 679 106 b 631 153 679 138 663 153 z "},"F":{"ha":715,"x_min":0,"x_max":0,"o":"m 240 28 l 240 483 l 561 483 b 619 542 600 483 619 503 l 619 601 b 568 654 619 638 603 654 l 235 654 l 235 932 l 608 932 b 663 981 644 932 663 949 l 663 1051 b 606 1101 663 1085 643 1101 l 125 1101 b 58 1040 81 1101 58 1081 l 58 36 b 108 -17 58 1 75 -17 l 190 -17 b 240 28 224 -17 240 -1 z "},"G":{"ha":842,"x_min":0,"x_max":0,"o":"m 736 596 l 468 596 b 424 549 438 596 424 581 l 424 482 b 467 435 424 450 438 435 l 551 435 l 551 258 b 394 146 551 183 499 146 b 233 354 288 146 233 215 l 233 729 b 406 942 233 871 292 942 b 560 772 504 942 556 885 b 575 749 561 763 567 754 b 611 743 585 743 597 742 l 694 749 b 733 794 721 753 733 768 b 400 1114 733 1007 621 1114 b 56 742 169 1114 56 990 l 56 356 b 379 -25 56 101 163 -25 b 722 275 608 -25 722 75 l 722 435 l 733 435 b 779 479 764 435 779 449 l 779 546 b 736 596 779 579 764 596 z "},"H":{"ha":847,"x_min":0,"x_max":0,"o":"m 250 28 l 250 483 l 593 483 l 593 35 b 644 -17 593 0 610 -17 l 721 -17 b 772 28 756 -17 772 -1 l 772 1051 b 722 1101 772 1085 756 1101 l 650 1101 b 593 1044 613 1101 593 1082 l 593 654 l 250 654 l 250 1051 b 199 1101 250 1085 232 1101 l 128 1101 b 69 1044 89 1101 69 1082 l 69 35 b 115 -17 69 0 85 -17 l 199 -17 b 250 28 233 -17 250 -1 z "},"I":{"ha":475,"x_min":0,"x_max":0,"o":"m 103 -17 l 361 -17 b 406 25 392 -17 406 -3 l 406 99 b 364 144 406 129 392 144 l 322 144 l 322 942 l 361 942 b 406 985 392 942 406 956 l 406 1057 b 364 1101 406 1086 392 1101 l 110 1101 b 65 1058 81 1101 65 1088 l 65 985 b 103 942 65 956 78 942 l 144 942 l 144 144 l 110 144 b 65 100 81 144 65 129 l 65 26 b 103 -17 65 -3 78 -17 z "},"J":{"ha":692,"x_min":0,"x_max":0,"o":"m 50 167 b 306 -28 81 36 165 -28 b 565 381 478 -28 565 108 l 565 942 l 601 942 b 646 983 631 942 646 956 l 646 1057 b 603 1101 646 1086 632 1101 l 346 1101 b 301 1058 317 1101 301 1088 l 301 985 b 340 942 301 956 314 942 l 389 942 l 389 365 b 300 144 389 218 360 144 b 246 171 279 144 260 153 b 210 240 231 188 218 211 b 165 256 207 261 192 267 l 69 211 b 50 167 50 201 43 186 z "},"K":{"ha":767,"x_min":0,"x_max":0,"o":"m 243 701 l 243 1054 b 193 1101 243 1086 226 1101 l 114 1101 b 63 1051 81 1101 63 1085 l 63 35 b 115 -17 63 0 81 -17 l 193 -17 b 243 28 226 -17 243 -1 l 243 485 b 536 26 414 481 511 328 l 535 26 b 586 -19 535 -4 551 -19 l 664 -19 b 717 26 699 -19 717 -4 b 504 586 710 288 639 474 b 713 1057 615 689 685 846 b 663 1101 714 1086 697 1101 l 586 1101 b 532 1058 554 1101 536 1088 b 449 817 510 960 482 879 b 313 685 421 765 375 721 b 243 701 290 692 267 697 z "},"L":{"ha":653,"x_min":0,"x_max":0,"o":"m 106 -17 l 546 -17 b 592 25 576 -17 592 -3 l 592 97 b 547 144 592 129 576 144 l 235 144 l 235 1051 b 185 1101 235 1085 218 1101 l 108 1101 b 53 1049 71 1101 53 1083 l 53 35 b 106 -17 53 0 71 -17 z "},"M":{"ha":1031,"x_min":0,"x_max":0,"o":"m 604 369 l 775 746 l 778 29 l 776 29 b 826 -17 776 -1 793 -17 l 908 -17 b 958 33 942 -17 958 0 l 958 1051 b 901 1101 958 1085 939 1101 l 808 1101 b 756 1075 782 1101 765 1093 l 513 558 l 271 1074 b 210 1101 260 1092 239 1101 l 124 1101 b 67 1051 86 1101 67 1085 l 67 35 b 115 -17 67 0 83 -17 l 199 -17 b 247 32 231 -17 247 0 l 247 747 b 335 560 276 682 306 619 l 421 372 b 444 343 426 360 435 351 b 476 333 453 336 464 333 l 546 333 b 604 369 569 333 589 346 z "},"N":{"ha":881,"x_min":0,"x_max":0,"o":"m 801 28 l 801 1051 b 749 1101 801 1085 783 1101 l 674 1101 b 619 1050 638 1101 619 1085 l 619 328 l 269 1061 b 206 1101 256 1088 235 1101 l 126 1101 b 68 1044 88 1101 68 1082 l 68 32 b 119 -18 68 -1 85 -18 l 200 -18 b 251 32 235 -18 251 -1 l 251 682 l 576 26 b 647 -18 590 -3 614 -18 l 750 -18 b 801 28 785 -18 801 -3 z "},"O":{"ha":844,"x_min":0,"x_max":0,"o":"m 414 1111 b 57 547 175 1111 57 924 b 414 -29 57 164 175 -29 b 779 547 658 -29 779 164 b 414 1111 779 924 658 1111 z m 414 938 b 599 547 538 938 599 807 l 600 547 b 414 146 599 281 536 146 b 239 547 297 146 239 281 b 414 938 239 807 297 938 z "},"P":{"ha":719,"x_min":0,"x_max":0,"o":"m 665 769 b 335 1101 665 990 556 1101 l 107 1101 b 49 1044 68 1101 49 1082 l 49 33 b 97 -17 49 0 65 -17 l 176 -17 b 228 29 210 -17 228 -1 l 228 429 l 340 429 b 665 769 557 429 665 543 z m 499 753 b 365 607 499 656 454 607 l 228 607 l 228 926 l 358 926 b 499 753 451 926 499 868 z "},"Q":{"ha":874,"x_min":0,"x_max":0,"o":"m 413 1111 b 56 547 175 1111 56 924 b 413 -29 56 163 175 -29 b 640 57 507 -29 583 0 l 683 26 b 750 44 707 8 729 15 l 786 93 b 782 157 804 119 803 140 l 725 196 b 779 547 761 285 779 401 b 413 1111 779 924 657 1111 z m 578 306 l 531 339 b 469 328 508 356 488 353 l 429 275 b 415 240 419 261 415 250 b 421 222 415 233 417 228 b 435 208 424 218 428 213 l 490 167 b 413 146 468 153 442 146 b 231 547 292 146 231 281 b 413 938 231 807 292 938 b 604 547 540 938 604 807 b 597 411 604 497 601 453 b 578 306 592 371 585 336 z "},"R":{"ha":768,"x_min":0,"x_max":0,"o":"m 696 769 b 379 1101 696 990 590 1101 l 121 1101 b 63 1043 82 1101 63 1082 l 63 33 b 115 -17 63 0 81 -17 l 193 -17 b 242 29 226 -17 242 -1 l 242 429 b 519 150 428 426 519 333 l 519 32 b 568 -17 519 -1 536 -17 l 643 -17 b 696 32 678 -17 696 -1 l 696 154 b 554 483 696 318 649 428 b 696 769 649 539 696 635 z m 517 753 b 343 604 517 654 458 604 l 242 604 l 242 922 l 401 922 b 517 753 478 922 517 865 z "},"S":{"ha":788,"x_min":0,"x_max":0,"o":"m 246 779 b 394 944 246 889 294 944 b 553 772 494 944 547 888 b 603 740 554 749 571 738 l 688 747 b 725 793 713 751 725 767 b 388 1113 725 1006 613 1113 b 61 783 169 1113 61 1003 l 63 783 b 303 485 61 621 142 521 b 539 297 460 450 539 388 b 392 144 539 196 490 144 b 238 307 293 144 242 199 b 222 336 236 321 232 331 b 186 344 213 343 200 344 l 103 338 b 58 293 72 335 57 319 b 396 -26 60 81 172 -26 b 724 301 614 -26 724 83 b 482 603 724 463 643 564 b 246 779 324 640 246 699 z "},"T":{"ha":772,"x_min":0,"x_max":0,"o":"m 476 29 l 476 939 l 688 939 b 731 981 715 939 731 953 l 731 1058 b 689 1101 731 1088 717 1101 l 81 1101 b 38 1061 51 1101 38 1088 l 38 981 b 79 939 38 953 51 939 l 293 939 l 293 32 b 344 -17 293 0 310 -17 l 425 -17 b 476 29 458 -17 476 -1 z "},"U":{"ha":858,"x_min":0,"x_max":0,"o":"m 750 1101 l 639 1101 b 604 1065 615 1101 604 1089 l 604 414 b 422 146 604 236 543 146 b 247 414 306 146 247 236 l 247 1067 b 210 1101 247 1090 235 1101 l 100 1101 b 64 1065 76 1101 64 1089 l 64 414 b 422 -29 64 118 183 -29 b 788 414 665 -29 788 118 l 788 1064 b 750 1101 788 1089 775 1101 z "},"V":{"ha":864,"x_min":0,"x_max":0,"o":"m 432 261 l 431 263 l 431 261 b 235 1054 339 467 274 732 b 186 1100 232 1085 215 1100 l 81 1100 b 54 1089 68 1100 60 1096 b 50 1058 50 1082 49 1071 b 151 542 69 892 103 719 b 340 15 200 365 263 189 b 392 -19 351 -8 368 -19 l 467 -19 b 518 19 489 -19 507 -7 b 707 543 594 192 657 367 b 811 1058 758 721 793 892 b 776 1100 814 1086 801 1100 l 674 1100 b 624 1054 644 1100 626 1085 b 547 613 604 892 579 744 b 432 261 515 482 476 364 z "},"W":{"ha":1156,"x_min":0,"x_max":0,"o":"m 699 17 b 750 -17 710 -6 728 -17 l 836 -17 b 890 21 861 -17 879 -4 b 1024 544 946 196 990 371 b 1089 1058 1057 718 1079 890 b 1081 1088 1089 1069 1086 1079 b 1057 1100 1075 1096 1067 1100 l 963 1100 b 926 1088 947 1100 935 1096 b 913 1054 919 1079 914 1068 b 863 618 900 893 883 749 b 792 276 842 488 818 374 l 792 278 l 790 276 l 751 469 b 714 671 738 538 725 604 l 683 869 l 663 1054 b 608 1100 657 1085 639 1100 l 538 1100 b 488 1054 508 1100 490 1085 b 439 672 475 928 458 801 b 364 276 418 543 393 411 l 364 278 l 363 276 b 324 433 349 324 336 375 b 289 621 311 492 300 554 b 260 831 278 688 268 758 b 236 1054 250 904 243 978 b 188 1100 233 1085 218 1100 l 93 1100 b 60 1058 69 1100 58 1086 b 260 17 79 718 146 369 b 311 -17 271 -6 289 -17 l 397 -17 b 451 21 422 -17 440 -4 b 518 279 475 94 497 181 b 576 621 540 379 558 493 b 699 17 607 364 647 163 z m 578 625 b 576 624 578 624 576 622 z "},"X":{"ha":922,"x_min":0,"x_max":0,"o":"m 81 1043 l 356 540 l 81 31 b 104 -17 64 -1 72 -17 l 199 -17 b 276 32 233 -17 260 0 l 368 201 l 458 369 l 642 32 b 719 -17 658 0 685 -17 l 814 -17 b 838 31 846 -17 854 -1 l 563 540 l 838 1043 b 807 1101 857 1082 846 1101 l 718 1101 b 640 1054 686 1101 660 1086 l 458 715 l 278 1054 b 200 1101 258 1086 232 1101 l 111 1101 b 81 1043 72 1101 61 1082 z "},"Y":{"ha":878,"x_min":0,"x_max":0,"o":"m 524 32 l 524 524 l 810 1043 b 779 1101 831 1082 821 1101 l 689 1101 b 613 1054 656 1101 631 1086 l 435 728 l 263 1054 b 185 1101 243 1086 217 1101 l 93 1101 b 63 1043 54 1101 43 1082 l 344 531 l 344 32 b 390 -17 344 0 360 -17 l 476 -17 b 524 32 507 -17 524 -1 z "},"Z":{"ha":782,"x_min":0,"x_max":0,"o":"m 97 -17 l 678 -17 b 719 25 706 -17 719 -3 l 719 101 b 678 146 719 132 706 146 l 317 146 l 707 1043 l 707 1042 b 678 1100 729 1081 719 1100 l 99 1100 b 56 1057 69 1100 56 1086 l 56 981 b 93 939 56 953 68 939 l 465 939 l 74 29 l 74 31 b 97 -17 54 -1 63 -17 z "},"[":{"ha":425,"x_min":0,"x_max":0,"o":"m 113 8 l 313 8 b 358 57 343 8 358 25 l 358 110 b 311 157 358 142 342 157 l 217 157 l 217 939 l 311 939 b 358 990 342 939 358 957 l 358 1043 b 311 1090 358 1075 342 1090 l 114 1090 b 67 1043 82 1090 67 1075 l 67 57 b 113 8 67 24 82 8 z "},"\\":{"ha":1035,"x_min":0,"x_max":0,"o":"m 885 568 l 940 568 b 981 614 968 568 981 583 l 981 656 b 939 697 981 683 967 697 l 908 697 b 931 885 919 760 926 822 b 900 918 932 907 922 918 l 821 918 b 775 879 793 918 778 906 b 756 697 769 813 763 753 l 610 697 b 578 879 597 758 588 819 b 533 918 575 906 560 918 l 492 918 b 446 879 465 918 450 906 l 411 697 l 269 697 b 249 879 261 753 254 813 b 204 918 247 906 232 918 l 121 918 b 93 885 101 918 92 907 b 114 697 97 822 104 760 l 93 697 b 53 657 67 697 53 683 l 53 618 b 92 568 53 585 67 568 l 139 568 b 263 158 167 432 208 296 b 307 129 271 139 286 129 l 375 129 b 421 163 397 129 414 140 b 501 568 453 278 479 413 l 524 568 b 604 158 542 414 569 278 b 649 129 611 139 625 129 l 718 129 b 761 163 738 129 753 140 b 885 568 815 299 856 433 z m 689 375 b 681 375 686 369 683 369 l 636 568 l 736 568 b 689 375 721 490 706 426 z m 346 375 b 340 375 344 369 342 369 b 289 568 321 426 303 490 l 388 568 z "},"]":{"ha":426,"x_min":0,"x_max":0,"o":"m 113 7 l 313 7 b 358 57 343 7 358 24 l 358 1043 b 310 1090 358 1075 342 1090 l 114 1090 b 67 1043 82 1090 67 1075 l 67 992 b 113 939 67 957 82 939 l 208 939 l 208 157 l 114 157 b 67 110 82 157 67 142 l 67 56 b 113 7 67 22 82 7 z "},"^":{"ha":618,"x_min":0,"x_max":0,"o":"m 163 758 l 308 903 l 456 758 b 511 760 474 740 492 740 l 550 797 b 549 854 568 817 568 835 l 336 1064 b 307 1076 326 1072 317 1076 b 282 1064 299 1076 289 1072 l 69 854 b 68 797 50 835 50 817 l 107 760 b 163 758 125 740 144 740 z "},"_":{"ha":781,"x_min":0,"x_max":0,"o":"m 104 8 l 672 8 b 707 44 696 8 707 19 l 707 104 b 672 142 707 129 696 142 l 106 142 b 72 104 83 142 72 129 l 72 42 b 104 8 72 19 82 8 z "},"`":{"ha":332,"x_min":0,"x_max":0,"o":"m 58 1064 l 121 864 b 186 819 131 835 153 819 l 240 819 b 275 868 272 821 283 838 l 213 1069 b 151 1114 204 1099 183 1114 l 94 1114 b 58 1064 60 1114 49 1097 z "},"a":{"ha":793,"x_min":0,"x_max":0,"o":"m 104 714 l 144 654 b 172 639 153 644 161 640 b 206 650 182 639 194 643 b 294 689 232 667 261 679 b 401 703 328 699 364 703 b 549 590 499 703 549 665 b 367 618 478 608 417 618 b 57 249 161 618 57 494 b 329 -15 57 72 149 -15 b 436 -4 364 -15 399 -12 b 550 29 474 3 513 14 b 596 -17 550 -1 565 -17 l 675 -17 b 725 25 708 -17 725 -3 l 725 560 b 389 858 725 758 613 858 b 113 771 268 858 176 829 b 104 714 92 751 89 732 z m 369 139 b 224 253 272 132 224 171 b 396 453 224 386 282 453 b 467 446 418 453 442 450 b 550 424 492 442 519 435 l 550 197 b 369 139 494 167 433 147 z "},"b":{"ha":768,"x_min":0,"x_max":0,"o":"m 54 1058 l 54 25 b 104 -17 54 -3 71 -17 l 183 -17 b 231 24 213 -17 228 -3 b 329 -7 264 10 297 -1 b 425 -17 360 -14 392 -17 b 708 429 614 -17 708 132 b 401 824 708 692 607 824 b 228 796 354 824 296 814 l 228 1057 b 186 1099 228 1085 214 1099 l 94 1099 b 54 1058 68 1099 54 1086 z m 540 433 b 397 147 540 243 493 147 b 229 189 328 147 272 161 l 229 631 b 301 649 256 639 279 646 b 364 654 324 651 344 654 b 540 433 482 654 540 581 z "},"c":{"ha":757,"x_min":0,"x_max":0,"o":"m 388 875 b 57 532 168 875 57 761 l 57 311 b 371 -26 57 86 163 -26 b 690 258 579 -26 686 68 b 649 306 690 288 676 304 l 578 315 b 528 282 544 318 528 307 b 375 144 524 190 472 144 b 232 324 278 144 231 204 l 232 518 b 393 706 232 643 285 706 b 524 569 476 706 521 660 b 540 542 525 557 531 549 b 574 533 550 536 561 533 l 649 540 b 681 553 661 542 672 546 b 690 583 688 560 692 571 b 388 875 690 778 589 875 z "},"d":{"ha":768,"x_min":0,"x_max":0,"o":"m 708 29 l 708 1058 b 667 1099 708 1086 694 1099 l 574 1099 b 535 1057 547 1099 535 1085 l 535 807 b 446 826 504 815 474 821 b 367 833 417 831 390 833 b 54 393 158 833 54 686 b 338 -15 54 121 149 -15 b 533 24 400 -15 465 -3 b 582 -17 536 -3 551 -17 l 660 -17 b 708 29 693 -17 708 -1 z m 365 147 b 228 397 274 147 228 231 b 399 672 228 581 285 672 b 535 642 438 672 482 663 l 535 189 b 365 147 482 161 425 147 z "},"e":{"ha":758,"x_min":0,"x_max":0,"o":"m 388 856 b 57 511 168 856 57 740 l 57 311 b 371 -26 57 86 163 -26 b 601 38 472 -26 549 -6 b 690 219 656 81 685 140 b 681 249 690 231 688 239 b 651 264 674 257 664 263 l 578 275 b 528 240 544 278 528 267 b 375 144 524 176 472 144 b 231 324 279 144 231 204 l 231 392 l 632 392 b 690 446 671 392 690 410 b 388 856 693 718 593 856 z m 382 692 b 519 546 472 692 518 643 l 231 546 b 382 692 235 643 285 692 z "},"f":{"ha":464,"x_min":0,"x_max":0,"o":"m 406 983 l 406 1063 b 375 1099 406 1086 396 1099 b 285 1088 343 1099 313 1094 b 128 879 179 1058 128 989 l 128 815 l 74 815 b 38 775 50 815 38 803 l 38 697 b 79 656 38 669 51 656 l 128 656 l 128 29 b 175 -17 128 -1 143 -17 l 250 -17 b 301 32 285 -17 301 0 l 301 656 l 383 656 b 422 694 410 657 422 669 l 422 779 b 383 815 422 804 410 815 l 301 815 l 301 850 b 378 942 301 913 326 943 b 406 983 397 944 406 958 z "},"g":{"ha":758,"x_min":0,"x_max":0,"o":"m 653 846 l 551 846 b 510 810 528 846 514 833 b 368 846 472 833 425 846 b 63 435 164 846 63 708 b 358 -21 63 132 161 -21 b 510 57 410 -21 461 6 l 510 -31 b 399 -146 510 -107 472 -146 b 310 -139 364 -146 335 -143 b 251 -118 285 -133 265 -126 b 197 -118 231 -106 213 -106 l 117 -189 b 119 -243 97 -206 99 -224 b 407 -314 176 -290 272 -314 b 690 -31 596 -314 690 -219 l 690 807 b 653 846 690 833 678 846 z m 367 143 b 238 432 281 151 238 247 b 275 613 238 511 250 571 b 382 683 300 654 336 678 b 457 663 407 683 433 676 b 515 601 481 649 500 629 l 515 239 b 367 143 479 169 429 138 z "},"h":{"ha":715,"x_min":0,"x_max":0,"o":"m 401 844 b 314 831 368 844 339 839 b 244 793 288 822 264 810 l 244 1050 b 200 1099 244 1082 229 1099 l 107 1099 b 63 1051 76 1099 63 1082 l 63 29 b 107 -17 63 -1 76 -17 l 199 -17 b 244 26 229 -17 244 -3 l 244 636 b 307 678 264 654 285 668 b 376 692 329 688 351 692 b 474 565 442 692 474 650 l 474 25 b 517 -17 474 -3 488 -17 l 608 -17 b 651 26 638 -17 651 -3 l 651 565 b 401 844 651 751 568 844 z "},"i":{"ha":314,"x_min":0,"x_max":0,"o":"m 243 35 l 243 793 b 186 850 243 832 224 850 l 121 850 b 63 794 82 850 63 832 l 63 33 b 117 -17 63 0 81 -17 l 186 -17 b 243 35 224 -17 243 0 z m 243 961 l 243 1033 b 182 1090 243 1071 222 1090 l 121 1090 b 63 1035 82 1090 63 1072 l 63 960 b 117 908 63 926 81 908 l 181 908 b 243 961 222 908 243 926 z "},"j":{"ha":621,"x_min":0,"x_max":0,"o":"m 50 -21 b 306 -215 78 -150 163 -215 b 564 192 478 -215 564 -79 l 564 804 b 521 850 564 835 550 850 l 433 850 b 382 806 399 850 382 835 l 382 175 b 300 -44 382 29 354 -44 b 210 50 253 -44 222 -12 b 167 68 206 72 190 78 l 71 24 b 50 -21 51 14 44 -1 z m 563 961 l 563 1033 b 501 1090 563 1071 542 1090 l 440 1090 b 382 1035 401 1090 382 1072 l 382 960 b 436 908 382 926 400 908 l 500 908 b 563 961 542 908 563 926 z "},"k":{"ha":714,"x_min":0,"x_max":0,"o":"m 224 564 l 224 1046 b 179 1099 224 1081 208 1099 l 101 1099 b 50 1044 68 1099 50 1081 l 50 31 b 103 -21 50 -3 68 -21 l 175 -21 b 224 26 207 -21 224 -6 l 224 389 b 489 24 386 329 474 207 b 540 -21 489 -6 506 -21 l 613 -21 b 664 24 646 -21 664 -6 b 386 489 649 244 556 400 b 532 622 444 525 494 569 b 628 800 571 675 603 733 b 596 849 640 832 629 849 l 493 849 b 440 804 467 849 449 833 b 361 675 421 758 394 714 b 224 564 328 635 282 597 z "},"l":{"ha":325,"x_min":0,"x_max":0,"o":"m 250 36 l 250 1047 b 199 1099 250 1081 232 1099 l 121 1099 b 69 1046 88 1099 69 1081 l 69 32 b 121 -17 69 -1 86 -17 l 193 -17 b 250 36 231 -17 250 1 z "},"m":{"ha":929,"x_min":0,"x_max":0,"o":"m 654 849 b 492 790 588 849 533 829 b 354 849 454 829 408 849 b 238 789 303 849 264 828 l 238 806 b 193 849 238 833 222 849 l 108 849 b 63 804 78 849 63 833 l 63 32 b 107 -17 63 -1 78 -17 l 194 -17 b 238 26 224 -17 238 -3 l 238 608 b 314 692 238 664 263 692 b 385 619 361 692 385 668 l 385 25 b 428 -17 385 -3 399 -17 l 507 -17 b 549 26 535 -17 549 -3 l 549 619 b 619 692 549 668 572 692 b 683 619 663 692 683 668 l 683 25 b 725 -17 683 -3 697 -17 l 819 -17 b 861 26 847 -17 861 -3 l 861 650 b 654 849 861 782 793 849 z "},"n":{"ha":738,"x_min":0,"x_max":0,"o":"m 404 864 b 242 808 336 864 282 846 l 242 819 b 199 863 242 849 228 863 l 111 863 b 67 817 82 863 67 847 l 67 26 b 108 -17 67 -3 81 -17 l 200 -17 b 242 26 228 -17 242 -3 l 242 651 b 378 713 281 692 325 713 b 493 585 454 713 493 669 l 493 25 b 535 -17 493 -3 507 -17 l 619 -17 b 661 26 647 -17 661 -3 l 661 585 b 404 864 663 771 576 864 z "},"o":{"ha":842,"x_min":0,"x_max":0,"o":"m 414 851 b 57 421 176 851 57 708 b 414 -22 57 125 176 -22 b 778 421 656 -22 778 125 b 414 851 778 708 656 851 z m 414 690 b 607 421 542 690 607 600 b 414 139 607 233 542 139 b 229 421 292 139 229 233 b 414 690 229 600 292 690 z "},"p":{"ha":754,"x_min":0,"x_max":0,"o":"m 47 797 l 47 -267 b 89 -314 47 -299 61 -314 l 179 -314 b 226 -265 210 -314 226 -297 l 226 46 b 418 4 290 18 354 4 b 701 451 607 4 701 153 b 397 844 701 714 600 844 b 224 818 347 844 290 836 b 175 846 219 836 203 846 l 97 846 b 47 797 64 846 47 831 z m 533 454 b 392 169 533 264 486 169 b 225 210 332 169 276 182 l 225 653 b 294 669 250 661 274 667 b 357 675 317 674 338 675 b 533 454 475 675 533 601 z "},"q":{"ha":757,"x_min":0,"x_max":0,"o":"m 701 -269 l 701 803 b 651 846 701 832 685 846 l 578 846 b 533 818 554 846 539 836 b 438 839 499 828 467 835 b 356 844 408 843 381 844 b 47 451 150 844 47 714 b 331 4 47 153 142 4 b 531 46 396 4 463 18 l 531 -269 b 571 -312 531 -299 544 -312 l 660 -312 b 701 -269 688 -312 701 -299 z m 358 169 b 217 454 265 169 218 264 b 396 675 217 601 276 675 b 531 653 433 675 478 668 l 531 210 b 358 169 476 182 419 169 z "},"r":{"ha":482,"x_min":0,"x_max":0,"o":"m 429 708 l 429 814 b 390 844 429 836 415 846 b 292 824 351 842 318 835 b 231 782 265 813 244 799 l 231 806 b 186 849 231 833 217 849 l 97 849 b 53 801 68 849 53 832 l 53 32 b 96 -17 53 -1 67 -17 l 186 -17 b 231 26 217 -17 231 -3 l 231 617 b 293 651 244 629 265 640 b 394 669 322 663 356 668 b 429 708 417 669 429 682 z "},"s":{"ha":763,"x_min":0,"x_max":0,"o":"m 233 590 b 378 706 233 667 282 706 b 525 571 472 706 521 660 b 578 539 528 547 544 536 l 660 546 b 699 590 686 547 699 563 b 376 861 697 771 590 861 b 63 581 167 861 63 768 b 292 346 63 456 139 378 b 513 235 439 317 513 281 b 379 125 513 161 468 125 b 236 213 289 125 242 154 b 186 250 235 240 218 253 l 100 242 b 63 199 72 238 60 224 b 385 -33 63 44 171 -33 b 696 232 593 -33 696 54 b 463 454 696 353 618 428 b 233 590 310 482 233 526 z "},"t":{"ha":472,"x_min":0,"x_max":0,"o":"m 410 15 l 410 96 b 379 139 410 124 400 139 b 300 229 326 138 300 168 l 300 689 l 390 689 b 426 724 414 689 426 700 l 426 810 b 388 850 426 836 414 850 l 300 850 l 300 924 b 247 972 300 956 283 972 l 178 972 b 125 926 143 972 125 957 l 125 850 l 83 850 b 42 807 56 850 42 835 l 42 726 b 79 689 42 701 54 689 l 125 689 l 125 199 b 289 -8 125 90 179 21 l 329 -15 b 379 -17 343 -17 360 -17 b 410 15 400 -17 410 -6 z "},"u":{"ha":774,"x_min":0,"x_max":0,"o":"m 667 850 l 564 850 b 529 811 540 850 529 836 l 529 346 b 381 146 529 213 479 146 b 238 346 285 146 238 213 l 238 810 b 199 850 238 836 225 850 l 100 850 b 64 810 76 850 64 836 l 64 346 b 381 -28 64 97 169 -28 b 704 346 596 -28 704 97 l 704 813 b 667 850 704 838 692 850 z "},"v":{"ha":842,"x_min":0,"x_max":0,"o":"m 418 222 b 358 329 397 251 378 288 b 307 465 340 369 322 415 b 263 624 290 514 276 567 b 228 801 250 681 238 739 b 174 849 225 832 206 849 l 81 849 b 51 806 58 849 49 833 b 150 400 69 669 103 535 b 329 14 197 267 257 138 b 385 -18 342 -7 360 -18 l 451 -18 b 507 18 476 -18 494 -6 b 686 401 579 139 638 267 b 785 806 733 535 767 669 b 757 849 788 833 778 849 l 664 849 b 625 836 649 849 635 844 b 608 801 615 829 610 817 b 575 624 599 739 588 681 b 531 465 561 567 547 514 b 479 329 515 415 499 369 b 421 222 461 288 442 251 b 418 222 419 219 419 219 z "},"w":{"ha":1046,"x_min":0,"x_max":0,"o":"m 617 15 b 665 -18 624 -7 640 -18 l 742 -18 b 794 19 767 -18 783 -6 b 917 413 846 150 888 281 b 978 806 947 544 967 676 b 968 836 976 818 974 828 b 943 849 963 844 954 849 l 856 849 b 803 800 822 849 804 832 b 763 482 792 682 778 575 b 707 253 746 388 728 311 l 707 254 b 706 254 707 253 706 253 l 706 253 b 643 533 683 344 663 438 b 594 801 625 629 608 718 b 542 849 590 832 574 849 l 494 849 b 443 801 463 849 446 832 l 393 535 b 335 253 375 444 357 350 l 335 254 b 333 254 335 253 333 253 l 333 253 b 276 482 313 311 293 388 b 235 800 260 575 246 682 b 183 849 232 832 214 849 l 89 849 b 65 838 78 849 69 844 b 60 806 61 832 58 821 b 119 411 68 674 89 543 b 243 15 150 281 192 149 b 294 -18 254 -7 271 -18 l 372 -18 b 422 19 397 -18 414 -6 b 521 526 458 160 492 329 b 560 251 532 428 544 336 b 617 15 576 167 594 88 z m 519 531 l 521 529 b 519 531 519 528 519 529 z "},"x":{"ha":790,"x_min":0,"x_max":0,"o":"m 278 32 l 393 240 l 513 25 b 588 -18 528 -4 554 -18 l 661 -18 b 697 35 704 -18 715 0 l 594 225 l 489 415 l 694 789 b 701 831 704 807 707 821 b 660 846 694 840 681 846 l 586 846 b 501 793 550 846 522 828 l 393 594 l 283 793 b 199 846 265 828 238 846 l 126 846 b 92 789 85 846 74 826 l 296 415 l 192 225 l 88 35 b 113 -18 69 0 78 -18 l 186 -18 b 278 32 224 -18 254 -1 z "},"y":{"ha":764,"x_min":0,"x_max":0,"o":"m 654 849 l 564 849 b 526 808 539 849 526 835 l 526 239 l 528 240 b 369 144 496 176 443 144 b 238 432 282 144 238 240 l 238 810 b 201 849 238 836 225 849 l 99 849 b 64 810 76 849 64 836 l 64 435 b 360 -21 64 132 163 -21 b 528 57 421 -21 476 6 l 528 -37 b 400 -153 528 -114 485 -153 b 313 -144 367 -153 338 -150 b 254 -125 288 -140 268 -133 b 199 -125 236 -112 217 -112 l 119 -189 b 122 -243 101 -204 103 -222 b 411 -314 179 -290 275 -314 b 694 -31 600 -314 694 -219 l 694 806 b 654 849 694 833 681 849 z "},"z":{"ha":788,"x_min":0,"x_max":0,"o":"m 657 846 l 132 846 b 81 790 97 846 81 828 l 81 739 b 133 690 81 706 99 690 l 442 690 l 86 35 b 121 -18 69 0 82 -18 l 654 -18 b 703 36 686 -18 703 0 l 703 86 b 653 139 703 121 686 139 l 335 139 l 692 789 b 699 831 703 807 704 821 b 657 846 693 840 679 846 z "},"{":{"ha":535,"x_min":0,"x_max":0,"o":"m 438 157 l 343 157 l 343 347 l 219 543 l 343 738 l 343 939 l 439 939 b 485 992 469 939 485 957 l 485 1043 b 438 1090 485 1075 469 1090 l 240 1090 b 193 1043 210 1090 193 1075 l 193 779 l 57 563 b 50 544 53 557 50 551 b 57 524 50 538 53 531 l 193 306 l 193 57 b 240 8 193 24 208 8 l 439 8 b 485 58 469 8 485 25 l 485 110 b 438 157 485 142 469 157 z "},"|":{"ha":292,"x_min":0,"x_max":0,"o":"m 218 24 l 218 1060 b 172 1104 218 1089 203 1104 l 118 1104 b 74 1057 88 1104 74 1089 l 74 24 b 118 -19 74 -6 88 -19 l 172 -19 b 218 24 203 -19 218 -6 z "},"}":{"ha":535,"x_min":0,"x_max":0,"o":"m 317 543 l 193 347 l 193 157 l 97 157 b 50 110 67 157 50 142 l 50 58 b 97 8 50 25 67 8 l 296 8 b 342 57 326 8 342 24 l 342 306 l 478 524 b 485 544 482 531 485 538 b 478 563 485 551 482 557 l 342 779 l 342 1043 b 294 1090 342 1075 326 1090 l 97 1090 b 50 1043 67 1090 50 1075 l 50 992 b 97 939 50 957 67 939 l 193 939 l 193 738 z "},"~":{"ha":817,"x_min":0,"x_max":0,"o":"m 560 564 b 424 636 522 564 476 589 b 263 708 371 685 317 708 b 85 622 189 707 129 678 b 67 542 58 600 53 574 l 88 489 b 156 468 106 449 128 443 b 257 528 185 508 218 528 b 404 456 304 528 353 503 b 554 382 456 407 506 382 b 732 469 628 383 688 413 b 749 549 757 492 763 518 l 728 603 b 660 624 711 642 688 649 b 560 564 632 583 599 564 z "},"¥":{"ha":736,"x_min":0,"x_max":0,"o":"m 444 169 l 444 346 l 650 346 b 688 389 675 346 688 361 l 688 429 b 649 468 688 456 674 468 l 444 468 l 444 517 l 456 536 l 650 536 b 688 578 675 536 688 550 l 688 618 b 649 657 688 644 674 657 l 524 657 l 649 874 b 625 921 665 906 657 921 l 547 921 b 478 879 518 921 496 907 l 368 686 l 264 879 b 193 921 247 907 224 921 l 118 921 b 93 874 85 921 76 906 l 213 657 l 85 657 b 46 619 58 657 46 644 l 46 583 b 83 536 46 551 58 536 l 281 536 l 288 522 l 288 468 l 85 468 b 46 429 58 468 46 456 l 46 394 b 83 346 46 363 58 346 l 288 346 l 288 176 b 335 131 288 146 303 131 l 400 131 b 444 169 429 131 444 143 z "},"©":{"ha":1129,"x_min":0,"x_max":0,"o":"m 201 536 b 231 676 201 585 211 632 b 307 793 249 721 275 760 b 422 871 339 825 378 851 b 564 899 467 889 514 899 b 706 871 614 899 661 889 b 821 793 750 851 789 825 b 899 676 854 760 879 721 b 926 536 918 632 926 585 b 899 394 926 485 918 438 b 821 278 879 350 854 311 b 706 201 789 246 750 219 b 564 172 661 182 614 172 b 422 201 514 172 467 182 b 307 278 378 219 339 246 b 231 394 275 311 249 350 b 201 536 211 438 201 485 z m 57 536 b 96 338 57 465 69 399 b 204 175 122 275 158 221 b 365 65 250 128 304 92 b 564 25 428 38 493 25 b 763 65 635 25 701 38 b 924 175 824 92 878 128 b 1032 338 969 221 1006 275 b 1072 536 1058 399 1072 465 b 1032 733 1072 606 1058 672 b 924 896 1006 794 969 849 b 763 1004 878 942 824 978 b 564 1044 701 1031 635 1044 b 365 1004 493 1044 428 1031 b 204 896 304 978 250 942 b 96 733 158 849 122 794 b 57 536 69 672 57 606 z m 463 561 l 463 503 b 578 371 461 415 500 371 b 660 417 618 371 646 386 b 700 429 667 431 681 435 l 756 410 b 772 372 774 404 779 392 b 574 254 746 297 679 257 b 346 494 424 254 347 335 l 346 571 b 574 810 347 731 424 810 b 772 692 679 807 746 768 b 756 654 779 674 774 661 l 700 636 b 660 649 681 629 667 633 b 578 693 646 678 618 693 b 463 561 500 693 461 649 z "},"°":{"ha":482,"x_min":0,"x_max":0,"o":"m 242 1118 b 168 1104 215 1118 190 1114 b 110 1067 146 1094 126 1082 b 71 1010 93 1051 79 1032 b 57 936 61 986 57 963 b 71 871 57 913 61 890 b 108 815 79 850 92 832 b 165 779 124 800 143 788 b 240 765 189 769 214 765 b 308 778 264 765 286 769 b 368 814 331 786 350 799 b 410 869 385 829 399 847 b 425 942 419 892 425 915 b 411 1010 425 965 421 988 b 374 1065 403 1031 390 1050 b 317 1104 358 1082 339 1094 b 242 1118 294 1114 269 1118 z m 240 1031 b 276 1022 253 1031 265 1028 b 303 1001 288 1018 296 1011 b 319 974 310 993 315 983 b 324 942 322 964 324 953 b 300 876 324 915 315 893 b 240 850 283 860 264 850 b 181 876 217 850 197 858 b 157 939 165 893 157 914 b 163 972 157 950 160 961 b 179 1001 167 983 172 993 b 204 1022 186 1011 194 1018 b 240 1031 215 1028 226 1031 z "},"¶":{"ha":679,"x_min":0,"x_max":0,"o":"m 547 -4 l 600 -4 b 624 25 615 -4 624 6 l 624 892 b 581 926 624 915 608 926 l 317 926 b 197 910 271 926 231 921 b 115 865 164 899 136 885 b 68 800 94 847 78 825 b 54 718 58 775 54 747 b 72 631 54 685 60 656 b 122 565 83 604 100 583 b 196 524 143 547 168 533 b 288 511 225 515 254 511 l 329 511 l 329 22 b 354 -4 329 4 338 -4 l 410 -4 b 432 24 425 -4 432 6 l 432 838 l 524 838 l 524 22 b 547 -4 524 4 532 -4 z "},"·":{"ha":321,"x_min":0,"x_max":0,"o":"m 260 536 b 238 615 257 575 250 601 b 160 638 225 629 199 636 b 83 614 121 636 94 628 b 61 536 71 599 63 574 b 83 461 63 499 71 474 b 160 436 97 447 122 439 b 235 460 196 439 221 447 b 260 536 250 472 257 499 z "},"×":{"ha":738,"x_min":0,"x_max":0,"o":"m 174 272 l 369 468 l 565 272 b 621 275 583 254 601 256 l 654 308 b 658 367 676 329 676 349 l 463 561 l 658 757 b 658 814 676 775 676 794 l 619 851 b 564 850 601 869 582 869 l 369 656 l 175 850 b 119 851 156 869 138 869 l 81 814 b 81 757 61 794 61 775 l 275 561 l 81 367 b 83 308 61 349 63 329 l 117 275 b 174 272 136 256 156 254 z "},"÷":{"ha":746,"x_min":0,"x_max":0,"o":"m 674 494 l 69 494 b 32 536 44 494 32 508 l 32 585 b 71 629 32 614 44 629 l 672 629 b 714 589 700 629 714 615 l 714 536 b 674 494 714 508 700 494 z m 465 319 b 444 399 464 358 457 385 b 367 421 431 411 406 419 b 289 397 328 419 301 411 b 268 319 276 382 269 357 b 290 243 269 282 276 257 b 367 219 303 231 329 222 b 442 243 403 222 428 231 b 465 319 457 254 464 281 z m 465 818 b 444 896 464 856 457 882 b 367 919 431 908 406 917 b 289 894 328 917 301 908 b 268 818 276 881 269 854 b 290 742 269 779 276 754 b 367 718 303 729 329 721 b 442 740 403 721 428 728 b 465 818 457 753 464 779 z "},"‑":{"ha":532,"x_min":0,"x_max":0,"o":"m 108 158 l 421 158 b 458 199 446 158 458 172 l 458 253 b 418 293 458 279 446 293 l 110 293 b 71 250 83 293 71 278 l 71 200 b 108 158 71 172 83 158 z "},"‒":{"ha":767,"x_min":0,"x_max":0,"o":"m 108 158 l 654 158 b 694 199 681 158 694 172 l 694 253 b 654 293 694 279 681 293 l 110 293 b 71 250 83 293 71 278 l 71 200 b 108 158 71 172 83 158 z "},"—":{"ha":825,"x_min":0,"x_max":0,"o":"m 108 494 l 714 494 b 753 536 739 494 753 508 l 753 589 b 713 629 753 615 739 629 l 110 629 b 71 585 83 629 71 614 l 71 536 b 108 494 71 508 83 494 z "},"‘":{"ha":329,"x_min":0,"x_max":0,"o":"m 179 1090 b 54 907 101 1049 60 988 b 168 758 49 808 86 758 b 275 868 243 758 279 794 b 207 956 269 926 247 956 b 192 979 190 956 185 963 b 225 1025 197 994 208 1010 b 240 1063 242 1040 247 1053 b 179 1090 224 1094 203 1104 z "},"’":{"ha":326,"x_min":0,"x_max":0,"o":"m 147 772 b 272 956 225 814 267 875 b 158 1104 278 1054 240 1104 b 51 993 83 1104 47 1067 b 119 907 57 935 79 906 b 135 883 136 907 142 899 b 101 838 129 868 118 851 b 86 799 85 822 79 810 b 147 772 103 767 124 758 z "},"“":{"ha":604,"x_min":0,"x_max":0,"o":"m 189 1090 b 65 907 111 1049 71 988 b 179 758 60 808 97 758 b 286 868 254 758 290 794 b 218 956 282 926 258 956 b 203 979 201 956 196 963 b 236 1025 208 994 219 1010 b 251 1063 253 1040 258 1053 b 189 1090 235 1094 214 1104 z m 444 1090 b 321 907 367 1049 326 988 b 435 758 315 808 353 758 b 540 868 510 758 544 794 b 472 956 536 926 513 956 b 457 979 457 956 451 963 b 492 1025 463 994 474 1010 b 507 1063 508 1040 513 1053 b 444 1090 490 1094 469 1104 z "},"”":{"ha":604,"x_min":0,"x_max":0,"o":"m 415 772 b 539 956 493 814 533 875 b 425 1104 544 1054 507 1104 b 319 993 350 1104 315 1067 b 388 907 324 935 346 906 b 403 883 403 907 408 899 b 368 838 397 868 385 851 b 353 799 351 822 346 810 b 415 772 369 767 390 758 z m 160 772 b 283 956 238 814 278 875 b 171 1104 289 1054 251 1104 b 64 993 96 1104 60 1067 b 132 907 68 935 92 906 b 147 883 147 907 153 899 b 113 838 142 868 131 851 b 97 799 96 822 92 810 b 160 772 115 767 136 758 z "},"‥":{"ha":608,"x_min":0,"x_max":0,"o":"m 265 85 b 243 163 264 124 256 150 b 165 186 229 176 204 185 b 89 161 126 185 100 176 b 67 85 76 147 68 121 b 89 8 68 47 76 22 b 165 -15 101 -4 128 -12 b 240 8 201 -12 226 -6 b 265 85 256 21 264 46 z m 540 85 b 518 163 539 124 531 150 b 442 186 506 176 479 185 b 364 161 401 185 376 176 b 342 85 350 147 343 121 b 364 8 343 47 351 22 b 442 -15 376 -4 403 -12 b 517 8 476 -12 503 -6 b 540 85 531 21 539 46 z "},"…":{"ha":915,"x_min":0,"x_max":0,"o":"m 268 536 b 246 615 267 575 258 601 b 168 638 233 629 207 636 b 92 614 129 636 104 628 b 69 536 78 599 71 574 b 92 461 71 499 79 474 b 168 436 104 447 131 439 b 243 460 204 439 229 447 b 268 536 258 472 267 499 z m 560 536 b 538 615 557 575 550 601 b 458 638 524 629 499 636 b 382 614 421 636 396 628 b 361 536 369 599 363 574 b 383 461 363 499 369 474 b 458 436 396 447 421 439 b 535 460 494 439 521 447 b 560 536 550 472 557 499 z m 846 536 b 824 615 844 575 836 601 b 746 638 810 629 785 636 b 669 614 707 636 681 628 b 647 536 657 599 649 574 b 669 461 649 499 657 474 b 746 436 682 447 707 439 b 821 460 782 439 807 447 b 846 536 836 472 844 499 z "},"‰":{"ha":1444,"x_min":0,"x_max":0,"o":"m 678 850 l 165 39 b 194 -19 142 0 151 -19 l 264 -19 b 340 26 299 -19 325 -4 l 847 839 b 814 888 869 871 857 888 l 747 888 b 678 850 717 888 693 875 z m 246 885 b 53 671 118 885 54 813 b 246 457 54 529 118 458 b 436 671 372 457 436 528 b 246 885 438 814 375 885 z m 246 583 b 178 671 200 583 178 613 b 246 758 178 729 200 758 b 314 671 292 758 314 729 b 246 583 313 613 290 583 z m 747 407 b 554 193 619 407 556 335 b 746 -21 556 51 619 -19 b 938 193 872 -21 936 50 b 747 407 939 336 876 407 z m 746 104 b 678 193 701 104 678 133 b 747 281 678 251 701 281 b 814 193 792 281 814 251 b 746 104 814 133 790 104 z m 1197 407 b 1004 193 1069 407 1004 335 b 1194 -21 1004 51 1068 -19 b 1388 193 1322 -21 1386 50 b 1197 407 1389 336 1325 407 z m 1194 104 b 1128 193 1150 104 1128 133 b 1197 281 1128 251 1150 281 b 1264 193 1242 281 1264 251 b 1194 104 1263 133 1240 104 z "},"※":{"ha":976,"x_min":0,"x_max":0,"o":"m 569 903 b 546 960 569 925 561 943 b 489 982 531 975 513 982 b 432 960 467 982 449 975 b 410 903 417 943 410 925 b 432 846 410 879 417 861 b 489 822 449 831 467 822 b 546 846 513 822 531 831 b 569 903 561 861 569 879 z m 754 207 l 494 468 l 235 207 b 179 210 217 189 199 190 l 144 243 b 142 301 124 264 124 283 l 400 561 l 144 824 b 144 879 126 842 126 860 l 185 918 b 240 917 203 936 221 936 l 494 656 l 751 915 b 807 917 771 935 789 935 l 846 879 b 846 822 865 860 865 840 l 588 561 l 847 301 b 844 243 865 283 865 264 l 810 210 b 754 207 790 190 772 189 z m 921 550 b 897 607 921 572 913 592 b 840 631 882 622 863 631 b 783 607 818 631 799 622 b 761 550 768 592 761 572 b 783 493 761 528 768 508 b 840 471 799 478 818 471 b 897 493 863 471 882 478 b 921 550 913 508 921 528 z m 224 550 b 201 607 224 572 217 592 b 144 631 186 622 167 631 b 88 607 121 631 103 622 b 64 550 72 592 64 572 b 88 493 64 528 72 508 b 144 471 103 478 121 471 b 201 493 167 471 186 478 b 224 550 217 508 224 528 z m 569 204 b 546 261 569 228 561 246 b 489 285 531 276 513 285 b 432 261 467 285 449 276 b 410 204 417 246 410 228 b 432 149 410 182 417 164 b 489 125 449 132 467 125 b 546 149 513 125 531 132 b 569 204 561 164 569 182 z "},"←":{"ha":989,"x_min":0,"x_max":0,"o":"m 957 538 l 957 610 b 921 644 957 633 944 644 l 347 644 l 347 760 b 300 797 347 810 332 822 l 32 575 l 299 353 b 347 385 332 325 347 336 l 347 503 l 921 503 b 957 538 944 503 957 514 z "},"↑":{"ha":582,"x_min":0,"x_max":0,"o":"m 256 69 l 328 69 b 363 106 350 69 363 82 l 363 678 l 476 678 b 515 725 528 678 540 694 l 293 994 l 69 726 b 101 678 43 694 53 678 l 221 678 l 221 104 b 256 69 221 82 232 69 z "},"→":{"ha":989,"x_min":0,"x_max":0,"o":"m 32 610 l 32 538 b 67 503 32 514 43 503 l 640 503 l 640 385 b 689 353 640 336 656 325 l 957 575 l 688 797 b 640 760 656 822 640 810 l 640 644 l 68 644 b 32 610 43 644 32 633 z "},"↓":{"ha":582,"x_min":0,"x_max":0,"o":"m 328 994 l 256 994 b 221 960 232 994 221 983 l 221 386 l 101 386 b 69 338 53 386 43 369 l 293 69 l 515 339 b 476 386 540 369 528 386 l 363 386 l 363 958 b 328 994 363 982 350 994 z "},"↔":{"ha":1013,"x_min":0,"x_max":0,"o":"m 653 760 l 653 644 l 360 644 l 360 760 b 313 797 360 810 344 822 l 44 575 l 311 353 b 360 385 343 325 360 336 l 360 503 l 653 503 l 653 385 b 701 353 653 336 668 325 l 968 575 l 700 797 b 653 760 668 822 653 810 z "},"↕":{"ha":590,"x_min":0,"x_max":0,"o":"m 482 379 l 367 379 l 367 672 l 482 672 b 518 719 532 672 544 688 l 296 988 l 74 719 b 106 672 46 688 57 672 l 225 672 l 225 379 l 106 379 b 74 331 57 379 46 363 l 296 63 l 518 332 b 482 379 544 364 532 379 z "},"↖":{"ha":767,"x_min":0,"x_max":0,"o":"m 660 221 l 711 271 b 708 322 726 289 726 306 l 304 726 l 388 808 b 381 868 421 843 419 863 l 32 900 l 64 554 b 121 542 68 513 86 508 l 204 625 l 611 221 b 660 221 626 204 643 204 z "},"↗":{"ha":767,"x_min":0,"x_max":0,"o":"m 57 271 l 107 221 b 156 221 124 204 139 204 l 563 625 l 646 542 b 701 554 681 508 699 513 l 735 900 l 388 868 b 381 808 347 863 344 843 l 463 726 l 57 322 b 57 271 40 306 40 289 z "},"↘":{"ha":768,"x_min":0,"x_max":0,"o":"m 107 874 l 57 825 b 57 772 40 807 40 790 l 463 368 l 381 288 b 388 228 344 251 347 232 l 735 196 l 701 542 b 646 554 699 583 681 588 l 563 469 l 156 874 b 107 874 139 892 124 892 z "},"↙":{"ha":768,"x_min":0,"x_max":0,"o":"m 711 825 l 660 874 b 611 874 643 892 626 892 l 204 469 l 121 554 b 64 542 86 588 68 583 l 32 196 l 381 228 b 388 288 419 232 421 251 l 304 368 l 708 772 b 711 825 726 790 726 807 z "},"∼":{"ha":817,"x_min":0,"x_max":0,"o":"m 560 564 b 424 636 522 564 476 589 b 263 708 371 685 317 708 b 85 622 189 707 129 678 b 67 542 58 600 53 574 l 88 489 b 156 468 106 449 128 443 b 257 528 185 508 218 528 b 404 456 304 528 353 503 b 554 382 456 407 506 382 b 732 469 628 383 688 413 b 749 549 757 492 763 518 l 728 603 b 660 624 711 642 688 649 b 560 564 632 583 599 564 z "},"⊙":{"ha":1114,"x_min":0,"x_max":0,"o":"m 1057 540 b 1018 735 1057 608 1044 674 b 910 893 990 796 956 849 b 751 1000 865 939 813 974 b 557 1040 690 1028 626 1040 b 364 1000 489 1040 425 1028 b 204 893 304 974 250 939 b 96 735 158 849 122 796 b 57 540 69 674 57 608 b 96 344 57 471 69 406 b 204 186 122 283 158 231 b 364 78 250 140 304 104 b 557 39 425 51 489 39 b 751 78 626 39 690 51 b 910 186 813 104 865 140 b 1018 344 956 231 990 283 b 1057 540 1044 406 1057 471 z m 932 540 b 903 394 932 488 922 439 b 821 275 883 349 856 310 b 701 196 786 242 747 215 b 557 165 657 175 608 165 b 411 196 504 165 456 175 b 293 275 365 215 326 242 b 213 394 258 310 232 349 b 182 540 192 439 182 488 b 213 685 182 592 192 640 b 293 804 232 731 258 769 b 411 885 326 838 365 865 b 557 915 456 904 504 915 b 701 885 608 915 657 904 b 821 804 747 865 786 838 b 903 685 856 769 883 731 b 932 540 922 640 932 592 z m 749 540 b 735 615 749 567 744 592 b 693 676 725 639 711 660 b 632 718 676 694 656 708 b 557 732 608 728 583 732 b 482 718 531 732 506 728 b 421 676 460 708 439 694 b 379 615 403 660 389 639 b 364 540 368 592 364 567 b 379 464 364 513 368 488 b 421 403 389 440 403 419 b 482 361 439 385 460 371 b 557 346 506 351 531 346 b 632 361 583 346 608 351 b 693 403 656 371 676 385 b 735 464 711 419 725 440 b 749 540 744 488 749 513 z "},"⋯":{"ha":915,"x_min":0,"x_max":0,"o":"m 268 97 b 246 175 267 136 258 163 b 168 199 233 189 207 196 b 92 174 129 196 104 189 b 69 97 78 160 71 133 b 92 21 71 60 79 33 b 168 -3 104 8 131 0 b 243 19 204 0 229 7 b 268 97 258 32 267 58 z m 560 97 b 538 175 557 136 550 163 b 458 199 524 189 499 196 b 382 174 421 196 396 189 b 361 97 369 160 363 133 b 383 21 363 60 369 33 b 458 -3 396 8 421 0 b 535 19 494 0 521 7 b 560 97 550 32 557 58 z m 846 97 b 824 175 844 136 836 163 b 746 199 810 189 785 196 b 669 174 707 196 681 189 b 647 97 657 160 649 133 b 669 21 649 60 657 33 b 746 -3 682 8 707 0 b 821 19 782 0 807 7 b 846 97 836 32 844 58 z "},"①":{"ha":1213,"x_min":0,"x_max":0,"o":"m 585 858 l 650 858 b 688 826 674 857 686 847 l 688 363 l 725 363 b 767 324 753 363 767 350 l 767 267 b 728 231 767 243 753 231 l 499 231 b 465 264 476 231 465 242 l 465 328 b 496 363 465 350 476 363 l 553 363 l 553 653 l 489 653 b 458 690 454 653 444 665 l 540 838 b 585 858 549 849 564 856 z m 713 1104 l 500 1104 b 65 693 210 1103 65 965 l 65 381 b 500 -18 65 115 210 -18 l 711 -18 b 1147 381 1001 -18 1147 115 l 1147 696 b 713 1104 1147 968 1003 1104 z m 210 394 l 210 660 b 546 972 211 868 322 972 l 667 972 b 1003 661 892 972 1003 868 l 1003 396 b 667 118 1003 211 892 119 l 557 118 b 210 394 325 119 210 211 z "},"②":{"ha":1213,"x_min":0,"x_max":0,"o":"m 453 239 l 781 239 b 814 269 803 239 814 249 l 814 324 b 779 353 814 343 803 353 l 558 353 b 654 426 589 378 622 403 b 753 504 688 450 721 476 b 788 546 767 519 779 533 b 811 585 797 558 806 571 b 821 628 817 599 819 613 b 824 679 822 643 824 661 l 824 693 b 810 758 824 715 819 738 b 772 813 801 779 789 797 b 718 849 757 828 739 839 b 650 861 697 857 674 861 l 560 861 b 494 849 538 861 515 857 b 438 813 472 839 454 828 b 401 758 422 797 410 779 b 388 693 393 738 388 715 l 388 664 b 410 643 388 650 396 643 l 482 643 b 510 669 500 643 508 651 l 510 676 b 528 718 510 692 515 706 b 585 736 540 729 560 736 l 633 736 b 678 718 650 736 665 729 b 696 676 689 706 696 692 b 683 621 696 651 692 633 b 644 578 676 608 664 594 b 532 482 610 544 572 513 l 449 422 b 406 342 419 406 406 379 l 406 269 b 453 239 406 249 421 239 z m 713 1104 l 500 1104 b 65 693 210 1103 65 965 l 65 381 b 500 -18 65 115 210 -18 l 711 -18 b 1147 381 1001 -18 1147 115 l 1147 696 b 713 1104 1147 968 1003 1104 z m 210 394 l 210 660 b 546 972 211 868 322 972 l 667 972 b 1003 661 892 972 1003 868 l 1003 396 b 667 118 1003 211 892 119 l 557 118 b 210 394 325 119 210 211 z "},"③":{"ha":1213,"x_min":0,"x_max":0,"o":"m 517 407 b 499 425 515 419 510 425 l 418 425 b 399 406 406 425 399 418 l 399 396 b 411 331 399 372 403 351 b 450 278 419 311 432 293 b 510 242 467 263 486 250 b 585 229 532 233 557 229 l 657 231 b 728 251 681 232 704 239 b 804 322 761 265 788 290 b 831 424 822 356 831 389 b 815 482 831 439 825 460 b 779 544 806 506 793 526 b 825 636 803 569 818 601 b 815 738 832 672 828 706 b 778 800 807 764 794 785 b 724 835 763 815 743 828 b 658 851 703 843 682 849 l 589 857 b 519 846 565 857 542 854 b 458 814 496 839 476 828 b 414 763 440 800 425 783 b 399 692 404 743 399 719 l 399 682 b 425 663 399 669 407 663 l 492 663 b 518 683 507 663 517 669 b 544 719 522 699 531 711 b 607 736 564 731 585 736 b 638 732 618 736 628 735 b 665 722 647 731 657 726 b 686 704 674 718 681 711 b 693 676 690 696 693 686 b 682 628 693 651 689 635 b 654 610 675 619 667 614 b 619 603 643 606 632 604 l 585 601 b 557 567 567 601 557 590 l 557 518 b 585 489 557 499 567 489 b 663 471 617 489 643 483 b 692 425 682 460 692 444 b 669 372 692 401 685 383 b 610 353 654 361 635 354 b 583 354 601 353 593 353 b 557 360 575 356 565 357 b 533 372 547 363 540 367 b 518 389 526 378 522 383 b 517 407 517 396 517 401 z m 713 1104 l 500 1104 b 65 693 210 1103 65 965 l 65 381 b 500 -18 65 115 210 -18 l 711 -18 b 1147 381 1001 -18 1147 115 l 1147 696 b 713 1104 1147 968 1003 1104 z m 210 394 l 210 660 b 546 972 211 868 322 972 l 667 972 b 1003 661 892 972 1003 868 l 1003 396 b 667 118 1003 211 892 119 l 557 118 b 210 394 325 119 210 211 z "},"④":{"ha":1213,"x_min":0,"x_max":0,"o":"m 713 1104 l 500 1104 b 65 693 210 1103 65 965 l 65 381 b 500 -18 65 115 210 -18 l 711 -18 b 1147 381 1001 -18 1147 115 l 1147 696 b 713 1104 1147 968 1003 1104 z m 210 394 l 210 660 b 546 972 211 868 322 972 l 667 972 b 1003 661 892 972 1003 868 l 1003 396 b 667 118 1003 211 892 119 l 557 118 b 210 394 325 119 210 211 z m 758 839 l 760 424 l 796 424 b 831 388 818 424 831 411 l 831 338 b 799 306 831 315 819 306 l 761 306 l 761 264 b 725 229 761 242 749 229 l 665 229 b 631 264 643 229 631 240 l 631 306 l 404 306 b 375 335 385 306 375 315 l 375 392 b 617 850 397 578 479 731 b 667 867 632 861 649 867 l 725 867 b 758 839 747 867 758 857 z m 511 424 l 631 424 l 631 696 b 511 424 560 596 519 506 z "},"⑤":{"ha":1213,"x_min":0,"x_max":0,"o":"m 547 646 l 547 738 l 776 738 b 807 771 796 738 807 749 l 807 828 b 776 857 807 847 796 857 l 458 857 b 415 818 429 857 415 844 l 415 547 b 451 517 415 526 428 517 b 521 524 474 517 497 519 b 610 531 544 529 574 531 b 681 511 638 531 661 524 b 708 442 699 497 708 474 b 683 372 708 410 700 388 b 613 349 665 357 642 349 b 531 372 572 349 546 357 b 513 417 521 383 515 399 b 485 442 511 433 503 442 l 414 442 b 388 418 397 442 388 435 b 446 276 392 354 411 307 b 617 226 485 243 542 226 b 782 283 690 226 744 244 b 836 442 818 321 836 374 b 779 600 836 510 817 563 b 621 656 740 638 688 656 b 547 646 597 656 574 653 z m 713 1104 l 500 1104 b 65 693 210 1103 65 965 l 65 381 b 500 -18 65 115 210 -18 l 711 -18 b 1147 381 1001 -18 1147 115 l 1147 696 b 713 1104 1147 968 1003 1104 z m 210 394 l 210 660 b 546 972 211 868 322 972 l 667 972 b 1003 661 892 972 1003 868 l 1003 396 b 667 118 1003 211 892 119 l 557 118 b 210 394 325 119 210 211 z "},"⑥":{"ha":1213,"x_min":0,"x_max":0,"o":"m 733 711 l 788 738 b 800 785 806 747 810 764 b 738 854 783 822 763 844 b 664 868 713 864 688 868 l 574 868 b 500 854 549 868 524 864 b 440 814 478 844 457 831 b 400 756 424 799 410 778 b 385 682 390 732 385 707 l 385 418 b 400 344 385 392 390 368 b 440 285 410 322 424 301 b 500 244 457 268 478 254 b 574 229 524 235 549 229 l 642 229 b 715 244 668 229 692 235 b 775 285 738 254 758 268 b 814 344 792 301 804 322 b 829 418 824 368 829 392 l 829 468 b 814 542 829 494 824 519 b 775 603 804 565 792 586 b 715 643 758 621 738 633 b 642 658 692 653 668 658 l 574 658 b 546 656 565 658 556 657 b 518 650 536 653 526 651 l 518 676 b 533 722 518 694 522 710 b 574 740 543 735 557 740 l 635 740 b 696 718 667 740 686 733 b 733 711 701 706 715 703 z m 518 421 l 518 464 b 533 511 518 483 522 499 b 574 529 543 522 557 529 l 640 529 b 682 510 657 529 671 522 b 697 464 692 497 697 482 l 697 424 b 682 378 697 406 692 390 b 640 358 671 365 657 358 l 574 358 b 535 376 557 358 544 365 b 518 421 525 389 519 404 z m 713 1104 l 500 1104 b 65 693 210 1103 65 965 l 65 381 b 500 -18 65 115 210 -18 l 711 -18 b 1147 381 1001 -18 1147 115 l 1147 696 b 713 1104 1147 968 1003 1104 z m 210 394 l 210 660 b 546 972 211 868 322 972 l 667 972 b 1003 661 892 972 1003 868 l 1003 396 b 667 118 1003 211 892 119 l 557 118 b 210 394 325 119 210 211 z "},"⑦":{"ha":1213,"x_min":0,"x_max":0,"o":"m 532 664 l 532 722 l 667 722 l 547 261 b 572 231 542 240 550 231 l 653 231 b 685 253 669 231 681 238 l 832 824 b 803 854 838 844 828 854 l 429 854 b 394 813 407 854 394 840 l 394 658 b 425 631 394 639 406 631 l 503 631 b 532 664 522 631 532 642 z m 713 1104 l 500 1104 b 65 693 210 1103 65 965 l 65 381 b 500 -18 65 115 210 -18 l 711 -18 b 1147 381 1001 -18 1147 115 l 1147 696 b 713 1104 1147 968 1003 1104 z m 210 394 l 210 660 b 546 972 211 868 322 972 l 667 972 b 1003 661 892 972 1003 868 l 1003 396 b 667 118 1003 211 892 119 l 557 118 b 210 394 325 119 210 211 z "},"⑧":{"ha":1213,"x_min":0,"x_max":0,"o":"m 654 857 l 567 857 b 497 844 542 857 519 853 b 444 807 476 835 458 822 b 410 750 429 790 418 772 b 399 672 403 728 399 701 b 443 564 399 629 414 593 b 406 513 428 550 415 532 b 392 447 396 493 392 472 l 392 396 b 406 331 392 372 396 351 b 443 276 415 310 428 292 b 497 242 458 261 476 250 b 565 229 519 233 542 229 l 654 229 b 722 242 678 229 701 233 b 776 276 742 250 761 261 b 814 331 792 292 804 310 b 828 396 824 351 828 372 l 828 447 b 814 513 828 471 824 493 b 779 563 806 532 793 549 b 815 610 799 576 810 592 b 824 672 821 626 824 647 b 813 750 824 701 819 728 b 779 807 804 772 793 790 b 725 844 764 822 746 835 b 654 857 704 853 681 857 z m 706 446 l 706 408 b 686 369 706 393 699 379 b 642 353 674 358 658 353 l 578 353 b 533 369 560 353 546 358 b 515 408 521 379 515 393 l 515 446 b 533 488 515 463 521 476 b 578 504 546 499 560 504 l 642 504 b 686 488 658 504 674 499 b 706 446 699 476 706 463 z m 697 672 b 686 626 697 654 693 639 b 650 607 678 614 667 607 l 567 607 b 535 628 551 608 542 615 b 525 672 529 639 525 654 b 536 717 525 690 529 704 b 572 736 543 729 556 736 l 650 736 b 686 717 667 736 678 729 b 697 672 693 704 697 690 z m 713 1104 l 500 1104 b 65 693 210 1103 65 965 l 65 381 b 500 -18 65 115 210 -18 l 711 -18 b 1147 381 1001 -18 1147 115 l 1147 696 b 713 1104 1147 968 1003 1104 z m 210 394 l 210 660 b 546 972 211 868 322 972 l 667 972 b 1003 661 892 972 1003 868 l 1003 396 b 667 118 1003 211 892 119 l 557 118 b 210 394 325 119 210 211 z "},"⑨":{"ha":1213,"x_min":0,"x_max":0,"o":"m 713 1104 l 500 1104 b 65 693 210 1103 65 965 l 65 381 b 500 -18 65 115 210 -18 l 711 -18 b 1147 381 1001 -18 1147 115 l 1147 696 b 713 1104 1147 968 1003 1104 z m 210 394 l 210 660 b 546 972 211 868 322 972 l 667 972 b 1003 661 892 972 1003 868 l 1003 396 b 667 118 1003 211 892 119 l 557 118 b 210 394 325 119 210 211 z m 479 388 l 425 360 b 414 313 407 350 404 335 b 475 243 429 276 450 253 b 550 229 500 235 525 229 l 639 229 b 713 244 665 229 690 235 b 772 283 736 254 756 267 b 814 343 790 300 804 319 b 828 417 824 367 828 390 l 828 679 b 814 753 828 706 824 731 b 772 814 804 776 790 796 b 713 854 756 831 736 844 b 639 868 690 864 665 868 l 571 868 b 497 854 546 868 521 864 b 439 814 475 844 456 831 b 399 753 422 796 408 776 b 383 679 389 731 383 706 l 383 631 b 399 556 383 604 389 579 b 439 494 408 532 422 513 b 497 454 456 478 475 464 b 571 440 521 444 546 440 l 639 440 b 667 443 649 440 657 440 l 696 447 l 696 422 b 681 376 696 404 690 389 b 639 358 669 364 656 358 l 578 358 b 518 381 547 358 526 365 b 479 388 511 393 499 396 z m 696 678 l 696 635 b 681 588 696 615 690 599 b 639 569 669 575 656 569 l 572 569 b 532 589 556 569 542 575 b 517 635 521 601 517 617 l 517 675 b 532 721 517 693 521 708 b 572 739 542 733 556 739 l 639 739 b 679 721 656 739 669 733 b 696 678 689 710 694 694 z "},"⑩":{"ha":1213,"x_min":0,"x_max":0,"o":"m 749 864 l 714 864 b 650 850 690 864 669 860 b 600 814 631 842 614 829 b 567 761 586 800 575 782 b 554 696 558 740 554 718 l 554 400 b 567 335 554 376 558 356 b 600 281 575 314 586 296 b 650 244 614 265 631 253 b 714 232 669 236 690 232 l 749 232 b 810 244 771 232 792 236 b 860 281 828 253 844 265 b 894 335 875 296 886 314 b 907 400 903 356 907 376 l 907 696 b 894 761 907 718 903 740 b 860 814 886 782 875 800 b 810 850 844 829 828 842 b 749 864 792 860 771 864 z m 794 678 l 794 419 b 778 374 794 401 789 386 b 738 356 767 361 753 356 l 721 356 b 683 374 707 356 694 361 b 667 419 672 386 667 401 l 667 678 b 683 722 667 696 672 710 b 721 739 694 733 707 739 l 738 739 b 778 722 753 739 767 733 b 794 678 789 710 794 696 z m 713 1104 l 500 1104 b 65 693 210 1103 65 965 l 65 381 b 500 -18 65 115 210 -18 l 711 -18 b 1147 381 1001 -18 1147 115 l 1147 696 b 713 1104 1147 968 1003 1104 z m 210 394 l 210 660 b 546 972 211 868 322 972 l 667 972 b 1003 661 892 972 1003 868 l 1003 396 b 667 118 1003 211 892 119 l 557 118 b 210 394 325 119 210 211 z m 411 857 l 464 857 b 493 826 483 857 493 847 l 493 349 l 501 349 b 532 311 522 349 532 336 l 532 267 b 503 231 532 243 522 231 l 360 231 b 335 264 343 231 335 242 l 335 314 b 357 349 335 338 342 349 l 388 349 l 388 696 l 347 696 b 324 732 321 696 313 707 l 376 835 b 411 857 383 850 396 857 z "},"⑪":{"ha":1213,"x_min":0,"x_max":0,"o":"m 713 1104 l 500 1104 b 65 693 210 1103 65 965 l 65 381 b 500 -18 65 115 210 -18 l 711 -18 b 1147 381 1001 -18 1147 115 l 1147 696 b 713 1104 1147 968 1003 1104 z m 210 394 l 210 660 b 546 972 211 868 322 972 l 667 972 b 1003 661 892 972 1003 868 l 1003 396 b 667 118 1003 211 892 119 l 557 118 b 210 394 325 119 210 211 z m 435 857 l 508 857 b 538 826 528 857 538 847 l 538 349 l 557 349 b 588 311 578 349 588 336 l 588 267 b 558 231 588 243 578 231 l 383 231 b 358 264 367 231 358 242 l 358 314 b 382 349 358 338 365 349 l 411 349 l 411 696 l 371 696 b 349 732 344 696 336 707 l 400 835 b 435 857 408 850 419 857 z m 718 857 l 790 857 b 819 826 810 857 819 847 l 819 349 l 839 349 b 869 311 860 349 869 336 l 869 267 b 840 231 869 243 860 231 l 667 231 b 640 264 649 231 640 242 l 640 314 b 664 349 640 338 649 349 l 693 349 l 693 696 l 654 696 b 631 732 626 696 619 707 l 682 835 b 718 857 690 850 701 857 z "},"⑫":{"ha":1213,"x_min":0,"x_max":0,"o":"m 713 1104 l 500 1104 b 65 693 210 1103 65 965 l 65 381 b 500 -18 65 115 210 -18 l 711 -18 b 1147 381 1001 -18 1147 115 l 1147 696 b 713 1104 1147 968 1003 1104 z m 210 394 l 210 660 b 546 972 211 868 322 972 l 667 972 b 1003 661 892 972 1003 868 l 1003 396 b 667 118 1003 211 892 119 l 557 118 b 210 394 325 119 210 211 z m 394 857 l 454 857 b 483 826 474 857 483 847 l 483 349 l 497 349 b 529 311 518 349 529 336 l 529 267 b 499 231 529 243 518 231 l 343 231 b 317 264 326 231 317 242 l 317 314 b 340 349 317 338 325 349 l 369 349 l 369 696 l 331 696 b 308 732 304 696 296 707 l 360 835 b 394 857 368 850 379 857 z m 601 231 l 868 231 b 894 261 886 231 894 240 l 894 315 b 868 344 894 335 885 344 l 692 344 b 838 492 765 407 814 457 b 890 594 863 526 881 561 b 904 672 900 628 904 654 l 904 693 b 892 760 904 717 900 739 b 861 814 883 781 874 799 b 817 850 847 829 833 842 b 763 864 800 860 782 864 l 699 864 b 633 850 672 864 650 860 b 589 814 615 842 601 829 b 560 760 576 799 567 781 b 550 693 554 739 550 717 l 550 665 b 567 643 550 650 556 643 l 638 643 b 660 671 651 643 658 653 l 660 692 b 674 733 660 707 664 721 b 718 751 683 746 699 751 l 738 751 b 772 733 751 751 763 746 b 786 683 782 721 786 704 b 767 604 786 658 781 632 b 696 507 754 576 731 544 b 597 415 663 471 629 440 b 564 335 575 400 564 372 l 564 261 b 601 231 564 240 576 231 z "},"⑬":{"ha":1213,"x_min":0,"x_max":0,"o":"m 713 1104 l 500 1104 b 65 693 210 1103 65 965 l 65 381 b 500 -18 65 115 210 -18 l 711 -18 b 1147 381 1001 -18 1147 115 l 1147 696 b 713 1104 1147 968 1003 1104 z m 210 394 l 210 660 b 546 972 211 868 322 972 l 667 972 b 1003 661 892 972 1003 868 l 1003 396 b 667 118 1003 211 892 119 l 557 118 b 210 394 325 119 210 211 z m 394 857 l 454 857 b 483 826 474 857 483 847 l 483 349 l 497 349 b 529 311 518 349 529 336 l 529 267 b 499 231 529 243 518 231 l 343 231 b 317 264 326 231 317 242 l 317 314 b 340 349 317 338 325 349 l 369 349 l 369 696 l 331 696 b 308 732 304 696 296 707 l 360 835 b 394 857 368 850 379 857 z m 657 408 b 642 428 656 421 650 428 l 567 428 b 550 406 556 428 550 421 l 550 399 b 561 332 550 374 554 353 b 592 278 568 311 578 293 b 643 242 606 263 624 250 b 708 229 663 233 685 229 l 769 231 b 831 251 789 232 810 239 b 896 324 858 265 881 290 b 918 426 911 357 918 392 b 906 486 918 442 914 463 b 874 549 897 510 886 531 b 913 642 893 575 907 606 b 904 743 918 678 915 711 b 874 807 897 769 888 790 b 826 842 860 822 844 835 b 769 858 808 850 790 856 b 713 861 750 861 731 861 b 653 850 692 861 672 857 b 601 819 633 843 617 832 b 564 768 585 806 572 789 b 550 697 554 749 550 725 l 550 686 b 572 667 550 672 557 667 l 638 667 b 660 690 650 667 658 674 b 682 738 664 714 671 729 b 736 754 699 749 717 754 b 761 750 744 754 753 753 b 785 740 769 749 778 744 b 801 715 792 736 797 728 b 808 682 806 704 808 692 b 799 631 808 656 804 639 b 772 614 793 622 783 617 b 738 607 760 610 749 608 b 708 606 725 606 717 606 b 685 571 693 606 685 593 l 685 521 b 708 493 685 503 693 493 b 779 474 738 493 761 486 b 806 428 796 463 806 446 b 788 368 806 404 800 383 b 736 340 775 353 757 343 b 715 342 729 340 722 340 b 692 349 708 343 700 346 b 669 365 683 351 676 357 b 657 408 664 374 660 388 z "},"⑭":{"ha":1213,"x_min":0,"x_max":0,"o":"m 713 1104 l 500 1104 b 65 693 210 1103 65 965 l 65 381 b 500 -18 65 115 210 -18 l 711 -18 b 1147 381 1001 -18 1147 115 l 1147 696 b 713 1104 1147 968 1003 1104 z m 210 394 l 210 660 b 546 972 211 868 322 972 l 667 972 b 1003 661 892 972 1003 868 l 1003 396 b 667 118 1003 211 892 119 l 557 118 b 210 394 325 119 210 211 z m 394 857 l 454 857 b 483 826 474 857 483 847 l 483 349 l 497 349 b 529 311 518 349 529 336 l 529 267 b 499 231 529 243 518 231 l 343 231 b 317 264 326 231 317 242 l 317 314 b 340 349 317 338 325 349 l 369 349 l 369 696 l 331 696 b 308 732 304 696 296 707 l 360 835 b 394 857 368 850 379 857 z m 868 838 l 868 422 l 901 422 b 932 388 921 422 932 410 l 932 338 b 903 306 932 315 922 306 l 868 306 l 868 264 b 838 229 868 242 858 229 l 788 229 b 756 264 767 229 756 240 l 756 306 l 578 306 b 550 335 560 306 550 315 l 550 389 b 739 847 571 576 633 729 b 785 864 754 858 769 864 l 838 864 b 868 838 857 864 868 856 z m 672 422 l 756 422 l 756 679 b 672 422 708 589 681 504 z "},"⑮":{"ha":1213,"x_min":0,"x_max":0,"o":"m 713 1104 l 500 1104 b 65 693 210 1103 65 965 l 65 381 b 500 -18 65 115 210 -18 l 711 -18 b 1147 381 1001 -18 1147 115 l 1147 696 b 713 1104 1147 968 1003 1104 z m 210 394 l 210 660 b 546 972 211 868 322 972 l 667 972 b 1003 661 892 972 1003 868 l 1003 396 b 667 118 1003 211 892 119 l 557 118 b 210 394 325 119 210 211 z m 394 857 l 454 857 b 483 826 474 857 483 847 l 483 349 l 497 349 b 529 311 518 349 529 336 l 529 267 b 499 231 529 243 518 231 l 343 231 b 317 264 326 231 317 242 l 317 314 b 340 349 317 338 325 349 l 369 349 l 369 696 l 331 696 b 308 732 304 696 296 707 l 360 835 b 394 857 368 850 379 857 z m 689 646 l 689 738 l 861 738 b 886 771 878 738 886 749 l 886 828 b 861 857 886 847 878 857 l 600 857 b 564 818 575 857 564 844 l 564 547 b 594 517 564 526 574 517 b 650 524 613 517 631 519 b 725 531 669 529 694 531 b 771 511 740 531 756 524 b 794 442 786 497 794 474 b 774 372 794 410 788 388 b 725 349 761 357 744 349 b 675 372 704 349 688 357 b 660 417 668 383 663 399 b 632 442 660 433 650 442 l 569 442 b 547 418 554 442 547 435 b 592 276 550 354 565 307 b 729 226 622 243 668 226 b 865 283 790 226 835 244 b 910 442 894 321 910 374 b 864 600 910 510 894 563 b 746 656 832 638 793 656 b 689 646 728 656 708 653 z "},"ⓐ":{"ha":1213,"x_min":0,"x_max":0,"o":"m 713 1104 l 500 1104 b 65 693 210 1103 65 965 l 65 381 b 500 -18 65 115 210 -18 l 711 -18 b 1147 381 1001 -18 1147 115 l 1147 696 b 713 1104 1147 968 1003 1104 z m 210 394 l 210 660 b 546 972 211 868 322 972 l 667 972 b 1003 661 892 972 1003 868 l 1003 396 b 667 118 1003 211 892 119 l 557 118 b 210 394 325 119 210 211 z m 424 690 l 394 736 b 399 772 385 747 386 760 b 601 842 447 818 515 840 b 842 617 757 842 838 767 l 842 271 b 808 243 842 253 831 243 l 746 243 b 714 279 724 243 714 256 b 565 244 664 256 615 244 b 367 446 433 244 367 311 b 714 621 367 614 482 672 b 611 722 711 689 678 722 b 469 683 565 722 518 710 b 424 690 451 672 436 674 z m 589 365 b 715 400 633 365 675 376 l 715 500 b 490 453 565 539 490 522 b 589 365 490 394 524 365 z "},"ⓑ":{"ha":1213,"x_min":0,"x_max":0,"o":"m 713 1104 l 500 1104 b 65 693 210 1103 65 965 l 65 381 b 500 -18 65 115 210 -18 l 711 -18 b 1147 381 1001 -18 1147 115 l 1147 696 b 713 1104 1147 968 1003 1104 z m 210 394 l 210 660 b 546 972 211 868 322 972 l 667 972 b 1003 661 892 972 1003 868 l 1003 396 b 667 118 1003 211 892 119 l 557 118 b 210 394 325 119 210 211 z m 408 257 l 408 868 b 435 899 408 889 418 899 l 515 899 b 544 868 535 899 544 889 l 544 699 b 856 517 749 771 851 710 b 682 224 851 321 794 224 b 547 258 639 224 594 236 b 510 224 547 236 535 224 l 449 224 b 408 257 426 224 413 235 z m 728 518 b 544 564 728 603 667 618 l 544 393 b 658 354 579 367 618 354 b 728 518 704 356 728 410 z "},"ⓒ":{"ha":1213,"x_min":0,"x_max":0,"o":"m 839 449 l 743 449 b 715 435 729 449 719 444 b 689 406 710 422 701 413 b 640 388 672 393 656 388 l 594 388 b 536 414 574 388 554 396 b 510 472 518 432 510 451 l 510 583 b 536 642 510 604 518 624 b 594 668 554 660 574 668 l 640 668 b 718 619 681 668 707 651 b 725 606 719 613 721 608 b 740 601 728 603 733 601 l 826 601 b 857 636 850 601 860 614 b 796 750 849 683 828 721 b 640 804 758 786 707 804 l 594 804 b 428 743 524 804 469 785 b 367 578 388 703 367 649 l 367 475 b 428 310 367 407 388 351 b 594 247 469 268 524 247 l 640 247 b 794 301 706 247 757 265 b 860 425 828 333 849 374 b 839 449 861 442 854 449 z m 713 1104 l 500 1104 b 65 693 210 1103 65 965 l 65 381 b 500 -18 65 115 210 -18 l 711 -18 b 1147 381 1001 -18 1147 115 l 1147 696 b 713 1104 1147 968 1003 1104 z m 210 394 l 210 660 b 546 972 211 868 322 972 l 667 972 b 1003 661 892 972 1003 868 l 1003 396 b 667 118 1003 211 892 119 l 557 118 b 210 394 325 119 210 211 z "},"ⓓ":{"ha":1213,"x_min":0,"x_max":0,"o":"m 713 1104 l 500 1104 b 65 693 210 1103 65 965 l 65 381 b 500 -18 65 115 210 -18 l 711 -18 b 1147 381 1001 -18 1147 115 l 1147 696 b 713 1104 1147 968 1003 1104 z m 210 394 l 210 660 b 546 972 211 868 322 972 l 667 972 b 1003 661 892 972 1003 868 l 1003 396 b 667 118 1003 211 892 119 l 557 118 b 210 394 325 119 210 211 z m 824 868 l 824 257 b 783 224 819 235 806 224 l 722 224 b 685 258 697 224 685 236 b 550 224 638 236 593 224 b 376 449 438 224 381 299 b 688 699 381 688 483 771 l 688 868 b 718 899 688 889 697 899 l 796 899 b 824 868 814 899 824 889 z m 504 450 b 574 354 504 388 528 356 b 688 393 614 354 653 367 l 688 564 b 504 450 565 618 504 579 z "},"ⓔ":{"ha":1213,"x_min":0,"x_max":0,"o":"m 713 1104 l 500 1104 b 65 693 210 1103 65 965 l 65 381 b 500 -18 65 115 210 -18 l 711 -18 b 1147 381 1001 -18 1147 115 l 1147 696 b 713 1104 1147 968 1003 1104 z m 210 394 l 210 660 b 546 972 211 868 322 972 l 667 972 b 1003 661 892 972 1003 868 l 1003 396 b 667 118 1003 211 892 119 l 557 118 b 210 394 325 119 210 211 z m 829 449 l 733 449 b 707 435 719 449 711 444 b 679 406 701 422 692 413 b 631 388 663 393 646 388 l 585 388 b 526 414 564 388 544 396 b 500 472 508 432 500 451 l 500 507 l 815 507 b 856 549 843 507 856 521 b 842 661 856 590 850 628 b 788 750 833 694 815 724 b 631 804 750 786 697 804 l 585 804 b 418 750 514 804 458 786 b 357 565 376 714 357 653 l 357 475 b 418 310 357 407 376 351 b 585 247 458 268 514 247 l 631 247 b 785 301 696 247 747 265 b 850 425 818 333 840 374 b 829 449 851 442 844 449 z m 713 606 l 500 606 b 526 654 503 622 511 639 b 585 682 544 672 564 682 l 631 682 b 701 644 667 682 690 669 b 713 606 708 632 711 619 z "},"ⓕ":{"ha":1213,"x_min":0,"x_max":0,"o":"m 424 643 l 424 569 b 451 542 424 551 433 542 l 518 542 l 518 264 b 550 231 518 242 528 231 l 625 231 b 654 265 644 231 654 242 l 654 542 l 740 542 b 767 571 758 542 767 551 l 767 644 b 735 675 767 665 757 675 l 654 675 b 674 740 654 706 661 726 b 722 760 686 753 703 760 l 740 760 b 772 793 761 760 772 771 l 772 854 b 740 886 772 875 761 886 l 722 886 b 572 831 660 886 610 868 b 518 675 536 793 518 742 l 453 675 b 424 643 433 675 424 664 z m 713 1104 l 500 1104 b 65 693 210 1103 65 965 l 65 381 b 500 -18 65 115 210 -18 l 711 -18 b 1147 381 1001 -18 1147 115 l 1147 696 b 713 1104 1147 968 1003 1104 z m 210 394 l 210 660 b 546 972 211 868 322 972 l 667 972 b 1003 661 892 972 1003 868 l 1003 396 b 667 118 1003 211 892 119 l 557 118 b 210 394 325 119 210 211 z "},"ⓖ":{"ha":1213,"x_min":0,"x_max":0,"o":"m 436 308 l 436 251 b 465 221 436 231 446 221 l 649 221 b 758 264 693 221 729 235 b 800 382 786 293 800 332 l 800 831 b 774 857 800 849 792 857 l 565 857 b 506 846 543 857 524 854 b 457 814 488 839 471 828 b 424 761 443 800 432 782 b 411 689 415 740 411 715 l 411 588 b 424 515 411 560 415 536 b 457 463 432 493 443 475 b 506 431 471 449 488 438 b 565 419 524 424 543 419 l 679 419 l 679 392 b 663 353 679 374 674 361 b 625 340 653 344 640 340 l 465 340 b 436 308 446 340 436 329 z m 679 719 l 679 558 b 661 540 679 546 674 540 l 586 540 b 547 558 571 540 558 546 b 532 601 538 569 532 585 l 532 675 b 547 718 532 692 538 706 b 586 736 558 729 571 736 l 664 736 b 679 719 674 736 679 731 z m 713 1104 l 500 1104 b 65 693 210 1103 65 965 l 65 381 b 500 -18 65 115 210 -18 l 711 -18 b 1147 381 1001 -18 1147 115 l 1147 696 b 713 1104 1147 968 1003 1104 z m 210 394 l 210 660 b 546 972 211 868 322 972 l 667 972 b 1003 661 892 972 1003 868 l 1003 396 b 667 118 1003 211 892 119 l 557 118 b 210 394 325 119 210 211 z "},"ⓗ":{"ha":1213,"x_min":0,"x_max":0,"o":"m 713 1104 l 500 1104 b 65 693 210 1103 65 965 l 65 381 b 500 -18 65 115 210 -18 l 711 -18 b 1147 381 1001 -18 1147 115 l 1147 696 b 713 1104 1147 968 1003 1104 z m 210 394 l 210 660 b 546 972 211 868 322 972 l 667 972 b 1003 661 892 972 1003 868 l 1003 396 b 667 118 1003 211 892 119 l 557 118 b 210 394 325 119 210 211 z m 418 840 l 418 258 b 447 231 418 240 428 231 l 519 231 b 550 261 540 231 550 240 l 550 542 b 565 585 551 558 556 572 b 618 601 575 596 592 601 l 635 601 b 686 582 660 601 676 596 b 697 535 694 569 699 553 l 697 260 b 726 231 697 240 707 231 l 799 231 b 828 261 818 231 828 240 l 828 557 b 817 619 828 579 825 600 b 785 675 810 640 799 658 b 728 714 769 690 750 704 b 651 729 707 724 681 729 l 603 729 b 550 722 583 729 565 726 l 550 844 b 518 875 550 865 539 875 l 451 875 b 418 840 429 875 418 864 z "},"ⓘ":{"ha":1213,"x_min":0,"x_max":0,"o":"m 713 1104 l 500 1104 b 65 693 210 1103 65 965 l 65 381 b 500 -18 65 115 210 -18 l 711 -18 b 1147 381 1001 -18 1147 115 l 1147 696 b 713 1104 1147 968 1003 1104 z m 210 394 l 210 660 b 546 972 211 868 322 972 l 667 972 b 1003 661 892 972 1003 868 l 1003 396 b 664 118 1003 211 890 119 l 553 118 b 210 394 324 119 210 211 z m 682 269 l 683 599 b 639 642 683 626 669 642 l 578 642 b 533 601 547 639 533 625 l 533 268 b 572 231 533 244 546 232 l 638 231 b 682 269 667 232 682 244 z m 686 739 l 686 813 b 642 854 686 840 671 854 l 578 854 b 533 814 547 853 533 839 l 533 738 b 572 700 533 713 546 700 l 638 700 b 686 739 669 700 686 713 z "},"ⓙ":{"ha":1213,"x_min":0,"x_max":0,"o":"m 713 1104 l 500 1104 b 65 693 210 1103 65 965 l 65 381 b 500 -18 65 115 210 -18 l 711 -18 b 1147 381 1001 -18 1147 115 l 1147 696 b 713 1104 1147 968 1003 1104 z m 210 394 l 210 660 b 546 972 211 868 322 972 l 667 972 b 1003 661 892 972 1003 868 l 1003 396 b 664 118 1003 211 890 119 l 553 118 b 210 394 324 119 210 211 z m 482 197 b 658 249 568 197 628 214 b 704 389 689 285 704 331 l 704 601 b 660 643 706 629 690 643 l 603 643 b 560 601 574 640 560 626 l 560 386 b 542 342 560 368 553 353 b 482 324 529 329 510 324 b 450 293 461 324 450 314 l 450 224 b 482 197 450 206 461 197 z m 707 740 l 707 813 b 664 854 707 840 693 854 l 603 854 b 560 814 574 853 560 839 l 560 739 b 599 701 560 714 572 701 l 660 701 b 707 740 692 701 707 715 z "},"ⓚ":{"ha":1213,"x_min":0,"x_max":0,"o":"m 713 1104 l 500 1104 b 65 693 210 1103 65 965 l 65 381 b 500 -18 65 115 210 -18 l 711 -18 b 1147 381 1001 -18 1147 115 l 1147 696 b 713 1104 1147 968 1003 1104 z m 210 394 l 210 660 b 546 972 211 868 322 972 l 667 972 b 1003 661 892 972 1003 868 l 1003 396 b 664 118 1003 211 890 119 l 553 118 b 210 394 324 119 210 211 z m 547 564 l 549 821 b 518 850 549 840 539 850 l 446 850 b 414 818 425 850 414 840 l 414 264 b 446 231 414 242 425 231 l 511 231 b 547 269 535 231 547 243 l 547 428 b 711 267 657 404 711 350 b 746 231 711 243 722 231 l 817 231 b 850 264 839 231 850 242 b 668 513 850 396 790 479 b 817 740 743 564 792 639 b 792 769 822 760 814 769 l 707 769 b 667 743 682 769 669 761 b 547 564 657 668 617 608 z "},"ⓛ":{"ha":1213,"x_min":0,"x_max":0,"o":"m 682 269 l 683 810 b 639 851 683 838 669 851 l 578 851 b 533 811 547 850 533 836 l 533 268 b 572 231 533 244 546 232 l 638 231 b 682 269 667 232 682 244 z m 713 1104 l 500 1104 b 65 693 210 1103 65 965 l 65 381 b 500 -18 65 115 210 -18 l 711 -18 b 1147 381 1001 -18 1147 115 l 1147 696 b 713 1104 1147 968 1003 1104 z m 210 394 l 210 660 b 546 972 211 868 322 972 l 667 972 b 1003 661 892 972 1003 868 l 1003 396 b 664 118 1003 211 890 119 l 553 118 b 210 394 324 119 210 211 z "},"ⓜ":{"ha":1213,"x_min":0,"x_max":0,"o":"m 713 1104 l 500 1104 b 65 693 210 1103 65 965 l 65 381 b 500 -18 65 115 210 -18 l 711 -18 b 1147 381 1001 -18 1147 115 l 1147 696 b 713 1104 1147 968 1003 1104 z m 210 394 l 210 660 b 546 972 211 868 322 972 l 667 972 b 1003 661 892 972 1003 868 l 1003 396 b 664 118 1003 211 890 119 l 553 118 b 210 394 324 119 210 211 z m 903 268 l 903 678 b 893 740 903 699 899 721 b 864 796 886 761 876 779 b 817 835 853 813 836 825 b 749 850 799 846 775 850 l 708 850 b 617 813 667 850 635 838 b 525 850 592 838 561 850 b 454 821 489 851 465 842 b 428 850 454 840 446 850 l 360 850 b 328 817 339 850 328 839 l 328 268 b 353 244 328 251 336 244 l 438 244 b 461 268 453 244 461 251 l 461 649 b 469 697 461 668 464 683 b 504 717 475 710 486 717 b 540 697 522 717 535 710 b 549 649 546 683 549 668 l 549 268 b 574 244 549 251 557 244 l 660 244 b 682 268 674 244 682 251 l 682 649 b 690 697 682 668 685 683 b 728 717 694 710 707 717 b 761 697 744 717 757 710 b 769 649 767 683 769 668 l 769 268 b 796 244 769 251 778 244 l 879 244 b 903 268 894 244 903 251 z "},"ⓝ":{"ha":1213,"x_min":0,"x_max":0,"o":"m 735 239 l 796 239 b 833 279 821 239 833 251 l 833 672 b 821 738 833 693 829 715 b 785 794 813 758 801 778 b 726 835 769 811 750 824 b 646 850 704 846 676 850 b 529 807 592 850 551 836 l 529 819 b 496 850 529 840 518 850 l 431 850 b 396 814 407 850 396 839 l 396 275 b 435 239 396 250 408 239 l 496 239 b 533 276 521 239 533 251 l 533 649 b 546 699 533 668 538 685 b 606 718 554 711 575 718 l 628 718 b 683 699 657 718 675 711 b 696 649 692 685 696 668 l 696 274 b 735 239 696 250 708 239 z m 713 1104 l 500 1104 b 65 693 210 1103 65 965 l 65 381 b 500 -18 65 115 210 -18 l 711 -18 b 1147 381 1001 -18 1147 115 l 1147 696 b 713 1104 1147 968 1003 1104 z m 210 394 l 210 660 b 546 972 211 868 322 972 l 667 972 b 1003 661 892 972 1003 868 l 1003 396 b 664 118 1003 211 890 119 l 553 118 b 210 394 324 119 210 211 z "},"ⓞ":{"ha":1213,"x_min":0,"x_max":0,"o":"m 713 1104 l 500 1104 b 65 693 210 1103 65 965 l 65 381 b 500 -18 65 115 210 -18 l 711 -18 b 1147 381 1001 -18 1147 115 l 1147 696 b 713 1104 1147 968 1003 1104 z m 210 394 l 210 660 b 546 972 211 868 322 972 l 667 972 b 1003 661 892 972 1003 868 l 1003 396 b 664 118 1003 211 890 119 l 553 118 b 210 394 324 119 210 211 z m 588 231 l 636 231 b 803 293 707 231 763 251 b 864 457 843 333 864 389 l 864 624 b 803 788 864 692 843 747 b 636 849 763 828 707 849 l 588 849 b 421 788 518 849 463 828 b 360 624 381 747 360 692 l 360 457 b 421 293 360 389 381 333 b 588 231 463 251 518 231 z m 642 364 l 583 364 b 524 392 561 364 542 374 b 497 449 507 410 497 429 l 497 632 b 524 690 497 653 507 672 b 583 718 542 708 561 718 l 642 718 b 700 690 663 718 682 708 b 726 632 718 672 726 653 l 726 449 b 700 392 726 429 718 410 b 642 364 682 374 663 364 z "},"ⓟ":{"ha":1213,"x_min":0,"x_max":0,"o":"m 713 1104 l 500 1104 b 65 693 210 1103 65 965 l 65 381 b 500 -18 65 115 210 -18 l 711 -18 b 1147 381 1001 -18 1147 115 l 1147 696 b 713 1104 1147 968 1003 1104 z m 210 394 l 210 660 b 546 972 211 868 322 972 l 667 972 b 1003 661 892 972 1003 868 l 1003 396 b 664 118 1003 211 890 119 l 553 118 b 210 394 324 119 210 211 z m 411 824 l 411 239 b 438 207 411 218 419 207 l 518 207 b 547 239 538 207 547 218 l 547 381 b 857 631 751 308 856 392 b 685 856 856 781 797 856 b 550 819 642 856 597 843 b 513 856 550 843 538 856 l 451 856 b 411 824 429 856 415 844 z m 732 629 b 547 515 732 499 669 461 l 547 686 b 660 725 582 711 619 725 b 732 629 707 724 732 692 z "},"ⓠ":{"ha":1213,"x_min":0,"x_max":0,"o":"m 714 1104 l 501 1104 b 65 696 211 1104 65 968 l 65 381 b 503 -18 65 115 211 -18 l 714 -18 b 1147 381 1003 -18 1147 115 l 1147 693 b 714 1104 1147 965 1003 1103 z m 1004 660 l 1004 394 b 660 118 1004 211 889 119 l 550 118 b 211 396 322 119 210 211 l 211 661 b 546 972 210 868 321 972 l 667 972 b 1004 660 890 972 1003 868 z m 821 233 l 821 831 b 781 861 817 851 803 861 l 719 861 b 682 826 694 861 682 850 b 547 861 635 850 590 861 b 375 569 435 861 376 764 b 685 369 376 364 481 297 l 685 233 b 714 203 685 213 694 203 l 794 203 b 821 233 813 203 821 213 z m 501 568 b 571 732 501 676 525 731 b 685 693 613 732 650 718 l 685 504 b 501 568 563 450 501 471 z "},"ⓡ":{"ha":1213,"x_min":0,"x_max":0,"o":"m 714 1104 l 501 1104 b 65 696 211 1104 65 968 l 65 381 b 503 -18 65 115 211 -18 l 714 -18 b 1147 381 1003 -18 1147 115 l 1147 693 b 714 1104 1147 965 1003 1103 z m 1004 660 l 1004 394 b 660 118 1004 211 889 119 l 550 118 b 211 396 322 119 210 211 l 211 661 b 546 972 210 868 321 972 l 667 972 b 1004 660 890 972 1003 868 z m 800 669 b 844 703 829 669 844 681 l 844 776 b 801 808 844 799 829 810 b 590 749 675 806 606 786 l 590 778 b 558 811 590 800 579 811 l 492 811 b 458 776 469 811 458 800 l 458 272 b 489 244 458 254 468 244 l 560 244 b 590 275 581 244 590 254 l 590 624 b 800 669 615 653 685 668 z "},"ⓢ":{"ha":1213,"x_min":0,"x_max":0,"o":"m 418 329 l 418 282 b 457 247 418 258 431 247 l 678 247 b 796 294 725 247 765 264 b 843 421 826 326 843 368 b 678 604 843 543 788 604 l 578 604 b 524 654 542 604 524 621 b 578 707 524 689 542 707 l 761 707 b 803 749 789 707 803 721 l 803 790 b 761 831 803 817 789 831 l 550 831 b 481 815 524 831 500 825 b 429 775 460 806 443 792 b 399 719 417 760 406 740 b 388 653 392 697 388 675 b 558 472 390 532 446 472 l 642 472 b 699 418 679 472 699 454 b 642 367 699 383 679 367 l 458 367 b 418 329 431 367 418 354 z m 714 1104 l 501 1104 b 65 696 211 1104 65 968 l 65 381 b 503 -18 65 115 211 -18 l 714 -18 b 1147 381 1003 -18 1147 115 l 1147 693 b 714 1104 1147 965 1003 1103 z m 1004 660 l 1004 394 b 660 118 1004 211 889 119 l 550 118 b 211 396 322 119 210 211 l 211 661 b 546 972 210 868 321 972 l 667 972 b 1004 660 890 972 1003 868 z "},"ⓣ":{"ha":1213,"x_min":0,"x_max":0,"o":"m 714 1104 l 501 1104 b 65 696 211 1104 65 968 l 65 381 b 503 -18 65 115 211 -18 l 714 -18 b 1147 381 1003 -18 1147 115 l 1147 693 b 714 1104 1147 965 1003 1103 z m 1004 660 l 1004 394 b 660 118 1004 211 889 119 l 550 118 b 211 396 322 119 210 211 l 211 661 b 546 972 210 868 321 972 l 667 972 b 1004 660 890 972 1003 868 z m 439 690 l 439 618 b 465 590 439 600 447 590 l 536 590 l 536 264 b 567 231 536 242 546 231 l 646 231 b 678 265 667 231 678 242 l 678 590 l 746 590 b 772 619 764 590 772 600 l 772 693 b 740 724 772 714 763 724 l 678 724 l 678 818 b 646 853 678 842 667 853 l 567 853 b 536 819 546 853 536 842 l 536 724 l 468 724 b 439 690 449 724 439 713 z "},"ⓤ":{"ha":1213,"x_min":0,"x_max":0,"o":"m 489 849 l 425 849 b 389 808 401 849 389 835 l 389 415 b 578 238 389 297 451 238 b 694 281 632 238 671 251 l 694 267 b 726 238 694 247 706 238 l 792 238 b 826 272 815 238 826 249 l 826 813 b 789 849 826 836 814 849 l 726 849 b 689 811 701 849 689 836 l 689 439 b 676 389 689 418 685 401 b 618 369 668 375 649 369 l 594 369 b 539 389 565 369 547 375 b 526 439 531 401 526 418 l 526 814 b 489 849 526 836 514 849 z m 713 1104 l 500 1104 b 65 693 210 1103 65 965 l 65 381 b 500 -18 65 115 210 -18 l 711 -18 b 1147 381 1001 -18 1147 115 l 1147 696 b 713 1104 1147 968 1003 1104 z m 210 394 l 210 660 b 546 972 211 868 322 972 l 667 972 b 1003 661 892 972 1003 868 l 1003 396 b 664 118 1003 211 890 119 l 553 118 b 210 394 324 119 210 211 z "},"ⓥ":{"ha":1213,"x_min":0,"x_max":0,"o":"m 713 1104 l 500 1104 b 65 693 210 1103 65 965 l 65 381 b 500 -18 65 115 210 -18 l 711 -18 b 1147 381 1001 -18 1147 115 l 1147 696 b 713 1104 1147 968 1003 1104 z m 210 394 l 210 660 b 546 972 211 868 322 972 l 667 972 b 1003 661 892 972 1003 868 l 1003 396 b 664 118 1003 211 890 119 l 553 118 b 210 394 324 119 210 211 z m 678 810 l 606 435 l 533 810 b 476 851 526 838 507 851 l 415 851 b 382 811 388 850 376 836 l 524 268 b 571 231 532 243 547 231 l 639 231 b 688 268 664 231 681 243 l 829 811 b 796 851 836 836 825 850 l 735 851 b 678 810 706 851 686 838 z "},"ⓦ":{"ha":1213,"x_min":0,"x_max":0,"o":"m 713 1104 l 500 1104 b 65 693 210 1103 65 965 l 65 381 b 500 -18 65 115 210 -18 l 711 -18 b 1147 381 1001 -18 1147 115 l 1147 696 b 713 1104 1147 968 1003 1104 z m 210 394 l 210 660 b 546 972 211 868 322 972 l 667 972 b 1003 661 892 972 1003 868 l 1003 396 b 664 118 1003 211 890 119 l 553 118 b 210 394 324 119 210 211 z m 772 783 l 744 447 l 654 738 b 626 750 650 746 640 750 l 588 750 b 560 736 572 750 563 746 l 471 447 l 442 783 b 404 825 442 811 429 825 l 351 825 b 319 785 326 822 315 808 l 382 268 b 425 231 386 243 400 231 l 479 231 b 524 268 503 231 518 243 l 607 544 l 690 268 b 735 231 697 243 711 231 l 789 231 b 832 268 814 231 829 243 l 896 785 b 863 825 899 808 889 822 l 810 825 b 772 783 786 825 774 811 z "},"ⓧ":{"ha":1213,"x_min":0,"x_max":0,"o":"m 713 1104 l 500 1104 b 65 693 210 1103 65 965 l 65 381 b 500 -18 65 115 210 -18 l 711 -18 b 1147 381 1001 -18 1147 115 l 1147 696 b 713 1104 1147 968 1003 1104 z m 210 394 l 210 660 b 546 972 211 868 322 972 l 667 972 b 1003 661 892 972 1003 868 l 1003 396 b 664 118 1003 211 890 119 l 553 118 b 210 394 324 119 210 211 z m 376 801 l 538 542 l 376 281 b 397 243 363 256 369 244 l 471 243 b 533 279 497 244 518 256 l 617 413 l 699 279 b 761 243 714 256 735 244 l 835 243 b 856 281 863 244 869 256 l 694 542 l 856 801 b 839 839 869 825 864 838 l 767 839 b 697 800 738 839 714 826 l 617 668 l 536 800 b 465 839 518 826 494 839 l 394 839 b 376 801 368 838 363 825 z "},"ⓨ":{"ha":1213,"x_min":0,"x_max":0,"o":"m 713 1104 l 500 1104 b 65 693 210 1103 65 965 l 65 381 b 500 -18 65 115 210 -18 l 711 -18 b 1147 381 1001 -18 1147 115 l 1147 696 b 713 1104 1147 968 1003 1104 z m 210 394 l 210 660 b 546 972 211 868 322 972 l 667 972 b 1003 661 892 972 1003 868 l 1003 396 b 664 118 1003 211 890 119 l 553 118 b 210 394 324 119 210 211 z m 504 197 b 826 389 719 197 826 261 l 826 813 b 789 849 826 836 814 849 l 726 849 b 689 811 701 849 689 836 l 689 628 b 676 578 689 607 685 590 b 618 558 668 564 649 558 l 594 558 b 539 578 565 558 547 564 b 526 628 531 590 526 607 l 526 813 b 490 849 526 836 514 849 l 428 849 b 389 808 401 849 389 835 l 389 604 b 578 426 389 486 451 426 b 690 446 628 426 667 433 l 690 400 b 504 324 690 349 629 324 b 472 293 483 324 472 314 l 472 224 b 504 197 472 206 483 197 z "},"ⓩ":{"ha":1213,"x_min":0,"x_max":0,"o":"m 713 1104 l 500 1104 b 65 693 210 1103 65 965 l 65 381 b 500 -18 65 115 210 -18 l 711 -18 b 1147 381 1001 -18 1147 115 l 1147 696 b 713 1104 1147 968 1003 1104 z m 210 394 l 210 660 b 546 972 211 868 322 972 l 667 972 b 1003 661 892 972 1003 868 l 1003 396 b 664 118 1003 211 890 119 l 553 118 b 210 394 324 119 210 211 z m 394 264 l 808 264 b 849 306 835 264 849 278 l 849 354 b 810 393 847 381 833 393 l 590 393 l 835 790 b 819 826 849 813 843 824 l 403 826 b 364 785 376 826 364 813 l 364 733 b 401 699 365 710 378 699 l 619 699 l 376 300 b 394 264 363 278 368 265 z "},"⓪":{"ha":1213,"x_min":0,"x_max":0,"o":"m 631 856 l 592 856 b 526 842 568 856 547 850 b 472 806 506 832 488 821 b 436 753 457 792 446 774 b 424 686 428 732 424 710 l 424 400 b 436 335 424 376 428 356 b 472 281 446 314 457 296 b 526 244 488 265 506 253 b 592 232 547 236 568 232 l 631 232 b 696 244 654 232 676 236 b 749 281 715 253 733 265 b 786 335 765 296 778 314 b 799 400 794 356 799 376 l 799 686 b 786 753 799 710 794 732 b 749 806 778 774 765 792 b 696 842 733 821 715 832 b 631 856 676 850 654 856 z m 678 669 l 678 419 b 661 374 678 401 672 386 b 619 356 650 361 635 356 l 601 356 b 560 374 586 356 572 361 b 542 419 549 386 542 401 l 542 669 b 560 714 542 688 549 703 b 601 732 572 725 586 732 l 619 732 b 661 714 635 732 650 725 b 678 669 672 703 678 688 z m 713 1104 l 500 1104 b 65 693 210 1103 65 965 l 65 381 b 500 -18 65 115 210 -18 l 711 -18 b 1147 381 1001 -18 1147 115 l 1147 696 b 713 1104 1147 968 1003 1104 z m 210 394 l 210 660 b 546 972 211 868 322 972 l 667 972 b 1003 661 892 972 1003 868 l 1003 396 b 667 118 1003 211 892 119 l 557 118 b 210 394 325 119 210 211 z "},"■":{"ha":1172,"x_min":0,"x_max":0,"o":"m 1100 74 l 1100 1010 b 1029 1078 1100 1056 1076 1078 l 144 1078 b 72 1000 96 1078 72 1051 l 72 83 b 144 4 72 31 96 4 l 1029 4 b 1100 74 1076 4 1100 28 z "},"□":{"ha":1172,"x_min":0,"x_max":0,"o":"m 1100 74 l 1100 1010 b 1029 1078 1100 1056 1076 1078 l 144 1078 b 72 1000 96 1078 72 1051 l 72 83 b 144 4 72 31 96 4 l 1029 4 b 1100 74 1076 4 1100 28 z m 994 919 l 994 163 b 939 110 994 128 976 110 l 233 110 b 179 171 197 110 179 131 l 179 911 b 233 972 179 951 197 972 l 939 972 b 994 919 976 972 994 954 z "},"▣":{"ha":1172,"x_min":0,"x_max":0,"o":"m 1100 74 l 1100 1010 b 1029 1078 1100 1056 1076 1078 l 144 1078 b 72 1000 96 1078 72 1051 l 72 83 b 144 4 72 31 96 4 l 1029 4 b 1100 74 1076 4 1100 28 z m 994 919 l 994 163 b 939 110 994 128 976 110 l 233 110 b 179 171 197 110 179 131 l 179 911 b 233 972 179 951 197 972 l 939 972 b 994 919 976 972 994 954 z m 881 260 l 881 824 b 840 861 881 849 868 861 l 333 861 b 293 818 306 861 293 847 l 293 265 b 333 221 293 236 306 221 l 840 221 b 881 260 868 221 881 233 z "},"▲":{"ha":1128,"x_min":0,"x_max":0,"o":"m 519 986 l 81 118 b 133 36 51 64 68 36 l 997 36 b 1049 119 1060 36 1076 64 l 610 986 b 519 986 581 1044 550 1044 z "},"△":{"ha":1128,"x_min":0,"x_max":0,"o":"m 519 986 l 81 118 b 133 36 51 64 68 36 l 997 36 b 1049 119 1060 36 1076 64 l 610 986 b 519 986 581 1044 550 1044 z m 249 199 l 536 761 b 592 761 556 799 574 799 l 879 199 b 846 146 897 164 886 146 l 283 146 b 249 199 242 146 231 164 z "},"▶":{"ha":1033,"x_min":0,"x_max":0,"o":"m 900 597 l 128 1036 b 44 986 72 1067 44 1050 l 44 119 b 128 69 44 58 72 42 l 900 508 b 900 597 958 538 958 567 z "},"▷":{"ha":1035,"x_min":0,"x_max":0,"o":"m 901 597 l 128 1036 b 44 986 72 1067 44 1050 l 44 119 b 128 69 44 58 72 42 l 901 508 b 901 597 960 538 960 567 z m 208 868 l 718 582 b 718 526 753 563 753 544 l 208 239 b 156 272 172 221 156 232 l 156 833 b 208 868 156 876 172 888 z "},"▼":{"ha":1125,"x_min":0,"x_max":0,"o":"m 81 990 l 518 124 b 607 124 550 65 579 65 l 1046 989 b 997 1074 1075 1044 1058 1074 l 132 1074 b 81 990 67 1074 49 1046 z "},"▽":{"ha":1125,"x_min":0,"x_max":0,"o":"m 81 990 l 518 124 b 607 124 550 65 579 65 l 1046 989 b 997 1074 1075 1044 1058 1074 l 132 1074 b 81 990 67 1074 49 1046 z m 536 347 l 247 908 b 282 963 229 944 240 963 l 844 963 b 878 908 885 963 896 944 l 590 347 b 536 347 572 311 554 311 z "},"◀":{"ha":1033,"x_min":0,"x_max":0,"o":"m 904 1036 l 133 597 b 133 508 74 567 74 538 l 903 69 b 988 119 960 42 988 58 l 988 986 b 904 1036 988 1050 960 1067 z "},"◁":{"ha":1035,"x_min":0,"x_max":0,"o":"m 907 1036 l 133 597 b 133 508 74 567 74 538 l 904 69 b 989 119 961 42 989 58 l 989 986 b 907 1036 989 1050 961 1067 z m 317 582 l 826 868 b 878 833 860 888 878 876 l 878 272 b 826 239 878 232 860 221 l 317 526 b 317 582 281 544 281 563 z "},"◆":{"ha":1222,"x_min":0,"x_max":0,"o":"m 649 3 l 1150 504 b 1147 581 1175 529 1174 556 l 650 1078 b 567 1075 624 1104 596 1103 l 78 585 b 74 501 50 557 49 529 l 571 3 b 649 3 597 -21 624 -22 z "},"◇":{"ha":1222,"x_min":0,"x_max":0,"o":"m 649 3 l 1150 504 b 1147 581 1175 529 1174 556 l 650 1078 b 567 1075 624 1104 596 1103 l 78 585 b 74 501 50 557 49 529 l 571 3 b 649 3 597 -21 624 -22 z m 990 515 l 636 163 b 583 163 619 146 601 146 l 233 514 b 236 574 215 533 217 553 l 579 915 b 638 919 600 936 619 938 l 989 568 b 990 515 1007 551 1007 533 z "},"○":{"ha":1129,"x_min":0,"x_max":0,"o":"m 194 536 b 224 679 194 586 204 633 b 301 797 243 725 268 764 b 418 876 335 832 374 858 b 564 906 464 896 513 906 b 708 876 615 906 663 896 b 826 797 754 858 793 832 b 906 679 860 764 886 725 b 933 536 924 633 933 586 b 906 392 933 485 924 436 b 826 274 886 346 860 307 b 708 194 793 240 754 213 b 564 165 663 175 615 165 b 418 194 513 165 464 175 b 301 274 374 213 335 240 b 224 392 268 307 243 346 b 194 536 204 436 194 485 z m 57 536 b 96 338 57 465 69 399 b 204 175 122 275 158 221 b 365 65 250 128 304 92 b 564 25 428 38 493 25 b 763 65 635 25 701 38 b 924 175 824 92 878 128 b 1032 338 969 221 1006 275 b 1072 536 1058 399 1072 465 b 1032 733 1072 606 1058 672 b 924 896 1006 794 969 849 b 763 1004 878 942 824 978 b 564 1044 701 1031 635 1044 b 365 1004 493 1044 428 1031 b 204 896 304 978 250 942 b 96 733 158 849 122 794 b 57 536 69 672 57 606 z "},"◎":{"ha":1129,"x_min":0,"x_max":0,"o":"m 368 536 b 383 613 368 563 374 588 b 425 675 393 636 407 657 b 489 718 443 693 464 707 b 565 733 513 728 539 733 b 644 718 593 733 619 728 b 707 675 668 707 690 693 b 750 613 725 657 740 636 b 767 536 761 588 767 563 b 750 458 767 508 761 483 b 707 394 740 435 725 413 b 644 353 690 376 668 363 b 565 338 619 343 593 338 b 489 353 539 338 513 343 b 425 394 464 363 443 376 b 383 458 407 413 393 435 b 368 536 374 483 368 508 z m 269 536 b 293 419 269 494 278 456 b 356 325 308 383 329 353 b 450 261 383 299 414 276 b 565 239 486 246 525 239 b 682 261 607 239 646 246 b 775 325 718 276 749 299 b 839 419 803 353 824 383 b 861 536 854 456 861 494 b 839 650 861 576 854 614 b 775 744 824 686 803 718 b 682 808 749 771 718 792 b 565 832 646 824 607 832 b 450 808 525 832 486 824 b 356 744 414 792 383 771 b 293 650 329 718 308 686 b 269 536 278 614 269 576 z m 172 536 b 203 688 172 589 182 640 b 286 814 222 736 250 778 b 411 897 322 850 364 878 b 564 928 458 918 508 928 b 717 897 618 928 669 918 b 842 814 765 878 807 850 b 926 688 878 778 906 736 b 957 536 946 640 957 589 b 926 382 957 481 946 429 b 842 257 906 335 878 293 b 717 174 807 222 765 193 b 564 143 669 153 618 143 b 411 174 508 143 458 153 b 286 257 364 193 322 222 b 203 382 250 293 222 335 b 172 536 182 429 172 481 z m 57 536 b 96 338 57 465 69 399 b 204 175 122 275 158 221 b 365 65 250 128 304 92 b 564 25 428 38 493 25 b 763 65 635 25 701 38 b 924 175 824 92 878 128 b 1032 338 969 221 1006 275 b 1072 536 1058 399 1072 465 b 1032 733 1072 606 1058 672 b 924 896 1006 794 969 849 b 763 1004 878 942 824 978 b 564 1044 701 1031 635 1044 b 365 1004 493 1044 428 1031 b 204 896 304 978 250 942 b 96 733 158 849 122 794 b 57 536 69 672 57 606 z "},"●":{"ha":1129,"x_min":0,"x_max":0,"o":"m 57 536 b 96 338 57 465 69 399 b 204 175 122 275 158 221 b 365 65 250 128 304 92 b 564 25 428 38 493 25 b 763 65 635 25 701 38 b 924 175 824 92 878 128 b 1032 338 969 221 1006 275 b 1072 536 1058 399 1072 465 b 1032 733 1072 606 1058 672 b 924 896 1006 794 969 849 b 763 1004 878 942 824 978 b 564 1044 701 1031 635 1044 b 365 1004 493 1044 428 1031 b 204 896 304 978 250 942 b 96 733 158 849 122 794 b 57 536 69 672 57 606 z "},"★":{"ha":1150,"x_min":0,"x_max":0,"o":"m 529 1006 l 443 750 l 189 750 b 151 656 83 750 71 719 l 360 494 l 290 186 b 371 125 257 64 285 43 l 571 319 l 774 125 b 856 186 861 43 888 64 l 786 490 l 997 656 b 958 750 1079 719 1065 750 l 701 750 l 619 1007 b 572 1074 606 1051 590 1074 b 529 1006 556 1074 540 1051 z "},"☆":{"ha":1150,"x_min":0,"x_max":0,"o":"m 529 1006 l 443 750 l 189 750 b 151 656 83 750 71 719 l 360 494 l 290 186 b 371 125 257 64 285 43 l 571 319 l 774 125 b 856 186 861 43 888 64 l 786 490 l 997 656 b 958 750 1079 719 1065 750 l 701 750 l 619 1007 b 572 1074 606 1051 590 1074 b 529 1006 556 1074 540 1051 z m 683 335 l 571 450 l 458 335 b 424 351 421 297 408 303 l 479 528 l 340 625 b 356 661 307 650 311 663 l 513 654 l 553 779 b 571 819 560 806 567 819 b 590 779 576 819 583 806 l 631 654 l 788 661 b 803 625 832 663 836 650 l 660 528 l 719 351 b 683 335 735 303 722 297 z "},"♡":{"ha":1082,"x_min":0,"x_max":0,"o":"m 571 101 b 936 494 750 254 871 385 b 985 828 1001 606 1018 717 b 760 999 954 940 879 997 b 540 865 660 1000 586 956 b 322 999 494 956 422 1000 b 97 828 204 997 129 940 b 146 494 63 715 79 604 b 510 103 211 385 332 254 b 571 101 532 82 551 81 z m 513 719 b 569 719 533 685 551 686 b 746 886 621 832 681 888 b 892 758 819 886 868 843 b 819 529 904 682 881 606 b 564 243 760 453 674 357 b 518 244 550 228 533 228 b 247 531 390 360 300 456 b 203 772 194 606 181 686 b 336 886 219 847 264 886 b 513 719 401 888 461 832 z "},"♥":{"ha":1081,"x_min":0,"x_max":0,"o":"m 571 103 b 935 494 749 256 869 386 b 983 831 1000 607 1017 718 b 758 1000 953 942 878 997 b 540 828 660 1000 586 943 b 322 1000 494 943 422 1000 b 97 831 204 997 129 942 b 146 494 63 718 79 606 b 508 104 210 386 331 256 b 571 103 531 83 551 83 z "},"♩":{"ha":429,"x_min":0,"x_max":0,"o":"m 383 231 l 383 1014 b 344 1051 383 1039 371 1051 l 321 1051 b 282 1014 294 1051 282 1039 l 282 257 b 144 240 233 269 188 264 b 86 83 78 203 58 150 b 267 61 114 24 175 17 b 383 231 344 100 383 157 z "},"♪":{"ha":719,"x_min":0,"x_max":0,"o":"m 374 231 l 374 769 l 442 746 b 514 711 469 738 494 725 b 564 656 535 696 551 678 b 583 578 578 635 583 608 b 563 489 583 546 576 517 b 575 422 549 463 553 440 b 635 435 597 404 617 408 b 675 525 654 467 668 496 b 688 610 683 554 688 582 b 676 675 688 632 683 653 b 639 743 668 696 656 719 b 571 824 621 768 599 794 b 469 918 543 851 508 883 b 411 972 443 939 424 957 l 374 1015 b 335 1051 372 1039 358 1051 l 310 1051 b 272 1014 285 1051 272 1039 l 272 257 b 133 240 224 269 178 264 b 76 83 67 203 47 150 b 256 61 104 24 164 17 b 374 231 335 100 374 157 z "},"♬":{"ha":928,"x_min":0,"x_max":0,"o":"m 881 329 l 881 1111 b 842 1150 881 1142 868 1156 l 322 1042 b 286 994 299 1036 286 1019 l 286 257 b 147 240 238 268 190 263 b 90 82 81 201 61 149 b 269 58 118 22 178 15 b 388 229 347 99 388 156 l 388 656 l 779 740 l 779 356 b 642 340 731 368 685 363 b 583 182 574 301 554 249 b 763 158 611 122 671 114 b 881 329 842 199 881 256 z m 779 868 l 388 786 l 388 899 l 779 983 z "},"「":{"ha":457,"x_min":0,"x_max":0,"o":"m 86 806 l 165 806 b 200 842 189 806 200 818 l 200 1092 b 256 1151 200 1132 218 1151 l 374 1151 b 404 1182 394 1151 404 1163 l 404 1269 b 374 1300 404 1290 394 1300 l 125 1300 b 53 1222 76 1300 53 1274 l 53 842 b 86 806 53 818 64 806 z "},"」":{"ha":458,"x_min":0,"x_max":0,"o":"m 369 482 l 293 482 b 257 447 268 482 257 471 l 257 197 b 201 136 257 157 238 136 l 85 136 b 53 106 64 136 53 126 l 53 18 b 85 -11 53 -1 64 -11 l 333 -11 b 404 68 381 -11 404 15 l 404 447 b 369 482 404 471 393 482 z "},"『":{"ha":457,"x_min":0,"x_max":0,"o":"m 86 806 l 165 806 b 200 838 189 806 200 817 l 200 1118 b 235 1151 200 1140 213 1151 l 374 1151 b 404 1182 394 1151 404 1163 l 404 1269 b 374 1300 404 1290 394 1300 l 121 1300 b 53 1232 76 1300 53 1276 l 53 835 b 86 806 53 815 64 806 z m 126 857 b 110 868 115 857 110 861 l 110 1217 b 132 1244 110 1235 118 1244 l 331 1244 b 342 1229 339 1244 342 1239 b 331 1213 342 1218 339 1213 l 172 1213 b 144 1185 153 1213 144 1203 l 144 868 b 126 857 144 861 138 857 z "},"』":{"ha":460,"x_min":0,"x_max":0,"o":"m 371 482 l 293 482 b 258 449 271 482 258 471 l 258 169 b 222 135 258 146 247 135 l 86 135 b 54 104 64 135 54 125 l 54 17 b 86 -12 54 -3 64 -12 l 336 -12 b 406 56 382 -12 406 10 l 406 453 b 371 482 406 472 394 482 z m 333 429 b 349 419 343 429 349 426 l 349 71 b 328 43 349 53 342 43 l 128 43 b 117 57 121 43 117 47 b 128 74 117 68 121 74 l 288 74 b 315 103 306 74 315 83 l 315 419 b 333 429 315 426 321 429 z "},"【":{"ha":501,"x_min":0,"x_max":0,"o":"m 228 542 b 263 796 228 614 240 699 b 422 1081 285 893 338 988 b 388 1104 436 1096 425 1104 l 57 1104 l 57 -24 l 388 -24 b 422 3 425 -24 436 -15 b 263 286 338 93 285 189 b 228 542 240 383 228 468 z "},"】":{"ha":503,"x_min":0,"x_max":0,"o":"m 274 542 b 240 286 274 468 263 383 b 81 3 217 189 164 93 b 114 -24 65 -15 76 -24 l 444 -24 l 444 1104 l 114 1104 b 81 1081 76 1104 65 1096 b 240 796 164 988 217 893 b 274 542 263 699 274 614 z "},"ㄱ":{"ha":793,"x_min":0,"x_max":0,"o":"m 708 950 l 86 950 b 47 910 60 950 47 936 l 47 831 b 86 793 47 806 60 793 l 508 793 b 531 764 526 793 533 783 b 286 238 506 556 424 381 b 269 199 271 226 265 214 b 317 181 274 188 289 181 l 394 181 b 463 194 425 182 449 186 b 593 385 478 203 521 265 b 740 903 665 503 714 675 b 708 950 743 933 733 950 z "},"ㄲ":{"ha":963,"x_min":0,"x_max":0,"o":"m 868 950 l 97 950 b 58 910 71 950 58 936 l 58 831 b 97 793 58 806 71 793 l 349 793 b 371 764 367 793 374 783 b 126 238 346 556 265 381 b 111 199 111 226 107 214 b 157 181 115 188 131 182 l 233 181 b 304 192 265 182 289 186 b 432 382 318 199 361 263 b 565 793 493 482 538 618 l 668 793 b 692 764 686 793 694 783 b 444 238 665 556 583 381 b 429 199 431 226 425 214 b 476 181 435 188 450 182 l 554 181 b 622 192 585 181 607 185 b 753 382 638 199 681 263 b 900 903 825 501 875 675 b 868 950 903 933 892 950 z "},"ㄳ":{"ha":1132,"x_min":0,"x_max":0,"o":"m 524 950 l 107 950 b 60 904 75 950 60 935 l 60 831 b 97 793 60 806 72 793 l 322 793 b 344 764 340 793 347 783 b 99 238 319 556 238 381 b 85 199 85 226 81 214 b 131 181 88 188 104 181 l 207 181 b 276 194 239 182 261 186 b 407 385 292 203 335 265 b 554 903 479 503 528 675 b 524 950 557 933 546 950 z m 810 826 l 826 918 b 817 957 831 938 826 951 b 775 967 806 964 792 967 l 704 967 b 650 917 682 967 664 950 b 540 213 588 764 550 529 b 592 182 540 192 557 182 l 667 182 b 719 233 701 182 719 199 b 772 667 724 396 742 542 b 886 222 857 608 896 460 b 939 182 886 196 904 182 l 1013 182 b 1065 233 1049 182 1067 199 b 810 826 1069 571 983 769 z "},"ㄴ":{"ha":760,"x_min":0,"x_max":0,"o":"m 711 275 l 711 382 b 674 403 711 401 699 408 b 228 338 497 363 349 340 l 228 918 b 181 964 228 949 211 964 l 100 964 b 47 924 65 964 47 950 l 47 204 b 88 167 47 179 61 167 b 678 239 268 168 464 192 b 711 275 700 244 711 256 z "},"ㄵ":{"ha":1133,"x_min":0,"x_max":0,"o":"m 479 275 l 489 382 b 454 403 489 410 478 417 b 247 338 390 363 321 342 l 247 918 b 200 964 247 949 232 964 l 121 964 b 68 924 85 964 68 950 l 68 204 b 108 167 68 179 81 167 b 439 233 242 168 351 190 b 479 275 461 244 474 258 z m 790 732 l 801 793 l 1021 793 b 1057 832 1046 793 1057 806 l 1057 911 b 1021 950 1057 936 1046 950 l 515 950 b 478 910 490 950 478 936 l 478 831 b 515 793 478 806 490 793 l 618 793 b 519 213 561 643 529 450 b 571 182 519 192 538 182 l 646 182 b 699 233 681 182 699 199 b 753 572 703 360 721 474 b 881 222 846 514 889 397 b 933 182 881 196 899 182 l 1006 182 b 1058 233 1042 182 1060 199 b 790 732 1063 508 972 675 z "},"ㄶ":{"ha":1185,"x_min":0,"x_max":0,"o":"m 486 292 l 475 365 b 435 394 468 399 454 408 b 246 338 382 364 318 344 l 246 918 b 199 964 246 949 229 964 l 118 964 b 65 924 83 964 65 950 l 65 204 b 106 167 65 179 79 167 b 451 233 239 168 354 190 b 486 292 479 246 490 265 z m 796 151 b 1060 403 972 151 1060 235 b 1015 597 1060 493 1044 558 l 1069 597 b 1119 647 1101 597 1118 614 l 1119 713 b 1063 769 1119 750 1100 769 l 513 769 b 465 713 481 769 465 750 l 465 656 b 513 597 465 617 481 597 l 572 597 b 524 403 540 557 524 493 b 796 151 528 235 618 151 z m 792 604 b 878 446 849 604 878 551 b 801 294 878 346 851 294 b 708 446 739 294 708 346 b 792 604 708 551 736 604 z m 633 807 l 947 807 b 989 856 975 807 989 822 l 989 918 b 940 967 989 951 972 968 l 633 967 b 586 918 601 967 586 950 l 586 857 b 633 807 586 824 601 807 z "},"ㄷ":{"ha":782,"x_min":0,"x_max":0,"o":"m 714 274 l 714 392 b 686 411 714 408 704 415 b 242 343 517 365 368 343 l 242 801 l 674 801 b 715 850 701 801 715 818 l 715 914 b 674 964 715 947 701 964 l 119 964 b 67 918 83 964 67 949 l 67 208 b 110 167 67 181 81 167 b 686 240 286 167 478 192 b 714 274 704 244 714 256 z "},"ㄸ":{"ha":974,"x_min":0,"x_max":0,"o":"m 903 253 l 903 356 b 867 379 903 378 892 385 b 556 343 746 356 642 344 l 556 801 l 857 801 b 897 840 885 801 897 814 l 897 926 b 860 964 897 951 885 964 l 121 964 b 69 917 86 964 69 949 l 69 200 b 107 167 69 178 82 167 b 382 183 207 167 299 172 b 417 167 385 172 397 167 b 869 214 543 167 694 182 b 903 253 892 218 903 232 z m 246 343 l 246 801 l 381 801 l 381 351 b 246 343 332 347 288 344 z "},"ㄹ":{"ha":779,"x_min":0,"x_max":0,"o":"m 708 574 l 708 903 b 657 950 708 935 692 950 l 113 950 b 69 903 83 950 69 935 l 69 843 b 113 796 69 813 83 796 l 543 796 l 543 675 l 121 675 b 69 631 86 675 69 660 l 69 208 b 107 176 69 188 82 176 b 679 243 340 176 532 199 b 707 282 697 249 707 261 l 707 368 b 671 389 707 388 694 394 b 249 328 528 351 386 331 l 249 524 l 660 524 b 708 574 692 524 708 540 z "},"ㄺ":{"ha":1082,"x_min":0,"x_max":0,"o":"m 504 574 l 504 910 b 451 950 504 938 486 950 l 110 950 b 63 908 79 950 63 936 l 63 843 b 107 796 63 811 78 796 l 338 796 l 338 675 l 115 675 b 63 635 81 675 63 661 l 63 215 b 100 176 63 189 75 176 b 458 243 249 176 368 199 b 486 288 476 251 486 267 l 486 371 b 451 389 486 397 475 403 b 226 328 383 351 308 331 l 226 524 l 461 524 b 504 574 490 524 504 540 z m 974 950 l 593 950 b 546 906 561 950 546 936 l 546 832 b 583 794 546 807 558 794 l 781 794 b 803 767 799 794 806 785 b 557 238 778 557 696 381 b 542 199 543 225 538 213 b 588 181 546 188 560 181 l 665 181 b 726 200 692 181 711 188 b 872 397 757 222 806 288 b 1011 903 939 507 985 675 b 974 950 1015 935 1003 950 z "},"ㄻ":{"ha":1108,"x_min":0,"x_max":0,"o":"m 513 574 l 513 910 b 458 950 513 938 494 950 l 117 950 b 71 901 86 950 71 933 l 71 847 b 114 796 71 814 85 796 l 346 796 l 346 675 l 124 675 b 71 635 89 675 71 661 l 71 208 b 108 176 71 188 83 176 b 468 243 257 176 376 199 b 494 288 486 254 494 269 l 494 371 b 458 389 494 397 483 403 b 236 328 390 349 317 328 l 236 524 l 469 524 b 513 574 497 524 513 540 z m 1036 292 l 1036 904 b 989 950 1036 935 1021 950 l 607 950 b 557 908 574 950 557 936 l 557 197 b 594 167 557 176 569 167 b 997 236 729 167 864 190 b 1036 292 1024 244 1036 263 z m 736 343 l 736 788 l 864 788 l 864 376 b 736 343 817 356 774 344 z "},"ㄼ":{"ha":1108,"x_min":0,"x_max":0,"o":"m 1038 292 l 1038 908 b 985 950 1038 936 1019 950 l 914 950 b 861 910 878 950 861 938 l 861 786 l 747 786 l 747 908 b 694 950 747 936 729 950 l 621 950 b 569 910 586 950 569 938 l 569 197 b 606 167 569 176 582 167 b 996 233 740 168 871 190 b 1038 292 1024 240 1038 260 z m 747 343 l 747 622 l 861 622 l 861 375 b 747 343 821 356 783 344 z m 513 574 l 513 910 b 458 950 513 938 494 950 l 117 950 b 71 901 86 950 71 933 l 71 847 b 114 796 71 814 85 796 l 346 796 l 346 675 l 124 675 b 71 635 89 675 71 661 l 71 208 b 108 176 71 188 83 176 b 468 243 257 176 376 199 b 494 288 486 254 494 269 l 494 371 b 458 389 494 397 483 403 b 236 328 390 349 317 328 l 236 524 l 469 524 b 513 574 497 524 513 540 z "},"ㄽ":{"ha":1133,"x_min":0,"x_max":0,"o":"m 821 826 l 839 918 b 788 967 844 950 828 967 l 721 967 b 660 917 694 967 675 950 b 551 224 597 764 561 533 b 603 182 550 196 568 182 l 678 182 b 732 231 714 182 732 199 b 785 667 735 396 753 542 b 883 228 860 608 892 463 b 936 182 882 197 900 182 l 1010 182 b 1063 233 1046 182 1063 199 b 821 826 1067 571 986 769 z m 506 574 l 506 910 b 453 950 506 938 488 950 l 110 950 b 64 901 79 950 64 933 l 64 847 b 107 796 64 814 78 796 l 340 796 l 340 675 l 117 675 b 64 635 82 675 64 661 l 64 208 b 101 176 64 188 76 176 b 461 243 250 176 369 199 b 489 288 479 254 489 269 l 489 371 b 453 389 489 397 476 403 b 229 328 383 349 310 328 l 229 524 l 463 524 b 506 574 490 524 506 540 z "},"ㄾ":{"ha":1094,"x_min":0,"x_max":0,"o":"m 1024 289 l 1024 417 b 997 435 1024 435 1015 440 b 738 368 881 390 794 368 l 738 504 l 917 504 b 956 543 943 504 956 517 l 956 622 b 915 660 956 647 942 660 l 738 660 l 738 788 l 978 788 b 1026 838 1010 788 1026 804 l 1026 903 b 981 950 1026 935 1011 950 l 614 950 b 563 910 579 950 563 938 l 563 221 b 599 190 563 200 575 190 l 619 190 b 997 264 721 190 847 215 b 1024 289 1011 267 1021 275 z m 508 574 l 508 904 b 456 950 508 935 490 950 l 113 950 b 67 901 82 950 67 933 l 67 843 b 114 796 67 813 82 796 l 342 796 l 342 675 l 117 675 b 67 632 83 675 67 661 l 67 214 b 104 176 67 189 79 176 b 464 243 253 176 372 199 b 490 288 482 254 490 269 l 490 371 b 456 389 490 397 479 403 b 233 328 388 349 313 328 l 233 524 l 465 524 b 508 574 494 524 508 540 z "},"ㄿ":{"ha":1165,"x_min":0,"x_max":0,"o":"m 593 181 l 1044 181 b 1093 229 1076 181 1093 196 l 1093 300 b 1046 347 1093 332 1076 347 l 1004 347 l 1004 781 l 1051 781 b 1093 822 1079 781 1093 794 l 1093 904 b 1046 951 1093 936 1076 951 l 586 951 b 544 908 558 951 544 938 l 544 824 b 588 781 544 794 558 781 l 631 781 l 631 347 l 590 347 b 544 301 560 347 544 332 l 544 228 b 593 181 544 196 561 181 z m 850 347 l 782 347 l 782 781 l 850 781 z m 513 574 l 513 904 b 458 950 513 935 494 950 l 117 950 b 71 901 86 950 71 933 l 71 843 b 118 796 71 813 86 796 l 346 796 l 346 675 l 121 675 b 71 632 88 675 71 661 l 71 214 b 108 176 71 189 83 176 b 468 243 257 176 376 199 b 494 288 486 254 494 269 l 494 371 b 458 389 494 397 483 403 b 236 328 390 349 317 328 l 236 524 l 469 524 b 513 574 497 524 513 540 z "},"ㅀ":{"ha":1157,"x_min":0,"x_max":0,"o":"m 824 179 b 1060 403 981 179 1060 253 b 1015 597 1060 493 1044 558 l 1039 597 b 1092 647 1074 597 1092 614 l 1092 713 b 1033 769 1092 750 1072 769 l 599 769 b 550 714 567 769 550 751 l 550 649 b 600 597 550 614 567 597 l 631 597 b 581 403 597 557 581 493 b 824 179 581 253 661 179 z m 822 604 b 878 446 860 604 878 551 b 824 322 878 364 860 322 b 767 446 785 322 767 364 b 822 604 767 551 785 604 z m 690 807 l 943 807 b 989 856 974 807 989 822 l 989 918 b 940 967 989 950 972 967 l 689 967 b 643 921 658 967 643 951 l 643 856 b 690 807 643 824 660 807 z m 508 574 l 508 904 b 456 950 508 935 490 950 l 113 950 b 67 901 82 950 67 933 l 67 843 b 114 796 67 813 82 796 l 342 796 l 342 675 l 117 675 b 67 632 83 675 67 661 l 67 214 b 104 176 67 189 79 176 b 464 243 253 176 372 199 b 490 288 482 254 490 269 l 490 371 b 456 389 490 397 479 403 b 233 328 388 349 313 328 l 233 524 l 465 524 b 508 574 494 524 508 540 z "},"ㅁ":{"ha":779,"x_min":0,"x_max":0,"o":"m 707 274 l 707 914 b 657 964 707 947 690 964 l 124 964 b 71 914 89 964 71 947 l 71 197 b 108 167 71 176 83 167 l 128 167 b 681 240 297 167 481 192 b 707 274 699 244 707 256 z m 250 343 l 250 801 l 536 801 l 536 376 b 250 343 431 354 335 343 z "},"ㅂ":{"ha":779,"x_min":0,"x_max":0,"o":"m 707 292 l 707 919 b 658 964 707 949 692 964 l 578 964 b 531 921 546 964 531 950 l 531 786 l 250 786 l 250 918 b 199 964 250 949 232 964 l 119 964 b 71 918 88 964 71 949 l 71 197 b 108 167 71 176 83 167 b 665 233 290 167 476 189 b 707 292 693 240 707 260 z m 250 343 l 250 622 l 531 622 l 531 375 b 250 343 426 354 333 344 z "},"ㅃ":{"ha":951,"x_min":0,"x_max":0,"o":"m 879 292 l 879 924 b 829 964 879 950 863 964 l 754 964 b 701 924 718 964 701 950 l 701 786 l 560 786 l 560 918 b 517 961 558 947 544 961 l 425 961 b 382 917 397 961 382 947 l 382 786 l 250 786 l 250 924 b 206 964 250 950 235 964 l 119 964 b 71 924 88 964 71 950 l 71 197 b 108 167 71 176 83 167 b 843 235 408 167 654 190 b 879 292 868 239 879 257 z m 250 343 l 250 622 l 382 622 l 382 346 z m 560 357 l 560 622 l 701 622 l 701 375 z "},"ㅄ":{"ha":1165,"x_min":0,"x_max":0,"o":"m 546 292 l 546 922 b 493 964 546 950 528 964 l 422 964 b 369 924 386 964 369 950 l 369 786 l 246 786 l 246 924 b 193 964 246 950 228 964 l 118 964 b 65 924 83 964 65 950 l 65 197 b 104 167 65 176 78 167 b 504 233 247 168 381 190 b 546 292 532 240 546 260 z m 246 343 l 246 622 l 369 622 l 369 375 b 246 343 332 356 290 344 z m 854 826 l 871 918 b 860 957 875 938 871 951 b 819 967 849 964 836 967 l 747 967 b 693 917 725 968 707 951 b 585 213 631 764 594 529 b 635 182 585 192 601 182 l 708 182 b 763 233 744 182 763 199 b 817 667 767 396 785 542 b 915 222 892 608 925 460 b 968 182 915 196 933 182 l 1043 182 b 1096 233 1079 182 1096 199 b 854 826 1099 571 1018 769 z "},"ㅅ":{"ha":719,"x_min":0,"x_max":0,"o":"m 322 826 l 338 918 b 328 957 342 938 339 951 b 288 967 317 964 303 967 l 215 967 b 161 917 193 968 175 951 b 51 213 97 764 61 529 b 104 182 51 192 69 182 l 178 182 b 232 233 214 182 232 199 b 283 667 235 396 251 542 b 482 222 425 608 492 460 b 536 182 482 196 500 182 l 610 182 b 661 233 646 182 663 199 b 322 826 665 571 551 769 z "},"ㅆ":{"ha":993,"x_min":0,"x_max":0,"o":"m 658 826 l 672 922 b 638 967 678 951 665 967 l 563 967 b 510 917 540 967 522 950 b 457 703 489 857 471 786 b 308 826 429 764 379 806 l 322 918 b 288 967 329 950 318 967 l 201 967 b 151 917 179 968 163 951 b 60 213 97 764 67 529 b 104 182 60 192 74 182 l 186 182 b 232 233 217 182 232 199 b 276 667 231 396 246 542 b 418 213 371 613 418 461 b 458 182 418 192 431 182 l 538 182 b 583 233 568 185 583 201 l 583 281 b 626 667 589 425 603 554 b 747 222 714 608 754 460 b 790 182 746 196 761 182 l 881 182 b 928 233 911 182 928 199 b 658 826 931 571 840 769 z "},"ㅇ":{"ha":860,"x_min":0,"x_max":0,"o":"m 429 957 b 58 564 182 957 58 826 b 429 172 58 303 182 172 b 799 564 675 172 799 303 b 429 957 800 826 676 957 z m 429 310 b 221 564 290 310 221 394 b 429 817 221 732 292 817 b 639 564 569 818 639 733 b 429 310 639 394 569 310 z "},"ㅈ":{"ha":800,"x_min":0,"x_max":0,"o":"m 378 732 l 390 793 l 689 793 b 732 832 718 793 732 806 l 732 911 b 694 950 732 936 719 950 l 107 950 b 67 910 81 950 67 936 l 67 831 b 104 793 67 806 79 793 l 206 793 b 110 228 150 643 118 454 b 157 182 108 197 124 182 l 239 182 b 288 233 271 182 288 199 b 342 572 292 360 310 474 b 540 228 482 514 549 399 b 586 182 539 197 554 182 l 667 182 b 719 229 700 182 718 197 b 378 732 722 507 608 675 z "},"ㅉ":{"ha":1024,"x_min":0,"x_max":0,"o":"m 861 950 l 119 950 b 79 906 92 950 79 936 l 79 833 b 119 790 79 806 92 790 l 240 790 b 79 226 226 574 172 386 b 71 196 69 215 67 206 b 97 182 75 188 85 182 l 204 182 b 276 217 236 182 260 193 b 392 597 328 326 367 453 b 493 588 429 596 463 593 b 358 226 465 454 421 333 b 350 196 349 215 346 206 b 376 182 354 188 363 182 l 483 182 b 557 217 515 182 540 193 b 654 514 597 306 629 404 b 718 222 721 453 743 356 b 749 182 711 196 721 182 l 857 182 b 907 222 883 182 900 196 b 688 706 942 469 868 631 l 699 790 l 861 790 b 910 838 894 790 910 806 l 910 906 b 861 950 910 936 893 950 z m 415 754 l 418 790 l 519 790 l 518 747 b 415 754 485 751 450 754 z "},"ㅊ":{"ha":776,"x_min":0,"x_max":0,"o":"m 367 732 l 378 793 l 682 793 b 719 832 707 793 719 806 l 719 911 b 682 950 719 936 707 950 l 428 950 l 428 1018 b 388 1053 428 1042 414 1053 l 282 1053 b 242 1018 256 1053 242 1042 l 242 950 l 92 950 b 54 910 67 950 54 936 l 54 831 b 92 793 54 806 67 793 l 193 793 b 97 213 138 643 106 450 b 149 182 97 192 115 182 l 222 182 b 275 233 257 182 275 199 b 329 572 279 360 297 474 b 529 222 469 514 536 397 b 581 182 529 196 546 182 l 654 182 b 707 233 690 182 707 199 b 367 732 710 508 597 675 z "},"ㅋ":{"ha":796,"x_min":0,"x_max":0,"o":"m 63 621 l 63 542 b 99 504 63 517 75 504 l 464 504 b 288 238 422 406 364 317 b 272 199 272 226 268 214 b 317 181 275 188 290 181 l 394 181 b 464 190 426 179 450 183 b 594 382 479 199 522 263 b 742 903 667 501 715 675 b 711 950 744 933 735 950 l 86 950 b 50 910 63 950 50 936 l 50 831 b 86 793 50 806 63 793 l 510 793 b 532 764 528 793 535 783 b 515 660 528 728 522 693 l 99 660 b 63 621 75 660 63 647 z "},"ㅌ":{"ha":782,"x_min":0,"x_max":0,"o":"m 715 275 l 715 390 b 689 411 715 407 707 414 b 242 343 515 365 367 343 l 242 504 l 601 504 b 644 543 631 504 644 517 l 644 619 b 600 660 646 647 631 660 l 242 660 l 242 801 l 665 801 b 715 850 699 801 715 818 l 715 914 b 667 964 715 947 699 964 l 118 964 b 67 915 83 964 67 947 l 67 203 b 104 167 67 178 79 167 l 124 167 b 689 240 293 167 481 192 b 715 275 707 244 715 256 z "},"ㅍ":{"ha":892,"x_min":0,"x_max":0,"o":"m 113 167 l 774 167 b 819 213 804 167 819 182 l 819 286 b 772 333 817 318 801 333 l 689 333 l 689 794 l 775 794 b 819 836 804 794 819 808 l 819 918 b 772 965 819 950 803 965 l 115 965 b 72 918 86 965 72 950 l 72 838 b 117 794 72 808 88 794 l 200 794 l 200 333 l 118 333 b 72 288 88 333 72 318 l 72 214 b 113 167 72 182 86 167 z m 515 333 l 374 333 l 374 794 l 515 794 z "},"ㅎ":{"ha":818,"x_min":0,"x_max":0,"o":"m 411 151 b 706 403 607 151 706 235 b 660 597 706 493 690 558 l 719 597 b 765 642 747 597 763 613 l 765 717 b 708 769 765 751 746 769 l 101 769 b 53 715 69 769 53 751 l 53 649 b 99 597 53 614 68 597 l 161 597 b 113 403 129 557 113 493 b 411 151 113 235 213 151 z m 408 604 b 524 446 485 604 524 551 b 410 294 524 346 485 294 b 297 446 335 294 297 346 b 408 604 297 551 335 604 z m 222 807 l 592 807 b 633 856 619 807 633 822 l 633 918 b 585 967 633 951 617 968 l 222 967 b 174 918 189 967 174 950 l 174 857 b 222 807 174 824 189 807 z "},"ㅏ":{"ha":401,"x_min":0,"x_max":0,"o":"m 307 804 l 229 804 l 229 1068 b 185 1114 229 1099 214 1114 l 92 1114 b 50 1074 64 1114 50 1100 l 50 32 b 97 -10 50 4 65 -10 l 182 -10 b 229 38 214 -10 229 7 l 229 629 l 306 629 b 351 669 336 629 351 642 l 351 763 b 307 804 351 790 336 804 z "},"ㅐ":{"ha":544,"x_min":0,"x_max":0,"o":"m 471 38 l 471 1072 b 425 1114 471 1100 456 1114 l 347 1114 b 300 1067 317 1114 300 1097 l 300 804 l 239 804 l 239 1072 b 193 1114 239 1100 224 1114 l 119 1114 b 72 1067 88 1114 72 1097 l 72 32 b 121 -10 72 4 89 -10 l 189 -10 b 240 38 222 -10 240 7 l 240 626 l 300 626 l 300 38 b 350 -10 300 7 317 -10 l 422 -10 b 471 38 454 -10 471 7 z "},"ㅑ":{"ha":407,"x_min":0,"x_max":0,"o":"m 310 885 l 233 885 l 233 1072 b 186 1114 233 1100 218 1114 l 94 1114 b 51 1069 67 1114 51 1099 l 51 32 b 97 -10 51 4 67 -10 l 186 -10 b 233 32 218 -10 233 4 l 233 504 l 308 504 b 354 544 339 504 354 518 l 354 618 b 307 660 354 646 339 660 l 233 660 l 233 731 l 308 731 b 354 771 339 731 354 743 l 354 843 b 310 885 354 871 339 885 z "},"ㅒ":{"ha":556,"x_min":0,"x_max":0,"o":"m 482 38 l 482 1068 b 435 1114 482 1099 465 1114 l 361 1114 b 314 1067 329 1114 314 1097 l 314 818 l 240 818 l 240 1068 b 193 1114 240 1099 224 1114 l 119 1114 b 72 1067 88 1114 72 1097 l 72 35 b 121 -10 72 6 89 -10 l 192 -10 b 240 38 224 -10 240 7 l 240 382 l 314 382 l 314 33 b 364 -10 314 6 331 -10 l 431 -10 b 482 38 465 -10 482 7 z m 314 560 l 240 560 l 240 640 l 314 640 z "},"ㅓ":{"ha":431,"x_min":0,"x_max":0,"o":"m 201 1065 l 201 804 l 93 804 b 50 763 64 804 50 790 l 50 667 b 93 626 50 640 64 626 l 201 626 l 201 32 b 247 -10 201 4 217 -10 l 335 -10 b 382 33 365 -10 382 6 l 382 1074 b 338 1114 382 1100 367 1114 l 247 1114 b 201 1065 217 1114 201 1097 z "},"ㅔ":{"ha":642,"x_min":0,"x_max":0,"o":"m 207 1068 l 207 804 l 99 804 b 54 763 69 804 54 790 l 54 667 b 99 626 54 640 69 626 l 207 626 l 207 32 b 253 -10 207 4 222 -10 l 326 -10 b 371 33 357 -10 371 6 l 371 1074 b 329 1114 371 1100 357 1114 l 253 1114 b 207 1068 222 1114 207 1099 z m 418 1068 l 418 32 b 465 -10 418 4 435 -10 l 538 -10 b 585 33 569 -10 585 6 l 585 1074 b 542 1114 585 1100 571 1114 l 465 1114 b 418 1068 435 1114 418 1099 z "},"ㅕ":{"ha":429,"x_min":0,"x_max":0,"o":"m 210 1071 l 210 831 l 86 831 b 50 790 63 831 50 817 l 50 729 b 92 685 50 700 64 685 l 210 685 l 210 632 l 86 632 b 50 593 63 632 50 619 l 50 524 b 92 478 50 493 64 478 l 210 478 l 210 39 b 264 -10 210 7 228 -10 l 326 -10 b 378 40 361 -10 378 7 l 378 1074 b 333 1114 378 1100 363 1114 l 256 1114 b 210 1071 225 1114 210 1100 z "},"ㅖ":{"ha":617,"x_min":0,"x_max":0,"o":"m 215 1074 l 215 831 l 92 831 b 57 790 68 831 57 817 l 57 729 b 97 685 57 700 69 685 l 215 685 l 215 632 l 92 632 b 57 593 68 632 57 619 l 57 524 b 97 478 57 493 69 478 l 215 478 l 215 39 b 269 -10 215 7 233 -10 l 317 -10 b 369 40 351 -10 369 7 l 369 1074 b 324 1114 369 1100 354 1114 l 264 1114 b 215 1074 231 1114 215 1100 z m 407 1074 l 408 39 b 458 -10 408 7 425 -10 l 508 -10 b 560 40 543 -10 560 7 l 560 1074 b 515 1114 560 1100 546 1114 l 454 1114 b 407 1074 424 1114 407 1100 z "},"ㅗ":{"ha":933,"x_min":0,"x_max":0,"o":"m 376 317 l 376 158 l 101 158 b 47 108 65 158 47 142 l 47 42 b 99 -10 47 7 64 -10 l 844 -10 b 886 32 872 -10 886 4 l 886 114 b 833 158 886 143 869 158 l 553 158 l 553 317 b 513 358 553 344 540 358 l 415 358 b 376 317 388 358 375 344 z "},"ㅘ":{"ha":989,"x_min":0,"x_max":0,"o":"m 314 583 l 211 583 b 171 544 185 583 171 571 l 171 199 l 86 199 b 43 156 57 199 43 185 l 43 74 b 81 33 43 47 56 33 l 660 33 l 660 25 b 706 -10 660 3 675 -8 l 792 -10 b 833 33 819 -7 833 7 l 833 581 l 908 581 b 947 614 935 581 947 592 l 947 728 b 908 761 947 750 935 761 l 835 761 l 835 1076 b 782 1114 835 1101 817 1114 l 707 1114 b 660 1074 675 1114 660 1100 l 660 199 l 347 199 l 347 547 b 314 583 347 571 336 583 z "},"ㅙ":{"ha":1075,"x_min":0,"x_max":0,"o":"m 829 33 l 829 581 l 863 581 l 863 32 b 904 -10 863 6 876 -8 l 981 -10 b 1022 33 1008 -7 1022 7 l 1022 1076 b 971 1114 1022 1101 1006 1114 l 911 1114 b 863 1074 879 1114 863 1100 l 863 761 l 829 761 l 829 1076 b 776 1114 829 1101 811 1114 l 718 1114 b 668 1074 685 1114 668 1100 l 668 199 l 357 199 l 357 546 b 317 583 357 571 343 583 l 222 583 b 181 543 194 583 181 571 l 181 199 l 94 199 b 51 156 67 199 51 185 l 51 74 b 90 33 51 47 64 33 l 668 33 l 668 25 b 714 -10 668 3 683 -8 l 786 -10 b 829 33 815 -7 829 7 z "},"ㅚ":{"ha":889,"x_min":0,"x_max":0,"o":"m 321 583 l 218 583 b 178 544 192 583 178 571 l 178 199 l 92 199 b 50 156 64 199 50 185 l 50 74 b 86 33 50 47 63 33 l 667 33 l 667 25 b 713 -10 667 3 682 -8 l 799 -10 b 840 33 826 -7 840 7 l 840 1076 b 788 1114 840 1101 822 1114 l 714 1114 b 667 1074 682 1114 667 1100 l 667 199 l 354 199 l 354 547 b 321 583 354 571 343 583 z "},"ㅛ":{"ha":982,"x_min":0,"x_max":0,"o":"m 94 -10 l 876 -10 b 929 40 911 -10 929 7 l 929 108 b 876 158 929 140 911 157 l 688 158 l 688 328 b 644 368 688 353 674 367 l 574 368 b 526 331 542 369 526 357 l 526 158 l 458 158 l 458 328 b 417 368 458 353 444 367 l 346 368 b 299 331 315 369 299 357 l 299 158 l 94 158 b 53 118 67 158 53 144 l 53 35 b 94 -10 53 6 67 -10 z "},"ㅜ":{"ha":932,"x_min":0,"x_max":0,"o":"m 557 32 l 557 190 l 831 190 b 885 239 867 190 885 207 l 885 307 b 833 358 885 342 868 358 l 88 358 b 46 317 60 358 46 344 l 46 235 b 99 190 46 206 64 190 l 381 190 l 381 32 b 421 -10 379 4 392 -10 l 518 -10 b 557 32 544 -10 557 4 z "},"ㅝ":{"ha":949,"x_min":0,"x_max":0,"o":"m 860 1114 l 767 1114 b 722 1074 738 1114 722 1100 l 722 483 l 92 483 b 47 446 63 483 47 469 l 47 357 b 81 321 47 332 58 321 l 206 321 l 206 28 b 240 -10 206 3 218 -10 l 349 -10 b 382 26 371 -10 382 1 l 382 321 l 722 321 l 722 260 l 496 260 b 456 221 469 260 456 247 l 456 158 b 496 121 456 133 469 121 l 722 121 l 722 32 b 763 -10 722 4 736 -10 l 861 -10 b 900 32 888 -10 900 4 l 900 1074 b 860 1114 900 1100 886 1114 z "},"ㅞ":{"ha":1150,"x_min":0,"x_max":0,"o":"m 857 1114 l 779 1114 b 735 1074 749 1114 735 1100 l 735 483 l 93 483 b 50 446 65 483 50 469 l 50 357 b 83 321 50 332 61 321 l 218 321 l 218 24 b 249 -10 218 1 228 -10 l 368 -10 b 401 25 390 -10 401 1 l 401 321 l 735 321 l 735 260 l 508 260 b 468 221 482 260 468 247 l 468 158 b 500 121 468 133 479 121 l 735 121 l 735 32 b 776 -10 735 4 749 -10 l 861 -10 b 897 32 885 -10 897 4 l 897 1074 b 857 1114 897 1100 885 1114 z m 1099 38 l 1099 1074 b 1053 1114 1099 1100 1083 1114 l 985 1114 b 939 1072 956 1114 940 1100 l 939 32 b 989 -10 940 4 957 -10 l 1050 -10 b 1099 38 1082 -10 1099 7 z "},"ㅟ":{"ha":947,"x_min":0,"x_max":0,"o":"m 860 1114 l 767 1114 b 722 1074 738 1114 722 1100 l 722 363 l 92 363 b 47 324 63 361 47 349 l 47 235 b 81 199 47 211 58 199 l 206 199 l 206 28 b 240 -10 206 3 218 -10 l 349 -10 b 382 26 371 -10 382 1 l 382 199 l 722 199 l 722 32 b 763 -10 722 4 736 -10 l 861 -10 b 900 32 888 -10 900 4 l 900 1074 b 860 1114 900 1100 886 1114 z "},"ㅠ":{"ha":935,"x_min":0,"x_max":0,"o":"m 672 26 l 672 194 l 832 194 b 881 246 865 194 881 211 l 881 311 b 832 364 881 344 865 361 l 104 364 b 53 318 69 364 53 349 l 53 238 b 104 194 53 208 69 194 l 258 194 l 258 28 b 297 -12 258 1 271 -12 l 394 -12 b 432 28 419 -12 432 1 l 432 194 l 500 194 l 500 26 b 538 -14 500 0 513 -14 l 635 -14 b 672 26 660 -14 672 0 z "},"ㅡ":{"ha":1021,"x_min":0,"x_max":0,"o":"m 897 150 l 115 150 b 72 101 86 150 72 133 l 72 40 b 115 -10 72 7 86 -10 l 897 -10 b 950 40 932 -8 950 8 l 950 101 b 897 150 950 133 932 150 z "},"ㅢ":{"ha":957,"x_min":0,"x_max":0,"o":"m 868 1114 l 772 1114 b 726 1067 742 1114 726 1097 l 726 238 l 90 238 b 46 200 61 238 46 225 l 46 104 b 81 68 46 79 58 68 l 726 68 l 726 32 b 768 -10 726 4 740 -10 l 871 -10 b 910 32 897 -10 910 4 l 910 1074 b 868 1114 910 1100 896 1114 z "},"ㅣ":{"ha":328,"x_min":0,"x_max":0,"o":"m 254 33 l 254 1069 b 206 1114 254 1099 238 1114 l 121 1114 b 74 1068 89 1114 74 1099 l 74 33 b 121 -10 74 6 89 -10 l 206 -10 b 254 33 238 -10 254 6 z "},"ㆍ":{"ha":332,"x_min":0,"x_max":0,"o":"m 269 547 b 246 625 268 586 260 613 b 165 647 233 639 206 646 b 85 624 125 646 97 639 b 61 547 71 610 63 583 b 85 471 63 510 71 483 b 165 446 99 457 125 450 b 244 469 203 450 229 457 b 269 547 260 483 268 508 z "},"㎎":{"ha":1540,"x_min":0,"x_max":0,"o":"m 614 738 b 456 690 551 738 499 722 b 340 738 435 722 397 738 b 236 669 297 738 264 715 l 236 703 b 194 738 236 725 222 736 l 104 738 b 61 704 75 738 61 726 l 61 28 b 104 -18 60 -1 74 -17 l 196 -18 b 236 24 222 -18 236 -4 l 236 500 b 304 589 236 560 258 589 b 371 510 350 588 372 561 l 371 21 b 411 -18 372 -6 386 -19 l 475 -18 b 517 24 503 -19 517 -6 l 517 511 b 579 589 517 561 538 588 b 640 510 619 589 639 563 l 640 21 b 679 -18 640 -6 654 -19 l 775 -18 b 819 24 804 -19 819 -6 l 819 542 b 614 738 819 672 751 738 z m 1450 740 l 1346 740 b 1311 699 1324 742 1313 728 b 1154 740 1274 726 1221 740 b 861 382 958 740 860 621 b 1143 -22 860 113 954 -22 b 1311 63 1199 -22 1256 6 l 1311 0 b 1172 -121 1311 -81 1265 -121 b 1015 -92 1096 -121 1043 -111 b 961 -92 996 -79 978 -79 l 875 -164 b 878 -211 858 -179 858 -194 b 1183 -283 939 -260 1042 -283 b 1481 0 1381 -283 1479 -189 l 1481 707 b 1450 740 1481 729 1471 740 z m 1153 136 b 1042 379 1078 144 1040 226 b 1168 583 1042 510 1083 578 b 1306 494 1233 586 1279 557 l 1306 238 b 1153 136 1275 169 1225 136 z "},"㎏":{"ha":1311,"x_min":0,"x_max":0,"o":"m 228 486 l 229 886 b 185 928 229 914 214 928 l 104 928 b 53 879 69 928 53 913 l 53 29 b 104 -19 53 -3 69 -19 l 181 -19 b 228 22 213 -19 228 -6 l 228 232 b 449 22 376 206 450 136 b 499 -19 449 -6 465 -19 l 576 -19 b 626 22 610 -19 626 -6 b 354 369 626 175 536 290 b 606 693 482 444 567 551 b 564 736 613 721 599 736 l 465 736 b 408 696 429 736 410 722 b 228 486 392 594 332 524 z m 1229 740 l 1122 740 b 1090 699 1101 742 1090 728 b 932 740 1051 726 999 740 b 639 382 736 740 639 621 b 921 -22 639 113 732 -22 b 1090 63 978 -22 1033 6 l 1090 0 b 950 -121 1090 -81 1043 -121 b 792 -92 874 -121 821 -111 b 738 -92 772 -79 754 -79 l 653 -164 b 654 -211 635 -179 636 -194 b 961 -283 717 -260 819 -283 b 1258 0 1158 -283 1258 -189 l 1258 707 b 1229 740 1258 729 1249 740 z m 931 136 b 819 379 854 144 818 226 b 947 583 819 510 861 578 b 1083 494 1011 586 1057 557 l 1083 238 b 931 136 1053 169 1001 136 z "},"㎞":{"ha":1510,"x_min":0,"x_max":0,"o":"m 233 486 l 235 886 b 189 928 235 914 219 928 l 110 928 b 58 879 76 928 58 913 l 58 29 b 110 -19 58 -3 76 -19 l 186 -19 b 233 22 218 -19 233 -6 l 233 232 b 454 22 351 206 425 136 b 504 -19 463 -6 479 -19 l 593 -19 b 632 22 626 -19 640 -6 b 360 369 603 175 511 290 b 611 693 458 444 542 551 b 581 736 625 721 615 736 l 475 736 b 414 696 446 736 425 722 b 233 486 368 594 307 524 z m 1246 738 b 1086 690 1183 738 1131 722 b 969 738 1067 722 1028 738 b 868 669 929 738 894 715 l 868 703 b 826 738 868 725 854 736 l 735 738 b 693 704 707 738 693 726 l 693 28 b 733 -18 692 -1 706 -17 l 826 -18 b 868 24 854 -18 868 -4 l 868 500 b 935 589 868 560 890 589 b 1004 510 982 588 1004 561 l 1004 21 b 1043 -18 1004 -6 1018 -19 l 1104 -18 b 1147 24 1133 -19 1147 -6 l 1147 511 b 1211 589 1149 561 1169 588 b 1271 510 1250 589 1269 563 l 1271 21 b 1310 -18 1272 -6 1285 -19 l 1407 -18 b 1449 24 1435 -19 1449 -6 l 1449 542 b 1246 738 1450 672 1382 738 z "},"㎢":{"ha":1796,"x_min":0,"x_max":0,"o":"m 233 886 l 232 486 b 411 696 335 524 394 594 b 469 736 413 722 432 736 l 565 736 b 607 693 601 736 615 721 b 357 369 569 551 486 444 b 631 22 539 290 631 175 b 578 -19 631 -6 613 -19 l 501 -19 b 451 22 468 -19 451 -6 b 232 232 451 136 379 206 l 232 22 b 182 -19 232 -6 215 -19 l 107 -19 b 57 29 74 -19 57 -3 l 57 879 b 107 928 57 913 74 928 l 186 928 b 233 886 218 928 233 914 z m 1242 738 b 1447 542 1379 738 1447 672 l 1447 24 b 1404 -18 1447 -6 1432 -19 l 1307 -18 b 1268 21 1282 -19 1268 -6 l 1268 510 b 1207 589 1267 563 1247 589 b 1146 511 1167 588 1146 561 l 1146 24 b 1103 -18 1146 -6 1131 -19 l 1039 -18 b 1001 21 1015 -19 1001 -6 l 1001 510 b 932 589 1001 561 979 588 b 867 500 888 589 867 560 l 867 24 b 824 -18 867 -4 851 -18 l 732 -18 b 690 28 703 -17 689 -1 l 690 704 b 732 738 690 726 704 738 l 822 738 b 867 703 851 736 867 725 l 867 669 b 968 738 892 715 925 738 b 1083 690 1025 738 1063 722 b 1242 738 1128 722 1181 738 z m 1485 682 l 1711 682 b 1732 701 1725 682 1732 689 l 1732 738 b 1710 756 1732 750 1724 756 l 1557 756 l 1624 804 b 1690 854 1646 819 1668 836 b 1714 882 1700 864 1708 872 b 1729 907 1721 890 1726 899 b 1738 935 1733 915 1736 925 b 1739 968 1739 944 1739 956 l 1739 979 b 1729 1021 1739 993 1736 1007 b 1706 1056 1724 1033 1715 1046 b 1667 1079 1694 1065 1682 1072 b 1619 1088 1653 1085 1636 1088 l 1558 1088 b 1513 1079 1543 1088 1528 1085 b 1475 1056 1499 1072 1486 1065 b 1450 1021 1464 1046 1456 1033 b 1442 979 1444 1007 1442 993 l 1442 958 b 1456 944 1442 950 1446 944 l 1506 944 b 1525 967 1517 944 1524 953 b 1538 994 1525 976 1529 986 b 1576 1006 1546 1001 1558 1006 l 1610 1006 b 1640 994 1621 1006 1631 1001 b 1653 967 1649 986 1653 976 b 1644 929 1653 950 1650 938 b 1617 903 1639 922 1629 913 b 1542 839 1592 879 1567 858 b 1483 801 1522 828 1503 814 b 1451 749 1461 790 1451 774 l 1451 701 b 1485 682 1451 689 1463 682 z "},"가":{"ha":982,"x_min":0,"x_max":0,"o":"m 900 804 l 846 804 l 846 1072 b 803 1113 846 1099 832 1113 l 708 1113 b 667 1074 681 1113 667 1100 l 667 38 b 714 -10 667 6 683 -10 l 801 -10 b 846 40 831 -10 846 7 l 846 629 l 903 629 b 947 676 932 629 947 644 l 947 761 b 900 804 947 790 932 804 z m 396 903 b 97 86 400 560 301 288 b 71 35 74 67 65 49 b 114 13 75 19 90 13 l 178 13 b 268 40 219 13 249 22 b 585 1031 482 243 588 572 b 536 1090 585 1069 568 1090 l 100 1090 b 57 1042 72 1090 57 1074 l 57 974 b 97 928 57 943 71 928 l 369 928 b 396 903 388 928 396 919 z "},"각":{"ha":983,"x_min":0,"x_max":0,"o":"m 108 181 l 710 181 l 710 32 b 750 -8 710 6 724 -8 l 846 -8 b 886 32 874 -8 886 6 l 886 299 b 843 338 886 324 872 338 l 108 338 b 68 296 81 338 68 324 l 68 221 b 108 181 68 193 81 181 z m 907 858 l 849 858 l 849 1072 b 803 1114 849 1100 833 1114 l 710 1114 b 667 1075 681 1114 667 1101 l 667 451 b 711 408 667 422 681 408 l 803 408 b 849 451 833 408 849 422 l 849 683 l 906 683 b 949 725 935 683 949 697 l 949 817 b 907 858 949 844 935 858 z m 549 1092 l 92 1092 b 53 1050 65 1092 53 1078 l 53 971 b 92 932 53 944 65 932 l 344 932 b 367 903 363 932 369 922 b 117 467 358 736 275 592 b 97 425 99 451 93 438 b 139 408 103 414 117 408 l 228 408 b 335 450 267 408 301 422 b 581 1040 489 578 571 775 b 549 1092 583 1074 574 1092 z "},"갂":{"ha":972,"x_min":0,"x_max":0,"o":"m 114 181 l 340 181 l 340 31 b 382 -10 340 4 354 -10 l 476 -10 b 518 31 504 -10 518 4 l 518 181 l 694 181 l 694 31 b 735 -10 694 4 707 -10 l 831 -10 b 871 31 857 -10 871 4 l 871 299 b 826 338 871 324 856 338 l 111 338 b 72 294 85 338 72 324 l 72 221 b 114 181 72 194 86 181 z m 894 858 l 826 858 l 826 1072 b 781 1114 826 1100 811 1114 l 688 1114 b 643 1075 658 1114 643 1101 l 643 451 b 689 408 643 422 658 408 l 779 408 b 826 451 810 408 826 422 l 826 683 l 894 683 b 932 725 919 683 932 697 l 932 817 b 894 858 932 844 919 858 z m 526 1092 l 86 1092 b 47 1050 60 1092 47 1078 l 47 971 b 86 932 47 944 60 932 l 322 932 b 344 903 340 932 347 922 b 117 467 335 738 260 593 b 97 425 99 451 93 438 b 139 408 103 414 117 408 l 228 408 b 321 450 267 408 297 422 b 558 1040 456 578 533 775 b 526 1092 561 1074 550 1092 z "},"갃":{"ha":850,"x_min":0,"x_max":0,"o":""},"간":{"ha":972,"x_min":0,"x_max":0,"o":"m 856 153 l 254 153 l 254 297 b 211 338 254 324 240 338 l 121 338 b 74 293 90 338 74 322 l 74 38 b 125 -10 74 7 92 -10 l 856 -10 b 900 35 885 -10 900 6 l 900 113 b 856 153 900 139 885 153 z m 894 858 l 826 858 l 826 1072 b 781 1114 826 1100 811 1114 l 688 1114 b 643 1075 658 1114 643 1101 l 643 451 b 689 408 643 422 658 408 l 779 408 b 826 451 810 408 826 422 l 826 683 l 894 683 b 932 725 919 683 932 697 l 932 817 b 894 858 932 844 919 858 z m 524 1092 l 92 1092 b 54 1050 67 1092 54 1078 l 54 971 b 92 932 54 944 67 932 l 322 932 b 344 903 340 932 347 922 b 117 467 336 736 260 592 b 97 425 99 451 93 438 b 139 408 103 414 117 408 l 222 408 b 329 450 261 408 296 422 b 554 1040 471 578 546 775 b 524 1092 557 1074 547 1092 z "},"갅":{"ha":850,"x_min":0,"x_max":0,"o":""},"갆":{"ha":850,"x_min":0,"x_max":0,"o":""},"갇":{"ha":972,"x_min":0,"x_max":0,"o":"m 81 364 l 81 42 b 138 -10 81 8 100 -10 l 813 -10 b 861 35 846 -10 861 6 l 861 94 b 814 139 861 124 846 139 l 250 139 l 250 268 l 813 268 b 861 314 846 268 861 283 l 861 369 b 813 417 861 401 846 417 l 139 417 b 81 364 100 417 81 399 z m 894 869 l 826 869 l 826 1071 b 781 1113 826 1099 811 1113 l 688 1113 b 643 1074 658 1113 643 1100 l 643 507 b 689 464 643 479 658 464 l 779 464 b 826 507 810 464 826 479 l 826 694 l 894 694 b 932 736 919 694 932 708 l 932 828 b 894 869 932 856 919 869 z m 526 1092 l 92 1092 b 54 1050 67 1092 54 1078 l 54 971 b 92 932 54 944 67 932 l 322 932 b 344 903 340 932 347 922 b 117 524 335 768 260 642 b 97 482 99 507 93 493 b 139 464 103 471 117 464 l 228 464 b 321 506 267 464 297 478 b 558 1040 456 619 533 797 b 526 1092 561 1074 550 1092 z "},"갈":{"ha":961,"x_min":0,"x_max":0,"o":"m 844 121 l 242 121 l 242 163 l 847 163 b 885 196 872 163 885 174 l 885 396 b 842 435 885 422 869 435 l 104 435 b 63 394 76 435 63 422 l 63 349 b 104 307 63 321 76 307 l 707 307 l 707 268 l 104 268 b 63 228 76 268 63 254 l 63 32 b 106 -10 63 4 78 -10 l 847 -10 b 885 26 872 -10 885 3 l 885 86 b 844 121 885 110 871 121 z m 889 886 l 826 886 l 826 1071 b 781 1113 826 1099 811 1113 l 688 1113 b 643 1074 658 1113 643 1100 l 643 529 b 689 488 643 501 658 488 l 779 488 b 826 529 810 488 826 501 l 826 711 l 889 711 b 926 754 914 711 926 725 l 926 844 b 889 886 926 872 914 886 z m 526 1092 l 92 1092 b 53 1050 65 1092 53 1078 l 53 971 b 92 932 53 944 65 932 l 322 932 b 344 903 340 932 347 922 b 117 546 335 768 260 649 b 97 504 99 529 93 517 b 139 488 103 493 117 488 l 228 488 b 331 526 267 488 301 500 b 558 1040 474 642 549 813 b 526 1092 561 1074 550 1092 z "},"갉":{"ha":972,"x_min":0,"x_max":0,"o":"m 560 289 l 739 289 l 739 31 b 779 -10 739 4 753 -10 l 861 -10 b 903 31 889 -10 903 4 l 903 393 b 860 432 903 418 888 432 l 560 432 b 519 394 533 432 519 419 l 519 328 b 560 289 519 301 533 289 z m 442 121 l 239 121 l 239 161 l 442 161 b 482 194 468 161 482 172 l 482 393 b 431 432 482 418 465 432 l 117 432 b 78 389 90 432 78 418 l 78 342 b 117 304 78 317 90 304 l 314 304 l 314 264 l 115 264 b 78 226 90 264 78 251 l 78 31 b 117 -10 78 4 90 -10 l 442 -10 b 482 31 468 -10 482 4 l 482 89 b 442 121 482 111 468 121 z m 894 886 l 826 886 l 826 1071 b 781 1113 826 1099 811 1113 l 688 1113 b 643 1074 658 1113 643 1100 l 643 529 b 689 488 643 501 658 488 l 779 488 b 826 529 810 488 826 501 l 826 711 l 894 711 b 932 754 919 711 932 725 l 932 844 b 894 886 932 872 919 886 z m 526 1092 l 92 1092 b 54 1050 67 1092 54 1078 l 54 971 b 92 932 54 944 67 932 l 322 932 b 344 903 340 932 347 922 b 117 546 335 768 260 649 b 97 504 99 529 93 517 b 139 488 103 493 117 488 l 228 488 b 331 526 267 488 301 500 b 558 1040 474 642 549 813 b 526 1092 561 1074 550 1092 z "},"갊":{"ha":972,"x_min":0,"x_max":0,"o":"m 897 38 l 897 389 b 849 432 897 418 881 432 l 557 432 b 507 389 524 432 507 418 l 507 32 b 551 -10 507 4 521 -10 l 849 -10 b 897 38 881 -10 897 7 z m 404 121 l 211 121 l 211 163 l 404 163 b 443 196 431 163 443 174 l 443 390 b 394 432 443 418 426 432 l 104 432 b 64 392 78 432 64 418 l 64 346 b 104 304 64 318 78 304 l 296 304 l 296 267 l 106 267 b 64 224 78 267 64 253 l 64 35 b 110 -10 64 6 79 -10 l 404 -10 b 443 28 431 -10 443 3 l 443 89 b 404 121 443 111 431 121 z m 760 285 l 760 132 l 649 132 l 649 285 z m 894 886 l 826 886 l 826 1072 b 781 1114 826 1100 811 1114 l 688 1114 b 643 1075 658 1114 643 1101 l 643 529 b 689 488 643 501 658 488 l 779 488 b 826 529 810 488 826 501 l 826 711 l 894 711 b 932 754 919 711 932 725 l 932 844 b 894 886 932 872 919 886 z m 526 1092 l 92 1092 b 53 1050 65 1092 53 1078 l 53 971 b 92 932 53 944 65 932 l 322 932 b 344 903 340 932 347 922 b 117 546 335 768 260 649 b 97 504 99 529 93 517 b 139 488 103 493 117 488 l 228 488 b 331 526 267 488 301 500 b 558 1040 474 642 549 813 b 526 1092 561 1074 550 1092 z "},"갋":{"ha":972,"x_min":0,"x_max":0,"o":"m 411 121 l 213 121 l 213 163 l 411 163 b 450 196 438 163 450 174 l 450 390 b 400 432 450 418 433 432 l 106 432 b 65 392 79 432 65 418 l 65 346 b 104 304 65 318 78 304 l 303 304 l 303 267 l 107 267 b 65 224 79 267 65 253 l 65 35 b 111 -10 65 6 81 -10 l 411 -10 b 450 28 438 -10 450 3 l 450 89 b 411 121 450 111 438 121 z m 913 32 l 913 392 b 869 431 913 418 899 431 l 804 431 b 764 392 778 431 764 418 l 764 335 l 642 335 l 642 392 b 601 431 642 418 628 431 l 533 431 b 493 392 507 431 493 418 l 493 32 b 536 -10 493 4 507 -10 l 872 -10 b 913 32 899 -8 913 6 z m 764 201 l 764 124 l 643 124 l 643 201 z m 894 886 l 826 886 l 826 1071 b 781 1113 826 1099 811 1113 l 688 1113 b 643 1074 658 1113 643 1100 l 643 529 b 689 488 643 501 658 488 l 779 488 b 826 529 810 488 826 501 l 826 711 l 894 711 b 932 754 919 711 932 725 l 932 844 b 894 886 932 872 919 886 z m 526 1092 l 92 1092 b 53 1050 65 1092 53 1078 l 53 971 b 92 932 53 944 65 932 l 322 932 b 344 903 340 932 347 922 b 117 546 335 768 260 649 b 97 504 99 529 93 517 b 139 488 103 493 117 488 l 228 488 b 331 526 267 488 301 500 b 558 1040 474 642 549 813 b 526 1092 561 1074 550 1092 z "},"갌":{"ha":850,"x_min":0,"x_max":0,"o":""},"갍":{"ha":850,"x_min":0,"x_max":0,"o":""},"갎":{"ha":850,"x_min":0,"x_max":0,"o":""},"갏":{"ha":850,"x_min":0,"x_max":0,"o":""},"감":{"ha":972,"x_min":0,"x_max":0,"o":"m 869 38 l 869 371 b 818 421 869 404 853 421 l 138 421 b 85 371 101 421 85 404 l 85 38 b 135 -10 85 7 101 -10 l 818 -10 b 869 38 853 -10 869 7 z m 701 275 l 701 135 l 253 135 l 253 275 z m 894 886 l 826 886 l 826 1071 b 781 1113 826 1099 811 1113 l 688 1113 b 643 1074 658 1113 643 1100 l 643 529 b 689 488 643 501 658 488 l 779 488 b 826 529 810 488 826 501 l 826 711 l 894 711 b 932 754 919 711 932 725 l 932 844 b 894 886 932 872 919 886 z m 526 1092 l 92 1092 b 54 1050 67 1092 54 1078 l 54 971 b 92 932 54 944 67 932 l 322 932 b 344 903 340 932 347 922 b 117 546 335 768 260 649 b 97 504 99 529 93 517 b 139 488 103 493 117 488 l 228 488 b 331 526 267 488 301 500 b 558 1040 474 642 549 813 b 526 1092 561 1074 550 1092 z "},"갑":{"ha":972,"x_min":0,"x_max":0,"o":"m 885 33 l 885 388 b 835 429 885 415 868 429 l 754 429 b 711 386 725 429 711 415 l 711 331 l 264 331 l 264 386 b 217 429 264 415 247 429 l 135 429 b 88 386 104 429 88 415 l 88 33 b 135 -10 88 4 104 -10 l 835 -10 b 885 33 868 -10 885 4 z m 264 201 l 711 201 l 711 132 l 264 132 z m 885 886 l 826 886 l 826 1071 b 781 1113 826 1099 811 1113 l 688 1113 b 643 1074 658 1113 643 1100 l 643 529 b 689 488 643 501 658 488 l 779 488 b 826 529 810 488 826 501 l 826 711 l 885 711 b 921 754 908 711 921 725 l 921 844 b 885 886 921 872 908 886 z m 526 1092 l 93 1092 b 56 1050 68 1092 56 1078 l 56 971 b 93 932 56 944 68 932 l 322 932 b 344 903 340 932 347 922 b 117 546 335 768 260 649 b 97 504 99 529 93 517 b 139 488 103 493 117 488 l 228 488 b 331 526 267 488 301 500 b 558 1040 474 642 549 813 b 526 1092 561 1074 550 1092 z "},"값":{"ha":972,"x_min":0,"x_max":0,"o":"m 471 26 l 471 403 b 428 436 471 425 456 436 l 358 436 b 319 401 332 436 319 425 l 319 331 l 221 331 l 221 401 b 181 436 221 425 207 436 l 106 436 b 67 399 79 436 67 424 l 67 26 b 106 -10 67 1 79 -10 l 426 -10 b 471 26 456 -10 471 1 z m 221 204 l 319 204 l 319 126 l 221 126 z m 921 17 b 728 382 940 253 876 374 l 738 406 b 704 436 744 426 735 436 l 629 436 b 583 403 607 436 592 425 b 504 22 536 292 510 165 b 538 -10 501 0 513 -10 l 622 -10 b 657 19 646 -10 657 0 b 693 243 658 101 671 176 b 776 21 760 239 788 165 b 806 -10 775 0 785 -10 l 889 -10 b 921 17 908 -10 919 -1 z m 883 886 l 826 886 l 826 1071 b 781 1113 826 1099 811 1113 l 688 1113 b 643 1074 658 1113 643 1100 l 643 529 b 689 488 643 501 658 488 l 779 488 b 826 529 810 488 826 501 l 826 711 l 883 711 b 921 754 908 711 921 725 l 921 844 b 883 886 921 872 908 886 z m 526 1092 l 92 1092 b 54 1050 67 1092 54 1078 l 54 971 b 92 932 54 944 67 932 l 322 932 b 344 903 340 932 347 922 b 117 546 335 768 260 649 b 97 504 99 529 93 517 b 139 488 103 493 117 488 l 228 488 b 331 526 267 488 301 500 b 558 1040 474 642 549 813 b 526 1092 561 1074 550 1092 z "},"갓":{"ha":974,"x_min":0,"x_max":0,"o":"m 726 -10 l 858 -10 b 889 26 879 -10 889 3 b 508 385 915 268 789 388 l 513 406 b 483 433 515 424 506 433 l 369 433 b 329 399 342 433 329 421 b 97 17 314 285 236 157 b 90 -1 90 10 88 3 b 113 -10 93 -7 100 -10 l 265 -10 b 311 10 281 -10 296 -3 b 476 244 378 69 433 149 b 693 28 649 251 719 179 b 726 -10 692 3 703 -10 z m 894 886 l 826 886 l 826 1071 b 781 1113 826 1099 811 1113 l 688 1113 b 643 1074 658 1113 643 1100 l 643 529 b 689 488 643 501 658 488 l 779 488 b 826 529 810 488 826 501 l 826 711 l 894 711 b 932 754 919 711 932 725 l 932 844 b 894 886 932 872 919 886 z m 526 1092 l 90 1092 b 51 1050 64 1092 51 1078 l 51 971 b 90 932 51 944 64 932 l 322 932 b 344 903 340 932 347 922 b 117 546 335 768 260 649 b 97 504 99 529 93 517 b 139 488 103 493 117 488 l 228 488 b 331 526 267 488 301 500 b 558 1040 474 642 549 813 b 526 1092 561 1074 550 1092 z "},"갔":{"ha":972,"x_min":0,"x_max":0,"o":"m 756 36 b 797 -10 753 6 767 -10 l 878 -10 b 921 32 904 -10 918 4 b 678 369 936 240 856 353 b 644 417 697 400 686 417 l 571 417 b 504 378 544 417 522 403 b 471 314 492 358 481 338 b 340 368 435 347 392 365 b 310 417 363 400 351 417 l 235 417 b 169 378 208 417 186 403 b 78 32 115 286 85 171 b 119 -10 76 4 90 -10 l 204 -10 b 246 32 232 -10 246 4 b 282 231 253 107 265 172 b 429 171 344 235 393 215 b 415 32 421 128 417 82 b 457 -10 414 4 428 -10 l 540 -10 b 583 32 568 -10 582 4 b 619 232 590 107 601 174 b 756 36 721 224 767 158 z m 526 1092 l 89 1092 b 50 1050 64 1092 50 1078 l 50 971 b 89 932 50 944 64 932 l 322 932 b 344 903 340 932 347 922 b 117 524 335 753 260 626 b 97 482 99 507 93 493 b 139 464 103 471 117 464 l 228 464 b 331 504 267 464 301 478 b 558 1040 474 618 549 797 b 526 1092 561 1074 550 1092 z m 885 886 l 826 886 l 826 1071 b 781 1113 826 1099 811 1113 l 688 1113 b 643 1074 658 1113 643 1100 l 643 507 b 689 464 643 479 658 464 l 779 464 b 826 507 810 464 826 479 l 826 711 l 885 711 b 922 754 910 711 922 725 l 922 844 b 885 886 922 872 910 886 z "},"강":{"ha":967,"x_min":0,"x_max":0,"o":"m 488 424 b 276 411 401 424 332 419 b 144 369 221 401 178 388 b 78 300 113 351 90 328 b 60 204 65 272 60 240 b 82 106 60 167 67 133 b 154 35 96 76 121 54 b 285 -7 188 17 231 1 b 488 -21 339 -17 407 -21 b 697 -7 572 -21 642 -17 b 828 35 751 1 796 15 b 896 104 860 53 883 76 b 915 203 908 132 915 165 b 893 299 915 239 907 271 b 822 368 879 326 856 350 b 690 410 789 386 744 400 b 488 424 636 419 568 424 z m 489 115 b 369 121 442 115 403 118 b 290 138 338 125 311 131 b 247 165 271 144 257 154 b 233 204 239 175 233 189 b 246 239 233 217 238 229 b 288 265 254 250 268 258 b 365 281 307 272 333 278 b 488 286 397 283 439 286 b 611 281 538 286 579 283 b 689 265 644 278 669 272 b 729 239 708 258 721 250 b 740 204 736 229 740 217 b 728 165 740 189 736 175 b 688 138 719 154 706 144 b 610 121 668 131 642 125 b 489 115 578 118 538 115 z m 889 886 l 826 886 l 826 1071 b 781 1113 826 1099 811 1113 l 688 1113 b 643 1074 658 1113 643 1100 l 643 507 b 689 464 643 479 658 464 l 779 464 b 826 507 810 464 826 479 l 826 711 l 889 711 b 926 754 914 711 926 725 l 926 844 b 889 886 926 872 914 886 z m 526 1092 l 90 1092 b 51 1050 64 1092 51 1078 l 51 971 b 90 932 51 944 64 932 l 322 932 b 344 903 340 932 349 922 b 117 525 335 753 260 628 b 97 485 99 510 93 496 b 139 467 103 472 117 467 l 228 467 b 331 506 265 467 300 481 b 558 1040 474 619 549 797 b 526 1092 561 1074 550 1092 z "},"갖":{"ha":972,"x_min":0,"x_max":0,"o":"m 894 886 l 826 886 l 826 1071 b 781 1113 826 1099 811 1113 l 688 1113 b 643 1074 658 1113 643 1100 l 643 518 b 689 476 643 490 658 476 l 779 476 b 826 518 810 476 826 490 l 826 711 l 894 711 b 932 754 919 711 932 725 l 932 844 b 894 886 932 872 919 886 z m 526 1092 l 90 1092 b 51 1050 64 1092 51 1078 l 51 971 b 90 932 51 944 64 932 l 322 932 b 344 903 340 932 347 922 b 117 535 335 753 260 631 b 97 493 99 518 93 504 b 139 476 103 482 117 476 l 228 476 b 331 515 267 476 301 489 b 558 1040 474 622 549 797 b 526 1092 561 1074 550 1092 z m 690 -10 l 807 -10 b 844 32 832 -10 844 4 b 706 271 844 140 799 221 l 857 271 b 892 307 881 271 892 283 l 892 386 b 856 422 892 411 879 422 l 124 422 b 82 386 96 422 82 411 l 82 307 b 124 271 82 283 96 271 l 279 271 b 121 28 268 197 217 115 b 113 3 111 19 108 10 b 139 -10 115 -6 124 -10 l 263 -10 b 335 19 289 -10 313 0 b 476 253 407 83 454 161 b 651 28 593 206 651 131 b 690 -10 651 3 664 -10 z "},"갗":{"ha":972,"x_min":0,"x_max":0,"o":"m 682 -10 l 813 -10 b 847 26 836 -10 847 3 b 707 265 842 136 796 215 l 874 265 b 910 301 899 265 910 278 l 910 381 b 874 417 910 406 897 417 l 607 417 l 607 450 b 569 483 607 472 594 483 l 432 483 b 399 450 410 483 399 472 l 399 417 l 111 417 b 74 381 86 417 74 406 l 74 301 b 111 265 74 278 86 265 l 289 265 b 118 19 275 188 218 106 b 133 -10 97 0 103 -10 l 274 -10 b 340 19 300 -10 322 0 b 475 250 408 90 453 167 b 649 22 590 200 649 125 b 682 -10 649 0 660 -10 z m 894 886 l 826 886 l 826 1071 b 781 1113 826 1099 811 1113 l 688 1113 b 643 1074 658 1113 643 1100 l 643 529 b 689 488 643 501 658 488 l 779 488 b 826 529 810 488 826 501 l 826 711 l 894 711 b 932 754 919 711 932 725 l 932 844 b 894 886 932 872 919 886 z m 526 1092 l 92 1092 b 53 1050 65 1092 53 1078 l 53 971 b 92 932 53 944 65 932 l 322 932 b 344 903 340 932 347 922 b 117 525 335 753 260 628 b 97 485 99 510 93 496 b 139 467 103 472 117 467 l 228 467 b 331 506 267 467 301 481 b 558 1040 474 619 549 797 b 526 1092 561 1074 550 1092 z "},"갘":{"ha":974,"x_min":0,"x_max":0,"o":"m 104 296 l 718 296 l 718 233 l 118 233 b 79 194 92 233 79 219 l 79 139 b 118 100 79 113 92 100 l 718 100 l 718 32 b 758 -10 718 4 732 -10 l 850 -10 b 892 32 878 -10 892 4 l 892 393 b 843 439 892 424 875 439 l 104 439 b 60 397 74 439 60 425 l 60 335 b 104 296 60 308 74 296 z m 894 886 l 826 886 l 826 1071 b 781 1113 826 1099 811 1113 l 688 1113 b 643 1074 658 1113 643 1100 l 643 529 b 689 488 643 501 658 488 l 779 488 b 826 529 810 488 826 501 l 826 711 l 894 711 b 932 754 919 711 932 725 l 932 844 b 894 886 932 872 919 886 z m 526 1092 l 90 1092 b 51 1050 64 1092 51 1078 l 51 971 b 90 932 51 944 64 932 l 322 932 b 344 903 340 932 347 922 b 125 546 335 753 263 633 b 97 504 101 529 93 517 b 139 488 103 493 117 488 l 228 488 b 331 526 267 488 301 500 b 558 1040 474 626 549 797 b 526 1092 561 1074 550 1092 z "},"같":{"ha":972,"x_min":0,"x_max":0,"o":"m 78 381 l 78 38 b 129 -10 78 6 94 -10 l 861 -10 b 897 25 886 -10 897 1 l 897 79 b 861 114 897 103 886 114 l 244 114 l 244 163 l 844 163 b 879 197 868 163 879 174 l 879 236 b 844 268 879 257 868 268 l 244 268 l 244 311 l 864 311 b 900 347 888 311 900 324 l 900 401 b 864 435 900 424 888 435 l 135 435 b 78 381 97 435 78 417 z m 894 886 l 826 886 l 826 1071 b 781 1113 826 1099 811 1113 l 688 1113 b 643 1074 658 1113 643 1100 l 643 542 b 689 499 643 513 658 499 l 779 499 b 826 542 810 499 826 513 l 826 711 l 894 711 b 932 754 919 711 932 725 l 932 844 b 894 886 932 872 919 886 z m 526 1090 l 97 1090 b 58 1050 71 1090 58 1076 l 58 969 b 97 931 58 943 71 931 l 322 931 b 344 901 340 931 347 921 b 117 553 350 765 275 650 b 97 513 99 538 93 524 b 139 494 103 500 117 494 l 228 494 b 343 536 267 494 306 508 b 558 1039 478 628 549 794 b 526 1090 561 1074 550 1090 z "},"갚":{"ha":972,"x_min":0,"x_max":0,"o":"m 864 397 l 107 397 b 64 357 78 397 64 383 l 64 286 b 107 247 64 261 78 247 l 164 247 l 164 140 l 107 140 b 64 99 78 140 64 126 l 64 31 b 107 -10 64 3 78 -10 l 869 -10 b 908 29 894 -10 908 3 l 908 100 b 869 140 908 126 894 140 l 808 140 l 808 247 l 868 247 b 908 286 894 247 908 261 l 908 357 b 864 397 908 383 893 397 z m 643 247 l 643 140 l 329 140 l 329 247 z m 894 875 l 826 875 l 826 1071 b 781 1113 826 1099 811 1113 l 688 1113 b 643 1074 658 1113 643 1100 l 643 501 b 689 458 643 474 658 458 l 779 458 b 826 501 810 458 826 474 l 826 700 l 894 700 b 932 743 919 700 932 714 l 932 833 b 894 875 932 861 919 875 z m 526 1088 l 86 1088 b 47 1047 60 1088 47 1074 l 47 968 b 86 928 47 942 60 928 l 322 928 b 344 899 340 928 347 918 b 117 514 335 779 260 651 b 97 474 99 499 93 485 b 139 456 103 461 117 456 l 225 456 b 326 497 264 456 297 469 b 558 1038 464 636 542 817 b 526 1088 561 1071 550 1088 z "},"갛":{"ha":972,"x_min":0,"x_max":0,"o":"m 565 500 l 411 500 b 376 465 388 500 376 489 l 376 431 l 118 431 b 81 394 93 431 81 418 l 81 324 b 117 288 81 300 93 288 l 174 288 b 129 225 153 269 138 249 b 117 147 121 201 117 176 b 140 64 117 114 125 86 b 211 13 157 43 179 25 b 328 -15 242 0 281 -10 b 493 -22 375 -19 429 -22 b 778 18 619 -22 714 -10 b 872 161 840 44 872 93 b 858 239 872 192 868 218 b 813 288 850 260 833 276 l 874 288 b 908 324 896 288 908 300 l 908 396 b 874 431 908 419 896 431 l 601 431 l 601 465 b 565 500 601 489 589 500 z m 493 101 b 399 106 456 101 424 103 b 338 122 372 110 353 115 b 304 149 322 129 311 138 b 293 185 297 158 293 171 b 346 268 293 222 311 250 b 493 296 381 286 429 296 b 642 269 557 296 607 286 b 694 188 676 251 694 224 b 683 150 694 174 690 161 b 649 124 676 139 665 131 b 588 107 633 115 613 111 b 493 101 561 103 531 101 z m 894 886 l 826 886 l 826 1071 b 781 1113 826 1099 811 1113 l 688 1113 b 643 1074 658 1113 643 1100 l 643 542 b 689 500 643 514 658 500 l 779 500 b 826 542 810 500 826 514 l 826 711 l 894 711 b 932 754 919 711 932 725 l 932 844 b 894 886 932 872 919 886 z m 526 1088 l 86 1088 b 47 1047 60 1088 47 1074 l 47 968 b 86 928 47 942 60 928 l 322 928 b 344 899 340 928 349 918 b 117 554 335 788 260 672 b 97 514 99 539 93 525 b 139 496 103 501 117 496 l 217 496 b 325 538 256 496 292 510 b 558 1038 457 650 533 817 b 526 1088 561 1071 550 1088 z "},"개":{"ha":1050,"x_min":0,"x_max":0,"o":"m 349 903 b 106 82 353 550 272 276 b 86 31 88 63 81 46 b 131 8 90 15 106 8 l 188 8 b 276 38 229 8 258 18 b 538 1031 454 233 542 564 b 489 1090 538 1069 522 1090 l 103 1090 b 58 1042 74 1090 58 1074 l 58 974 b 97 928 58 943 72 928 l 322 928 b 349 903 340 928 349 919 z m 982 32 l 982 1074 b 936 1114 982 1100 967 1114 l 857 1114 b 815 1075 829 1114 815 1101 l 815 804 l 772 804 l 772 1074 b 726 1114 772 1100 757 1114 l 649 1114 b 606 1075 619 1114 606 1101 l 606 31 b 653 -10 606 4 621 -10 l 725 -10 b 772 32 757 -10 772 4 l 772 629 l 815 629 l 815 31 b 861 -10 815 4 831 -10 l 935 -10 b 982 32 967 -10 982 4 z "},"객":{"ha":1032,"x_min":0,"x_max":0,"o":"m 125 181 l 788 181 l 788 31 b 829 -10 788 4 801 -10 l 924 -10 b 964 31 950 -10 964 4 l 964 299 b 921 338 964 324 950 338 l 125 338 b 85 296 97 338 85 324 l 85 221 b 125 181 85 194 97 181 z m 532 1092 l 103 1092 b 64 1050 76 1092 64 1078 l 64 971 b 103 932 64 944 76 932 l 328 932 b 350 903 346 932 353 922 b 121 467 340 738 265 593 b 103 425 104 451 97 438 b 144 408 107 414 122 408 l 233 408 b 326 450 271 408 303 422 b 564 1040 460 578 539 775 b 532 1092 565 1074 556 1092 z m 964 451 l 964 1075 b 921 1114 964 1101 950 1114 l 856 1114 b 813 1075 826 1114 813 1101 l 813 843 l 774 843 l 774 1075 b 729 1114 774 1101 758 1114 l 665 1114 b 619 1075 635 1114 619 1101 l 619 451 b 667 408 619 422 635 408 l 728 408 b 774 451 758 408 774 422 l 774 667 l 813 667 l 813 451 b 857 408 813 422 828 408 l 921 408 b 964 451 950 408 964 422 z "},"갞":{"ha":850,"x_min":0,"x_max":0,"o":""},"갟":{"ha":850,"x_min":0,"x_max":0,"o":""},"갠":{"ha":1032,"x_min":0,"x_max":0,"o":"m 929 157 l 260 157 l 260 297 b 217 338 260 324 246 338 l 126 338 b 81 293 96 338 81 322 l 81 38 b 131 -10 81 7 97 -10 l 929 -10 b 974 35 958 -10 974 6 l 974 115 b 929 157 974 143 958 157 z m 532 1092 l 103 1092 b 64 1050 76 1092 64 1078 l 64 971 b 103 932 64 944 76 932 l 328 932 b 350 903 346 932 353 922 b 121 467 340 738 265 593 b 103 425 104 451 97 438 b 144 408 107 414 122 408 l 233 408 b 326 450 271 408 303 422 b 564 1040 460 578 539 775 b 532 1092 565 1074 556 1092 z m 964 451 l 964 1075 b 921 1114 964 1101 950 1114 l 856 1114 b 813 1075 826 1114 813 1101 l 813 843 l 774 843 l 774 1075 b 729 1114 774 1101 758 1114 l 665 1114 b 619 1075 635 1114 619 1101 l 619 451 b 667 408 619 422 635 408 l 728 408 b 774 451 758 408 774 422 l 774 667 l 813 667 l 813 451 b 857 408 813 422 828 408 l 921 408 b 964 451 950 408 964 422 z "},"갡":{"ha":850,"x_min":0,"x_max":0,"o":""},"갢":{"ha":1081,"x_min":0,"x_max":0,"o":"m 1013 506 l 1013 1074 b 968 1113 1013 1100 997 1113 l 889 1113 b 846 1074 860 1113 846 1100 l 846 883 l 801 883 l 801 1074 b 758 1113 801 1100 786 1113 l 678 1113 b 633 1074 649 1113 633 1100 l 633 503 b 679 463 633 476 649 463 l 756 463 b 801 506 786 463 801 476 l 801 707 l 846 707 l 846 503 b 890 463 846 476 861 463 l 968 463 b 1013 506 997 463 1013 476 z m 815 425 l 736 425 b 693 388 708 425 694 413 l 693 358 l 565 358 b 532 328 543 358 532 349 l 532 271 b 565 240 532 251 543 240 l 601 240 b 543 133 563 218 543 182 b 779 -11 543 38 622 -11 b 1021 133 940 -11 1021 38 b 958 240 1021 182 1000 218 l 997 240 b 1029 271 1019 240 1029 251 l 1029 328 b 997 364 1029 351 1019 364 l 856 364 l 856 396 b 815 425 856 415 843 425 z m 546 1090 l 104 1090 b 67 1050 79 1090 67 1076 l 67 969 b 104 931 67 943 79 931 l 340 931 b 364 901 358 931 367 921 b 135 521 354 774 278 647 b 115 479 117 506 111 492 b 158 463 121 468 135 463 l 247 463 b 340 504 285 463 315 476 b 578 1039 474 632 553 811 b 546 1090 579 1074 569 1090 z m 457 154 l 256 154 l 256 372 b 214 413 256 399 242 413 l 119 413 b 79 371 92 413 79 399 l 79 31 b 128 -10 79 4 96 -10 l 458 -10 b 506 38 489 -10 506 7 l 506 113 b 457 154 506 140 489 154 z m 779 100 b 701 144 728 100 701 115 b 779 221 701 196 728 221 b 856 149 829 221 856 196 b 779 100 856 117 829 100 z "},"갣":{"ha":1019,"x_min":0,"x_max":0,"o":"m 104 371 l 104 44 b 163 -10 104 8 124 -10 l 903 -10 b 949 38 933 -10 949 7 l 949 111 b 903 150 949 136 933 150 l 282 150 l 282 269 l 903 269 b 950 321 935 269 950 286 l 950 383 b 903 429 950 414 935 429 l 161 429 b 104 371 124 429 104 410 z m 950 529 l 950 1075 b 908 1114 950 1101 936 1114 l 843 1114 b 799 1075 814 1114 799 1101 l 799 888 l 761 888 l 761 1075 b 715 1114 761 1101 746 1114 l 651 1114 b 607 1075 621 1114 607 1101 l 607 529 b 653 488 607 501 622 488 l 714 488 b 761 529 744 488 761 501 l 761 713 l 799 713 l 799 529 b 844 488 799 501 814 488 l 907 488 b 950 529 936 488 950 501 z m 526 1092 l 103 1092 b 64 1050 76 1092 64 1078 l 64 971 b 103 932 64 944 76 932 l 322 932 b 344 903 340 932 347 922 b 117 546 335 790 260 671 b 97 504 99 529 93 517 b 139 488 103 493 117 488 l 228 488 b 321 529 260 488 290 501 b 558 1040 456 650 533 819 b 526 1092 561 1074 550 1092 z "},"갤":{"ha":1042,"x_min":0,"x_max":0,"o":"m 932 121 l 263 121 l 263 163 l 935 163 b 972 196 960 163 972 174 l 972 396 b 929 435 972 422 958 435 l 124 435 b 83 394 97 435 83 422 l 83 349 b 124 307 83 321 97 307 l 794 307 l 794 268 l 125 268 b 83 228 97 268 83 254 l 83 32 b 126 -10 83 4 97 -10 l 935 -10 b 972 26 960 -10 972 1 l 972 85 b 932 121 972 108 958 121 z m 964 529 l 964 1075 b 921 1114 964 1101 950 1114 l 856 1114 b 813 1075 826 1114 813 1101 l 813 888 l 774 888 l 774 1075 b 729 1114 774 1101 758 1114 l 665 1114 b 619 1075 635 1114 619 1101 l 619 529 b 667 488 619 501 635 488 l 728 488 b 774 529 758 488 774 501 l 774 713 l 813 713 l 813 529 b 857 488 813 501 828 488 l 921 488 b 964 529 950 488 964 501 z m 526 1092 l 103 1092 b 64 1050 76 1092 64 1078 l 64 971 b 103 932 64 944 76 932 l 322 932 b 344 903 340 932 347 922 b 117 546 335 790 260 671 b 97 504 99 529 93 517 b 139 488 103 493 117 488 l 228 488 b 321 529 260 488 290 501 b 558 1040 456 650 533 819 b 526 1092 561 1074 550 1092 z "},"갥":{"ha":1042,"x_min":0,"x_max":0,"o":"m 608 303 l 826 303 l 826 31 b 868 -10 826 4 840 -10 l 940 -10 b 981 31 968 -10 981 4 l 981 404 b 929 443 981 429 964 443 l 607 443 b 563 399 578 443 563 429 l 563 342 b 608 303 563 315 578 303 z m 485 125 l 250 125 l 250 168 l 485 168 b 524 200 511 168 524 178 l 524 404 b 474 443 524 431 507 443 l 111 443 b 71 399 85 443 71 429 l 71 351 b 119 315 71 328 88 315 l 344 315 l 344 271 l 117 271 b 71 222 86 271 71 256 l 71 40 b 124 -7 71 8 89 -7 l 485 -7 b 524 32 511 -7 524 6 l 524 92 b 485 125 524 115 511 125 z m 974 529 l 974 1071 b 928 1113 974 1099 958 1113 l 846 1113 b 803 1074 817 1113 803 1100 l 803 886 l 769 886 l 769 1071 b 725 1113 769 1099 754 1113 l 643 1113 b 599 1074 613 1113 599 1100 l 599 529 b 643 488 599 501 614 488 l 724 488 b 769 529 754 488 769 501 l 769 711 l 803 711 l 803 529 b 847 488 803 501 817 488 l 926 488 b 974 529 958 488 974 501 z m 526 1092 l 86 1092 b 47 1050 60 1092 47 1078 l 47 971 b 86 932 47 944 60 932 l 322 932 b 344 903 340 932 347 922 b 117 546 335 790 260 671 b 97 504 99 529 93 517 b 139 488 103 493 117 488 l 228 488 b 321 529 267 488 297 501 b 558 1040 456 650 533 819 b 526 1092 561 1074 550 1092 z "},"갦":{"ha":850,"x_min":0,"x_max":0,"o":""},"갧":{"ha":850,"x_min":0,"x_max":0,"o":""},"갨":{"ha":850,"x_min":0,"x_max":0,"o":""},"갩":{"ha":850,"x_min":0,"x_max":0,"o":""},"갪":{"ha":850,"x_min":0,"x_max":0,"o":""},"갫":{"ha":850,"x_min":0,"x_max":0,"o":""},"갬":{"ha":1042,"x_min":0,"x_max":0,"o":"m 974 38 l 974 382 b 921 432 974 415 956 432 l 142 432 b 90 382 107 432 90 415 l 90 38 b 140 -10 90 7 107 -10 l 921 -10 b 974 38 956 -10 974 7 z m 804 286 l 804 135 l 258 135 l 258 286 z m 974 529 l 974 1071 b 928 1113 974 1099 958 1113 l 846 1113 b 803 1074 817 1113 803 1100 l 803 886 l 769 886 l 769 1071 b 725 1113 769 1099 754 1113 l 643 1113 b 599 1074 613 1113 599 1100 l 599 529 b 643 488 599 501 614 488 l 724 488 b 769 529 754 488 769 501 l 769 711 l 803 711 l 803 529 b 847 488 803 501 817 488 l 926 488 b 974 529 958 488 974 501 z m 522 1092 l 106 1092 b 65 1050 79 1092 65 1078 l 65 978 b 106 938 65 951 79 938 l 317 938 b 340 908 335 938 343 928 b 111 542 335 790 260 667 b 92 500 93 525 88 511 b 135 482 97 489 111 482 l 217 482 b 321 521 254 482 289 496 b 554 1040 460 642 538 815 b 522 1092 556 1074 546 1092 z "},"갭":{"ha":1042,"x_min":0,"x_max":0,"o":"m 974 35 l 974 394 b 924 436 974 422 957 436 l 846 436 b 800 393 815 436 800 422 l 800 331 l 269 331 l 269 393 b 222 436 269 422 253 436 l 140 436 b 93 393 110 436 93 422 l 93 35 b 140 -10 93 6 110 -10 l 924 -10 b 974 35 957 -10 974 6 z m 269 201 l 800 201 l 800 132 l 269 132 z m 974 529 l 974 1071 b 928 1113 974 1099 958 1113 l 846 1113 b 803 1074 817 1113 803 1100 l 803 886 l 769 886 l 769 1071 b 725 1113 769 1099 754 1113 l 643 1113 b 599 1074 613 1113 599 1100 l 599 529 b 643 488 599 501 614 488 l 724 488 b 769 529 754 488 769 501 l 769 711 l 803 711 l 803 529 b 847 488 803 501 817 488 l 926 488 b 974 529 958 488 974 501 z m 522 1092 l 106 1092 b 65 1050 79 1092 65 1078 l 65 978 b 106 938 65 951 79 938 l 317 938 b 340 908 335 938 343 928 b 111 542 335 790 260 667 b 92 500 93 525 88 511 b 135 482 97 489 111 482 l 217 482 b 321 521 254 482 289 496 b 554 1040 460 642 538 815 b 522 1092 556 1074 546 1092 z "},"갮":{"ha":850,"x_min":0,"x_max":0,"o":""},"갯":{"ha":1042,"x_min":0,"x_max":0,"o":"m 788 -10 l 913 -10 b 953 25 936 -10 949 1 b 510 375 981 261 832 378 l 514 393 b 486 424 517 414 508 424 l 374 424 b 329 389 346 424 332 413 b 111 26 317 263 243 142 b 100 3 101 18 97 10 b 122 -10 104 -6 111 -10 l 257 -10 b 313 10 278 -10 296 -4 b 478 235 385 67 440 142 b 757 26 692 242 785 172 b 788 -10 751 3 763 -10 z m 974 507 l 974 1071 b 928 1113 974 1099 958 1113 l 846 1113 b 803 1074 817 1113 803 1100 l 803 875 l 769 875 l 769 1071 b 725 1113 769 1099 754 1113 l 643 1113 b 599 1074 613 1113 599 1100 l 599 507 b 643 464 599 479 614 464 l 724 464 b 769 507 754 464 769 479 l 769 700 l 803 700 l 803 507 b 847 464 803 479 817 464 l 926 464 b 974 507 958 464 974 479 z m 526 1092 l 104 1092 b 65 1050 78 1092 65 1078 l 65 971 b 104 932 65 944 78 932 l 322 932 b 344 903 340 932 347 922 b 117 524 335 790 260 664 b 97 482 99 507 93 493 b 139 464 103 471 117 464 l 228 464 b 321 506 267 464 297 478 b 558 1040 456 642 533 819 b 526 1092 561 1074 550 1092 z "},"갰":{"ha":1043,"x_min":0,"x_max":0,"o":"m 811 36 b 853 -10 807 6 821 -10 l 932 -10 b 976 32 958 -10 974 4 b 721 369 992 240 907 353 b 689 417 742 400 731 417 l 614 417 b 547 378 588 417 565 403 b 513 313 535 357 524 336 b 374 368 472 346 426 365 b 342 417 394 400 383 417 l 268 417 b 201 378 242 417 219 403 b 110 32 147 286 117 171 b 151 -10 110 4 124 -10 l 238 -10 b 279 32 265 -10 279 4 b 315 231 286 107 297 172 b 472 171 378 235 431 215 b 458 32 465 128 461 82 b 500 -10 458 4 472 -10 l 583 -10 b 628 32 611 -10 626 4 b 663 232 633 107 646 174 b 811 36 772 224 822 158 z m 975 525 l 975 1075 b 932 1114 975 1101 961 1114 l 853 1114 b 808 1075 824 1114 808 1101 l 808 896 l 771 896 l 771 1075 b 725 1114 771 1101 756 1114 l 649 1114 b 603 1075 618 1114 603 1101 l 603 525 b 649 482 603 497 618 482 l 725 482 b 771 525 756 482 771 497 l 771 721 l 808 721 l 808 525 b 853 482 808 497 824 482 l 932 482 b 975 525 961 482 975 497 z m 522 1092 l 106 1092 b 65 1050 79 1092 65 1078 l 65 978 b 106 938 65 951 79 938 l 317 938 b 340 908 335 938 343 928 b 111 542 335 790 260 667 b 92 500 93 525 88 511 b 135 482 97 489 111 482 l 217 482 b 321 521 254 482 289 496 b 554 1040 460 642 538 815 b 522 1092 556 1074 546 1092 z "},"갱":{"ha":1042,"x_min":0,"x_max":0,"o":"m 974 496 l 974 1071 b 928 1113 974 1099 958 1113 l 846 1113 b 803 1074 817 1113 803 1100 l 803 869 l 769 869 l 769 1071 b 725 1113 769 1099 754 1113 l 643 1113 b 599 1074 613 1113 599 1100 l 599 496 b 643 453 599 468 614 453 l 724 453 b 769 496 754 453 769 468 l 769 694 l 803 694 l 803 496 b 847 453 803 468 817 453 l 926 453 b 974 496 958 453 974 468 z m 526 1092 l 86 1092 b 47 1050 60 1092 47 1078 l 47 971 b 86 932 47 944 60 932 l 322 932 b 344 903 340 932 347 922 b 117 511 335 790 260 660 b 97 471 99 496 93 482 b 139 453 103 460 117 453 l 228 453 b 321 494 267 453 297 467 b 558 1040 456 638 533 819 b 526 1092 561 1074 550 1092 z m 543 413 b 322 399 456 413 382 408 b 178 358 261 390 214 376 b 99 289 140 340 114 317 b 74 194 82 263 74 231 b 100 100 74 158 83 126 b 182 32 118 74 144 50 b 328 -8 219 14 268 1 b 543 -21 386 -17 458 -21 b 756 -8 628 -21 699 -17 b 894 32 813 1 858 14 b 968 100 929 50 953 72 b 990 193 983 126 990 157 b 969 289 990 231 983 263 b 897 358 956 317 932 340 b 760 399 863 376 817 390 b 543 413 703 408 631 413 z m 544 115 b 407 121 490 115 444 118 b 315 136 369 124 339 129 b 264 160 292 142 275 150 b 249 194 254 169 249 181 b 318 254 249 221 272 240 b 543 275 365 268 440 275 b 751 254 640 275 711 268 b 814 194 793 240 814 221 b 751 136 814 168 793 149 b 544 115 710 122 640 115 z "},"갲":{"ha":850,"x_min":0,"x_max":0,"o":""},"갳":{"ha":850,"x_min":0,"x_max":0,"o":""},"갴":{"ha":850,"x_min":0,"x_max":0,"o":""},"갵":{"ha":850,"x_min":0,"x_max":0,"o":""},"갶":{"ha":850,"x_min":0,"x_max":0,"o":""},"갷":{"ha":850,"x_min":0,"x_max":0,"o":""},"갸":{"ha":971,"x_min":0,"x_max":0,"o":"m 375 903 b 97 88 379 550 288 279 b 72 35 75 65 67 49 b 115 14 78 21 92 14 l 179 14 b 269 42 219 14 250 22 b 564 1036 469 235 568 565 b 506 1090 564 1072 544 1090 l 99 1090 b 60 1042 72 1090 60 1074 l 60 974 b 99 928 60 943 72 928 l 349 928 b 375 903 367 928 375 919 z m 883 660 l 826 660 l 826 731 l 883 731 b 928 771 913 731 928 743 l 928 851 b 883 893 928 879 913 893 l 826 893 l 826 1074 b 783 1113 826 1100 811 1113 l 688 1113 b 646 1074 660 1113 646 1100 l 646 31 b 688 -10 646 4 660 -10 l 783 -10 b 826 32 811 -10 826 4 l 826 496 l 883 496 b 928 536 913 496 928 510 l 928 618 b 883 660 928 646 913 660 z "},"갹":{"ha":974,"x_min":0,"x_max":0,"o":"m 111 181 l 714 181 l 714 31 b 754 -10 714 4 726 -10 l 849 -10 b 890 31 876 -10 890 4 l 890 299 b 846 338 890 324 875 338 l 108 338 b 69 294 82 338 69 324 l 69 228 b 111 181 69 196 83 181 z m 882 726 l 826 726 l 826 797 l 881 797 b 926 838 911 797 926 811 l 926 919 b 882 961 926 947 911 961 l 826 961 l 826 1074 b 782 1113 826 1100 813 1113 l 689 1113 b 644 1074 660 1113 644 1100 l 644 449 b 690 408 644 422 660 408 l 781 408 b 826 451 811 408 826 422 l 826 564 l 881 564 b 926 604 911 564 926 576 l 926 685 b 882 726 926 713 911 726 z m 526 1092 l 92 1092 b 53 1050 65 1092 53 1078 l 53 971 b 92 932 53 944 65 932 l 322 932 b 344 903 340 932 347 922 b 117 467 336 736 260 592 b 97 425 99 451 93 438 b 139 408 103 414 117 408 l 228 408 b 335 450 267 408 301 422 b 558 1040 475 578 549 775 b 526 1092 561 1074 550 1092 z "},"갺":{"ha":850,"x_min":0,"x_max":0,"o":""},"갻":{"ha":850,"x_min":0,"x_max":0,"o":""},"갼":{"ha":986,"x_min":0,"x_max":0,"o":"m 860 147 l 257 147 l 257 297 b 217 336 257 324 243 336 l 121 336 b 81 297 93 336 81 324 l 81 29 b 121 -10 81 4 93 -10 l 860 -10 b 901 29 888 -10 901 4 l 901 107 b 860 147 901 133 888 147 z m 903 726 l 839 726 l 839 797 l 903 797 b 947 838 932 797 947 811 l 947 919 b 903 961 947 947 932 961 l 839 961 l 839 1074 b 793 1113 839 1100 824 1113 l 701 1113 b 657 1074 672 1113 657 1100 l 657 450 b 701 406 657 421 672 406 l 793 406 b 839 450 824 406 839 421 l 839 564 l 903 564 b 947 603 932 564 947 576 l 947 685 b 903 726 947 713 932 726 z m 526 1092 l 92 1092 b 53 1050 65 1092 53 1078 l 53 971 b 92 932 53 944 65 932 l 322 932 b 344 903 340 932 347 922 b 117 467 336 736 260 592 b 97 425 99 451 93 438 b 139 408 103 414 117 408 l 228 408 b 335 450 267 408 301 422 b 558 1040 475 578 549 775 b 526 1092 561 1074 550 1092 z "},"갽":{"ha":850,"x_min":0,"x_max":0,"o":""},"갾":{"ha":850,"x_min":0,"x_max":0,"o":""},"갿":{"ha":850,"x_min":0,"x_max":0,"o":""},"걀":{"ha":972,"x_min":0,"x_max":0,"o":"m 844 121 l 242 121 l 242 163 l 847 163 b 885 196 872 163 885 174 l 885 396 b 842 435 885 422 869 435 l 104 435 b 63 394 76 435 63 422 l 63 349 b 104 307 63 321 76 307 l 707 307 l 707 268 l 104 268 b 63 228 76 268 63 254 l 63 32 b 106 -10 63 4 78 -10 l 847 -10 b 885 26 872 -10 885 3 l 885 86 b 844 121 885 110 871 121 z m 894 989 l 826 989 l 826 1071 b 781 1113 826 1099 811 1113 l 688 1113 b 643 1074 658 1113 643 1100 l 643 529 b 689 488 643 501 658 488 l 779 488 b 826 529 810 488 826 501 l 826 615 l 894 615 b 932 658 919 615 932 629 l 932 738 b 894 779 932 765 919 779 l 826 779 l 826 825 l 894 825 b 932 867 919 825 932 839 l 932 947 b 894 989 932 975 919 989 z m 538 1092 l 97 1092 b 58 1050 71 1092 58 1078 l 58 971 b 97 932 58 944 71 932 l 333 932 b 356 903 351 932 358 922 b 128 546 346 768 271 649 b 108 504 110 529 104 517 b 151 488 114 493 128 488 l 240 488 b 342 526 278 488 313 500 b 569 1040 485 642 560 813 b 538 1092 572 1074 561 1092 z "},"걁":{"ha":850,"x_min":0,"x_max":0,"o":""},"걂":{"ha":850,"x_min":0,"x_max":0,"o":""},"걃":{"ha":850,"x_min":0,"x_max":0,"o":""},"걄":{"ha":850,"x_min":0,"x_max":0,"o":""},"걅":{"ha":850,"x_min":0,"x_max":0,"o":""},"걆":{"ha":850,"x_min":0,"x_max":0,"o":""},"걇":{"ha":850,"x_min":0,"x_max":0,"o":""},"걈":{"ha":850,"x_min":0,"x_max":0,"o":""},"걉":{"ha":850,"x_min":0,"x_max":0,"o":""},"걊":{"ha":850,"x_min":0,"x_max":0,"o":""},"걋":{"ha":972,"x_min":0,"x_max":0,"o":"m 749 -10 l 881 -10 b 911 26 901 -10 911 3 b 508 385 939 268 804 388 l 513 406 b 483 433 515 424 506 433 l 369 433 b 329 399 342 433 329 421 b 97 17 314 285 236 157 b 90 -1 89 10 88 3 b 113 -10 93 -7 100 -10 l 265 -10 b 311 10 281 -10 296 -3 b 476 244 378 69 433 149 b 715 28 663 251 743 179 b 749 -10 714 3 725 -10 z m 889 989 l 826 989 l 826 1071 b 781 1113 826 1099 811 1113 l 688 1113 b 643 1074 658 1113 643 1100 l 643 529 b 689 488 643 501 658 488 l 779 488 b 826 529 810 488 826 501 l 826 615 l 889 615 b 926 658 914 615 926 629 l 926 738 b 889 779 926 765 914 779 l 826 779 l 826 825 l 889 825 b 926 867 914 825 926 839 l 926 947 b 889 989 926 975 914 989 z m 538 1092 l 97 1092 b 58 1050 71 1092 58 1078 l 58 971 b 97 932 58 944 71 932 l 333 932 b 356 903 351 932 358 922 b 128 546 346 768 271 649 b 108 504 110 529 104 517 b 151 488 114 493 128 488 l 240 488 b 342 526 278 488 313 500 b 569 1040 485 642 560 813 b 538 1092 572 1074 561 1092 z "},"걌":{"ha":850,"x_min":0,"x_max":0,"o":""},"걍":{"ha":986,"x_min":0,"x_max":0,"o":"m 504 417 b 81 201 222 417 81 346 b 504 -12 81 58 222 -12 b 925 200 785 -12 925 58 b 504 417 925 344 785 417 z m 506 125 b 256 201 339 125 256 150 b 504 279 256 253 339 279 b 750 201 668 279 750 253 b 506 125 750 150 668 125 z m 894 989 l 826 989 l 826 1071 b 781 1113 826 1099 811 1113 l 688 1113 b 643 1074 658 1113 643 1100 l 643 529 b 689 488 643 501 658 488 l 779 488 b 826 529 810 488 826 501 l 826 615 l 894 615 b 932 658 919 615 932 629 l 932 738 b 894 779 932 765 919 779 l 826 779 l 826 825 l 894 825 b 932 867 919 825 932 839 l 932 947 b 894 989 932 975 919 989 z m 538 1092 l 97 1092 b 58 1050 71 1092 58 1078 l 58 971 b 97 932 58 944 71 932 l 333 932 b 356 903 351 932 358 922 b 128 546 346 768 271 649 b 108 504 110 529 104 517 b 151 488 114 493 128 488 l 240 488 b 342 526 278 488 313 500 b 569 1040 485 642 560 813 b 538 1092 572 1074 561 1092 z "},"걎":{"ha":850,"x_min":0,"x_max":0,"o":""},"걏":{"ha":850,"x_min":0,"x_max":0,"o":""},"걐":{"ha":850,"x_min":0,"x_max":0,"o":""},"걑":{"ha":850,"x_min":0,"x_max":0,"o":""},"걒":{"ha":850,"x_min":0,"x_max":0,"o":""},"걓":{"ha":850,"x_min":0,"x_max":0,"o":""},"걔":{"ha":1083,"x_min":0,"x_max":0,"o":"m 382 903 b 106 90 388 549 294 278 b 79 38 83 69 75 53 b 124 15 85 24 99 15 l 186 15 b 276 44 228 15 258 25 b 571 1044 476 236 575 571 b 524 1092 571 1076 556 1092 l 113 1092 b 68 1046 82 1092 68 1076 l 68 972 b 111 929 68 943 82 929 l 356 929 b 382 903 374 929 382 921 z m 806 32 l 806 415 l 850 415 l 850 32 b 892 -10 850 4 864 -10 l 971 -10 b 1015 32 1001 -10 1015 4 l 1015 1072 b 969 1113 1015 1099 1000 1113 l 892 1113 b 850 1074 864 1113 850 1100 l 850 824 l 806 824 l 806 1072 b 761 1113 806 1099 790 1113 l 682 1113 b 639 1074 653 1113 639 1100 l 639 32 b 682 -10 639 4 653 -10 l 765 -10 b 806 32 792 -10 806 4 z m 850 576 l 806 576 l 806 661 l 850 661 z "},"걕":{"ha":1032,"x_min":0,"x_max":0,"o":"m 110 168 l 793 168 l 793 31 b 838 -10 793 3 808 -10 l 932 -10 b 974 32 960 -10 974 4 l 974 293 b 929 333 974 321 960 333 l 110 333 b 67 293 81 333 67 321 l 67 210 b 110 168 67 182 81 168 z m 775 451 l 775 568 l 814 568 l 814 451 b 860 408 814 422 829 408 l 921 408 b 965 451 950 408 965 422 l 965 1074 b 925 1113 965 1100 951 1113 l 857 1113 b 814 1074 828 1113 814 1100 l 814 946 l 775 946 l 775 1074 b 732 1113 775 1100 761 1113 l 667 1113 b 621 1074 636 1113 621 1100 l 621 451 b 667 408 621 422 636 408 l 729 408 b 775 451 760 408 775 422 z m 814 717 l 775 717 l 775 797 l 814 797 z m 532 1092 l 92 1092 b 53 1050 65 1092 53 1078 l 53 971 b 92 932 53 944 65 932 l 328 932 b 350 903 346 932 353 922 b 121 467 340 738 265 593 b 103 425 104 451 97 438 b 144 408 107 414 122 408 l 233 408 b 326 450 271 408 303 422 b 564 1040 460 578 539 775 b 532 1092 565 1074 556 1092 z "},"걖":{"ha":850,"x_min":0,"x_max":0,"o":""},"걗":{"ha":850,"x_min":0,"x_max":0,"o":""},"걘":{"ha":1046,"x_min":0,"x_max":0,"o":"m 943 157 l 260 157 l 260 294 b 215 335 260 322 244 335 l 121 335 b 81 293 93 335 81 321 l 81 32 b 124 -10 81 4 94 -10 l 943 -10 b 988 32 972 -10 988 4 l 988 114 b 943 157 988 142 972 157 z m 789 451 l 789 568 l 826 568 l 826 451 b 874 408 826 422 842 408 l 935 408 b 979 451 964 408 979 422 l 979 1074 b 939 1113 979 1100 965 1113 l 871 1113 b 826 1074 842 1113 826 1100 l 826 946 l 789 946 l 789 1074 b 744 1113 789 1100 774 1113 l 679 1113 b 635 1074 650 1113 635 1100 l 635 451 b 681 408 635 422 650 408 l 743 408 b 789 451 774 408 789 422 z m 826 717 l 789 717 l 789 797 l 826 797 z m 536 1092 l 100 1092 b 63 1050 75 1092 63 1078 l 63 971 b 100 932 63 944 75 932 l 331 932 b 353 903 349 932 357 922 b 126 467 344 736 269 592 b 107 425 108 451 101 438 b 149 408 111 414 125 408 l 238 408 b 343 450 275 408 311 422 b 567 1040 483 578 558 775 b 536 1092 569 1074 560 1092 z "},"걙":{"ha":850,"x_min":0,"x_max":0,"o":""},"걚":{"ha":850,"x_min":0,"x_max":0,"o":""},"걛":{"ha":850,"x_min":0,"x_max":0,"o":""},"걜":{"ha":1036,"x_min":0,"x_max":0,"o":"m 926 121 l 250 121 l 250 163 l 926 163 b 969 204 956 163 969 176 l 969 392 b 922 435 969 421 954 435 l 114 435 b 71 392 85 435 71 421 l 71 344 b 114 307 71 319 85 307 l 790 307 l 790 267 l 114 267 b 71 224 85 267 71 253 l 71 28 b 114 -10 71 3 85 -10 l 926 -10 b 969 28 956 -10 969 3 l 969 85 b 926 121 969 108 956 121 z m 779 525 l 779 608 l 817 608 l 817 525 b 863 482 817 497 832 482 l 925 482 b 969 525 954 482 969 497 l 969 1074 b 929 1113 969 1100 957 1113 l 861 1113 b 817 1074 832 1113 817 1100 l 817 986 l 779 986 l 779 1074 b 735 1113 779 1100 764 1113 l 669 1113 b 625 1074 640 1113 625 1100 l 625 525 b 671 482 625 497 640 482 l 733 482 b 779 525 764 482 779 497 z m 817 757 l 779 757 l 779 838 l 817 838 z m 543 1092 l 103 1092 b 64 1050 76 1092 64 1078 l 64 971 b 103 932 64 944 76 932 l 339 932 b 361 903 357 932 364 922 b 133 546 353 768 276 649 b 114 504 115 529 110 517 b 157 488 119 493 133 488 l 246 488 b 347 526 283 488 318 500 b 575 1040 490 642 565 813 b 543 1092 578 1074 568 1092 z "},"걝":{"ha":850,"x_min":0,"x_max":0,"o":""},"걞":{"ha":850,"x_min":0,"x_max":0,"o":""},"걟":{"ha":850,"x_min":0,"x_max":0,"o":""},"걠":{"ha":850,"x_min":0,"x_max":0,"o":""},"걡":{"ha":850,"x_min":0,"x_max":0,"o":""},"걢":{"ha":850,"x_min":0,"x_max":0,"o":""},"걣":{"ha":850,"x_min":0,"x_max":0,"o":""},"걤":{"ha":850,"x_min":0,"x_max":0,"o":""},"걥":{"ha":1050,"x_min":0,"x_max":0,"o":"m 790 525 l 790 608 l 828 608 l 828 525 b 874 482 828 497 843 482 l 936 482 b 981 525 967 482 981 497 l 981 1074 b 940 1113 981 1100 968 1113 l 874 1113 b 828 1074 843 1113 828 1100 l 828 986 l 790 986 l 790 1074 b 746 1113 790 1100 775 1113 l 681 1113 b 636 1074 651 1113 636 1100 l 636 525 b 682 482 636 497 651 482 l 744 482 b 790 525 775 482 790 497 z m 828 757 l 790 757 l 790 838 l 828 838 z m 981 35 l 981 394 b 932 436 981 422 964 436 l 853 436 b 807 393 822 436 807 422 l 807 331 l 269 331 l 269 393 b 222 436 269 422 254 436 l 142 436 b 94 393 110 436 94 422 l 94 35 b 142 -10 94 6 110 -10 l 932 -10 b 981 35 964 -10 981 6 z m 269 201 l 807 201 l 807 132 l 269 132 z m 543 1092 l 103 1092 b 64 1050 76 1092 64 1078 l 64 971 b 103 932 64 944 76 932 l 339 932 b 361 903 357 932 364 922 b 133 546 353 768 276 649 b 114 504 115 529 110 517 b 157 488 119 493 133 488 l 246 488 b 347 526 283 488 318 500 b 575 1040 490 642 565 813 b 543 1092 578 1074 568 1092 z "},"걦":{"ha":850,"x_min":0,"x_max":0,"o":""},"걧":{"ha":850,"x_min":0,"x_max":0,"o":""},"걨":{"ha":850,"x_min":0,"x_max":0,"o":""},"걩":{"ha":850,"x_min":0,"x_max":0,"o":""},"걪":{"ha":850,"x_min":0,"x_max":0,"o":""},"걫":{"ha":850,"x_min":0,"x_max":0,"o":""},"걬":{"ha":850,"x_min":0,"x_max":0,"o":""},"걭":{"ha":850,"x_min":0,"x_max":0,"o":""},"걮":{"ha":850,"x_min":0,"x_max":0,"o":""},"걯":{"ha":850,"x_min":0,"x_max":0,"o":""},"거":{"ha":940,"x_min":0,"x_max":0,"o":"m 369 903 b 93 88 375 565 282 294 b 67 35 71 68 63 50 b 110 14 72 21 86 14 l 175 14 b 264 42 215 14 246 22 b 531 629 400 182 489 378 l 690 629 l 690 32 b 735 -10 690 4 704 -10 l 822 -10 b 869 32 854 -10 869 4 l 869 1074 b 826 1113 869 1100 856 1113 l 735 1113 b 690 1072 704 1113 690 1099 l 690 804 l 551 804 b 560 1032 557 871 560 946 b 511 1092 560 1071 543 1092 l 99 1092 b 56 1043 69 1092 56 1075 l 56 974 b 94 929 56 944 68 929 l 343 929 b 369 903 361 929 369 921 z "},"걱":{"ha":935,"x_min":0,"x_max":0,"o":"m 526 1092 l 92 1092 b 53 1050 65 1092 53 1078 l 53 971 b 92 932 53 944 65 932 l 322 932 b 344 903 340 932 347 922 b 117 467 336 736 260 592 b 97 425 99 451 93 438 b 139 408 103 414 117 408 l 228 408 b 335 450 267 408 301 422 b 485 669 397 508 449 582 l 686 669 l 686 454 b 732 411 686 425 701 411 l 821 411 b 868 453 851 411 868 425 l 868 1075 b 822 1113 868 1100 853 1113 l 729 1113 b 686 1072 700 1113 686 1099 l 686 844 l 536 844 b 558 1040 549 904 556 969 b 526 1092 561 1074 550 1092 z m 114 181 l 693 181 l 693 31 b 733 -10 693 4 707 -10 l 829 -10 b 869 31 856 -10 869 4 l 869 299 b 826 338 869 324 856 338 l 114 338 b 74 296 86 338 74 324 l 74 221 b 114 181 74 193 86 181 z "},"걲":{"ha":850,"x_min":0,"x_max":0,"o":""},"걳":{"ha":850,"x_min":0,"x_max":0,"o":""},"건":{"ha":935,"x_min":0,"x_max":0,"o":"m 529 1092 l 93 1092 b 56 1050 68 1092 56 1078 l 56 971 b 93 932 56 944 68 932 l 324 932 b 346 903 342 932 350 922 b 119 467 339 736 263 592 b 100 425 101 451 94 438 b 142 408 104 414 118 408 l 231 408 b 336 450 269 408 304 422 b 488 669 400 508 450 582 l 686 669 l 686 454 b 732 411 686 425 701 411 l 821 411 b 868 453 851 411 868 425 l 868 1075 b 822 1113 868 1100 853 1113 l 729 1113 b 686 1072 700 1113 686 1099 l 686 844 l 539 844 b 560 1040 551 904 558 969 b 529 1092 564 1074 553 1092 z m 844 151 l 250 151 l 250 297 b 206 338 250 324 235 338 l 117 338 b 74 297 89 338 74 324 l 74 31 b 119 -10 74 4 89 -10 l 844 -10 b 885 32 871 -10 885 4 l 885 113 b 844 151 885 139 871 151 z "},"걵":{"ha":850,"x_min":0,"x_max":0,"o":""},"걶":{"ha":850,"x_min":0,"x_max":0,"o":""},"걷":{"ha":917,"x_min":0,"x_max":0,"o":"m 538 1092 l 97 1092 b 58 1050 71 1092 58 1078 l 58 971 b 97 932 58 944 71 932 l 333 932 b 356 903 351 932 358 922 b 128 524 346 768 271 642 b 108 482 110 507 104 493 b 151 464 114 471 128 464 l 240 464 b 332 506 278 464 308 478 b 481 701 393 557 442 622 l 667 701 l 667 518 b 711 476 667 490 681 476 l 803 476 b 849 518 833 476 849 490 l 849 1072 b 803 1114 849 1100 833 1114 l 710 1114 b 667 1075 681 1114 667 1101 l 667 876 l 542 876 b 569 1040 554 928 564 982 b 538 1092 572 1074 561 1092 z m 86 350 l 86 43 b 140 -8 86 8 104 -8 l 819 -8 b 869 36 853 -8 869 7 l 869 96 b 821 139 869 125 854 139 l 256 139 l 256 251 l 819 251 b 869 299 853 251 869 267 l 869 354 b 819 400 869 385 853 400 l 142 400 b 86 350 106 400 86 383 z "},"걸":{"ha":917,"x_min":0,"x_max":0,"o":"m 538 1092 l 97 1092 b 58 1050 71 1092 58 1078 l 58 971 b 97 932 58 944 71 932 l 333 932 b 356 903 351 932 358 922 b 128 535 346 768 271 646 b 108 493 110 518 104 504 b 151 476 114 482 128 476 l 233 476 b 332 518 272 476 306 490 b 478 701 392 565 440 626 l 667 701 l 667 518 b 711 476 667 490 681 476 l 803 476 b 849 518 833 476 849 490 l 849 1072 b 803 1114 849 1100 833 1114 l 710 1114 b 667 1075 681 1114 667 1101 l 667 876 l 542 876 b 569 1040 554 926 564 981 b 538 1092 572 1074 561 1092 z m 810 121 l 244 121 l 244 163 l 814 163 b 850 196 838 163 850 174 l 850 396 b 808 435 850 422 836 435 l 106 435 b 65 393 79 435 65 421 l 65 346 b 106 307 65 319 79 307 l 672 307 l 672 268 l 107 268 b 65 228 79 268 65 254 l 65 32 b 108 -10 65 4 79 -10 l 814 -10 b 850 26 838 -10 850 3 l 850 86 b 810 121 850 110 838 121 z "},"걹":{"ha":850,"x_min":0,"x_max":0,"o":""},"걺":{"ha":917,"x_min":0,"x_max":0,"o":"m 538 1092 l 97 1092 b 58 1050 71 1092 58 1078 l 58 971 b 97 932 58 944 71 932 l 333 932 b 356 903 351 932 358 922 b 128 535 346 768 271 646 b 108 493 110 518 104 504 b 151 476 114 482 128 476 l 233 476 b 332 518 272 476 306 490 b 478 701 392 565 440 626 l 667 701 l 667 518 b 711 476 667 490 681 476 l 803 476 b 849 518 833 476 849 490 l 849 1072 b 803 1114 849 1100 833 1114 l 710 1114 b 667 1075 681 1114 667 1101 l 667 876 l 542 876 b 569 1040 554 926 564 981 b 538 1092 572 1074 561 1092 z m 854 32 l 854 394 b 807 436 854 422 838 436 l 528 436 b 486 394 500 436 486 422 l 486 31 b 531 -10 486 4 500 -10 l 811 -10 b 854 32 840 -10 854 4 z m 383 121 l 217 121 l 217 163 l 383 163 b 424 197 410 163 424 174 l 424 397 b 379 436 424 424 408 436 l 110 436 b 69 394 83 436 69 422 l 69 347 b 114 308 69 321 85 308 l 275 308 l 275 267 l 113 267 b 69 224 83 267 69 253 l 69 32 b 114 -10 69 4 85 -10 l 383 -10 b 424 28 410 -10 424 3 l 424 89 b 383 121 424 111 410 122 z m 717 288 l 717 132 l 628 132 l 628 288 z "},"걻":{"ha":850,"x_min":0,"x_max":0,"o":""},"걼":{"ha":850,"x_min":0,"x_max":0,"o":""},"걽":{"ha":850,"x_min":0,"x_max":0,"o":""},"걾":{"ha":850,"x_min":0,"x_max":0,"o":""},"걿":{"ha":850,"x_min":0,"x_max":0,"o":""},"검":{"ha":928,"x_min":0,"x_max":0,"o":"m 865 38 l 865 375 b 813 425 865 408 847 425 l 129 425 b 79 375 96 425 79 408 l 79 36 b 129 -10 79 6 96 -10 l 813 -10 b 865 38 847 -10 865 6 z m 549 1092 l 97 1092 b 58 1050 71 1092 58 1078 l 58 971 b 97 932 58 944 71 932 l 344 932 b 367 903 363 932 369 922 b 133 535 358 768 281 646 b 108 493 113 518 104 504 b 151 476 114 482 128 476 l 233 476 b 340 518 272 476 307 490 b 489 701 400 565 450 626 l 678 701 l 678 518 b 722 476 678 490 692 476 l 814 476 b 860 518 844 476 860 490 l 860 1072 b 814 1114 860 1100 844 1114 l 721 1114 b 678 1075 692 1114 678 1101 l 678 876 l 553 876 b 581 1040 565 926 575 981 b 549 1092 583 1074 574 1092 z m 690 281 l 690 133 l 253 133 l 253 281 z "},"겁":{"ha":917,"x_min":0,"x_max":0,"o":"m 526 1092 l 97 1092 b 58 1050 71 1092 58 1078 l 58 971 b 97 932 58 944 71 932 l 322 932 b 344 903 340 932 347 922 b 117 546 335 768 260 649 b 97 504 99 529 93 517 b 139 488 103 493 117 488 l 228 488 b 331 526 267 488 301 500 b 481 711 394 576 443 638 l 667 711 l 667 529 b 713 488 667 501 682 488 l 803 488 b 849 529 833 488 849 501 l 849 1074 b 804 1113 849 1100 833 1113 l 711 1113 b 667 1071 681 1113 667 1099 l 667 886 l 540 886 b 558 1040 550 935 556 986 b 526 1092 561 1074 550 1092 z m 863 33 l 863 388 b 813 429 863 415 846 429 l 732 429 b 689 386 703 429 689 415 l 689 331 l 240 331 l 240 386 b 193 429 240 415 225 429 l 113 429 b 65 386 81 429 65 415 l 65 33 b 113 -10 65 4 81 -10 l 813 -10 b 863 33 846 -10 863 4 z m 240 201 l 689 201 l 689 132 l 240 132 z "},"겂":{"ha":917,"x_min":0,"x_max":0,"o":"m 526 1092 l 97 1092 b 58 1050 71 1092 58 1078 l 58 971 b 97 932 58 944 71 932 l 322 932 b 344 903 340 932 347 922 b 117 546 335 768 260 649 b 97 504 99 529 93 517 b 139 488 103 493 117 488 l 228 488 b 331 526 267 488 301 500 b 481 711 394 576 443 638 l 667 711 l 667 529 b 713 488 667 501 682 488 l 803 488 b 849 529 833 488 849 501 l 849 1074 b 804 1113 849 1100 833 1113 l 711 1113 b 667 1071 681 1113 667 1099 l 667 886 l 540 886 b 558 1040 550 935 556 986 b 526 1092 561 1074 550 1092 z m 447 26 l 447 403 b 406 436 447 425 433 436 l 336 436 b 297 401 310 436 297 425 l 297 331 l 221 331 l 221 401 b 181 436 221 425 207 436 l 106 436 b 67 399 79 436 67 424 l 67 26 b 106 -10 67 1 79 -10 l 404 -10 b 447 26 433 -10 447 1 z m 875 17 b 706 382 896 253 839 374 l 714 406 b 682 436 722 426 711 436 l 607 436 b 560 403 585 436 569 425 b 482 22 514 292 488 165 b 515 -10 479 0 490 -10 l 600 -10 b 635 19 622 -10 635 0 b 671 243 636 101 649 176 b 732 21 722 239 743 165 b 761 -10 729 0 739 -10 l 844 -10 b 875 17 864 -10 874 -1 z m 221 204 l 297 204 l 297 126 l 221 126 z "},"것":{"ha":917,"x_min":0,"x_max":0,"o":"m 526 1092 l 86 1092 b 47 1050 60 1092 47 1078 l 47 971 b 86 932 47 944 60 932 l 322 932 b 344 903 340 932 347 922 b 117 524 335 768 260 642 b 97 482 99 507 93 493 b 139 464 103 471 117 464 l 228 464 b 331 504 267 464 301 478 b 478 700 392 560 442 625 l 667 700 l 667 507 b 713 464 667 479 682 464 l 803 464 b 849 507 833 464 849 479 l 849 1074 b 804 1113 849 1100 833 1113 l 711 1113 b 667 1071 681 1113 667 1099 l 667 875 l 538 875 b 558 1040 549 926 556 982 b 526 1092 561 1074 550 1092 z m 683 -10 l 808 -10 b 849 25 831 -10 844 1 b 465 375 875 261 747 378 l 469 393 b 442 424 472 414 463 424 l 329 424 b 285 389 301 424 288 413 b 67 26 271 263 199 142 b 56 3 56 18 53 10 b 78 -10 60 -6 67 -10 l 211 -10 b 268 10 232 -10 251 -4 b 433 235 340 67 394 142 b 653 26 607 242 679 172 b 683 -10 647 3 657 -10 z "},"겄":{"ha":917,"x_min":0,"x_max":0,"o":"m 526 1092 l 92 1092 b 54 1050 67 1092 54 1078 l 54 971 b 92 932 54 944 67 932 l 322 932 b 344 903 340 932 347 922 b 117 546 335 768 260 649 b 97 504 99 529 93 517 b 139 488 103 493 117 488 l 228 488 b 331 526 267 488 301 500 b 481 711 394 576 443 638 l 667 711 l 667 529 b 713 488 667 501 682 488 l 803 488 b 849 529 833 488 849 501 l 849 1074 b 804 1113 849 1100 833 1113 l 711 1113 b 667 1071 681 1113 667 1099 l 667 886 l 540 886 b 558 1040 550 935 556 986 b 526 1092 561 1074 550 1092 z m 715 36 b 757 -10 711 6 725 -10 l 838 -10 b 881 32 864 -10 878 4 b 668 354 894 224 824 331 b 638 406 690 388 681 406 l 564 406 b 497 367 538 406 515 392 b 467 311 486 350 476 331 b 357 357 439 339 401 354 b 325 406 378 389 367 406 l 251 406 b 185 367 225 406 203 392 b 93 32 131 275 100 164 b 135 -10 93 4 107 -10 l 221 -10 b 263 32 249 -10 263 4 b 299 219 269 101 281 164 b 424 174 353 224 394 208 b 408 32 415 131 410 83 b 450 -10 407 4 421 -10 l 533 -10 b 578 32 561 -10 575 4 b 610 218 583 100 594 163 b 715 36 690 203 726 142 z "},"겅":{"ha":917,"x_min":0,"x_max":0,"o":"m 526 1092 l 93 1092 b 56 1050 68 1092 56 1078 l 56 971 b 93 932 56 944 68 932 l 322 932 b 344 903 340 932 347 922 b 117 546 335 768 260 649 b 97 504 99 529 93 517 b 139 488 103 493 117 488 l 228 488 b 331 526 267 488 301 500 b 481 711 394 576 443 638 l 667 711 l 667 529 b 713 488 667 501 682 488 l 803 488 b 849 529 833 488 849 501 l 849 1074 b 804 1113 849 1100 833 1113 l 711 1113 b 667 1071 681 1113 667 1099 l 667 886 l 540 886 b 558 1040 550 935 556 986 b 526 1092 561 1074 550 1092 z m 474 443 b 81 215 213 443 81 368 b 474 -10 81 65 213 -10 b 867 215 735 -10 867 65 b 474 443 867 367 735 443 z m 476 128 b 256 215 329 128 256 157 b 474 304 256 275 328 304 b 692 215 619 304 692 275 b 476 128 692 157 619 128 z "},"겆":{"ha":917,"x_min":0,"x_max":0,"o":"m 526 1092 l 92 1092 b 54 1050 67 1092 54 1078 l 54 971 b 92 932 54 944 67 932 l 322 932 b 344 903 340 932 347 922 b 117 546 335 768 260 649 b 97 504 99 529 93 517 b 139 488 103 493 117 488 l 228 488 b 331 526 267 488 301 500 b 481 711 394 576 443 638 l 667 711 l 667 529 b 713 488 667 501 682 488 l 803 488 b 849 529 833 488 849 501 l 849 1074 b 804 1113 849 1100 833 1113 l 711 1113 b 667 1071 681 1113 667 1099 l 667 886 l 540 886 b 558 1040 550 935 556 986 b 526 1092 561 1074 550 1092 z m 660 -10 l 790 -10 b 824 26 813 -10 824 3 b 683 269 818 143 771 224 l 815 269 b 860 310 844 269 860 283 l 860 390 b 819 429 860 415 846 429 l 115 429 b 78 393 90 429 78 417 l 78 304 b 113 269 78 281 89 269 l 267 269 b 96 19 253 196 196 113 b 104 -10 75 0 78 -10 l 250 -10 b 318 19 276 -10 300 0 b 450 254 385 97 429 176 b 625 22 567 210 625 132 b 660 -10 625 0 636 -10 z "},"겇":{"ha":917,"x_min":0,"x_max":0,"o":"m 526 1092 l 86 1092 b 47 1050 60 1092 47 1078 l 47 971 b 86 932 47 944 60 932 l 322 932 b 344 903 340 932 347 922 b 117 546 335 790 260 671 b 97 504 99 529 93 517 b 139 488 103 493 117 488 l 228 488 b 321 529 267 488 297 501 b 463 711 378 581 425 642 l 667 711 l 667 529 b 711 488 667 501 681 488 l 803 488 b 849 529 833 488 849 501 l 849 1072 b 803 1114 849 1100 833 1114 l 710 1114 b 667 1075 681 1114 667 1101 l 667 886 l 531 886 b 558 1040 543 935 551 986 b 526 1092 561 1074 550 1092 z m 660 -10 l 790 -10 b 824 28 813 -10 824 3 b 683 271 818 144 771 225 l 815 271 b 860 310 844 271 860 285 l 860 392 b 819 429 860 417 846 429 l 586 429 l 586 464 b 547 497 586 486 574 497 l 411 497 b 378 464 389 497 378 486 l 378 429 l 115 429 b 78 394 90 429 78 418 l 78 304 b 113 271 78 282 89 271 l 267 271 b 96 21 253 197 196 114 b 104 -10 75 1 78 -10 l 250 -10 b 318 19 276 -10 300 0 b 450 256 385 99 429 178 b 625 24 567 210 625 133 b 660 -10 625 1 636 -10 z "},"겈":{"ha":850,"x_min":0,"x_max":0,"o":""},"겉":{"ha":917,"x_min":0,"x_max":0,"o":"m 526 1092 l 97 1092 b 58 1050 71 1092 58 1078 l 58 971 b 97 932 58 944 71 932 l 322 932 b 344 903 340 932 347 922 b 117 546 335 768 260 649 b 97 504 99 529 93 517 b 139 488 103 493 117 488 l 228 488 b 331 526 267 488 301 500 b 481 711 394 576 443 638 l 667 711 l 667 529 b 713 488 667 501 682 488 l 803 488 b 849 529 833 488 849 501 l 849 1074 b 804 1113 849 1100 833 1113 l 711 1113 b 667 1071 681 1113 667 1099 l 667 886 l 540 886 b 558 1040 550 935 556 986 b 526 1092 561 1074 550 1092 z m 78 399 l 78 31 b 119 -10 78 3 92 -10 l 835 -10 b 868 24 857 -10 868 1 l 868 83 b 836 117 868 106 857 117 l 242 117 l 242 163 l 832 163 b 861 193 851 163 861 172 l 861 239 b 832 272 861 261 851 272 l 242 272 l 242 317 l 836 317 b 868 351 857 317 868 328 l 868 411 b 836 443 868 432 857 443 l 119 443 b 78 399 92 443 78 429 z "},"겊":{"ha":915,"x_min":0,"x_max":0,"o":"m 832 438 l 122 438 b 79 397 93 438 79 424 l 79 328 b 122 289 79 303 93 289 l 179 289 l 179 139 l 122 139 b 79 97 93 139 79 125 l 79 32 b 122 -10 79 4 93 -10 l 838 -10 b 874 31 861 -10 874 4 l 874 99 b 838 139 874 126 861 139 l 775 139 l 775 289 l 836 289 b 874 328 861 289 874 303 l 874 397 b 832 438 874 424 860 438 z m 526 1092 l 97 1092 b 58 1050 71 1092 58 1078 l 58 971 b 97 932 58 944 71 932 l 322 932 b 344 903 340 932 347 922 b 117 546 335 768 260 649 b 97 504 99 529 93 517 b 139 488 103 493 117 488 l 228 488 b 331 526 267 488 301 500 b 481 711 394 576 443 638 l 667 711 l 667 529 b 713 488 667 501 682 488 l 803 488 b 849 529 833 488 849 501 l 849 1074 b 804 1113 849 1100 833 1113 l 711 1113 b 667 1071 681 1113 667 1099 l 667 886 l 540 886 b 558 1040 550 935 556 986 b 526 1092 561 1074 550 1092 z m 610 289 l 610 139 l 346 139 l 346 289 z "},"겋":{"ha":918,"x_min":0,"x_max":0,"o":"m 565 514 l 406 514 b 372 479 383 514 372 503 l 372 431 l 138 431 b 100 396 113 431 100 419 l 100 322 b 135 288 100 300 111 288 l 186 288 b 125 153 146 251 125 206 b 476 -22 125 36 242 -22 b 846 167 724 -22 846 40 b 781 288 846 224 824 265 l 835 288 b 869 322 858 288 869 300 l 869 396 b 835 431 869 419 858 431 l 599 431 l 599 481 b 565 514 599 503 588 514 z m 526 1092 l 97 1092 b 58 1050 71 1092 58 1078 l 58 971 b 97 932 58 944 71 932 l 322 932 b 344 903 340 932 347 922 b 117 546 335 768 260 649 b 97 504 99 529 93 517 b 139 488 103 493 117 488 l 228 488 b 331 526 267 488 301 500 b 481 711 394 576 443 638 l 667 711 l 667 529 b 713 488 667 501 682 488 l 803 488 b 849 529 833 488 849 501 l 849 1074 b 804 1113 849 1100 833 1113 l 711 1113 b 667 1071 681 1113 667 1099 l 667 886 l 540 886 b 558 1040 550 935 556 986 b 526 1092 561 1074 550 1092 z m 494 103 b 317 190 376 103 317 132 b 489 296 317 261 374 296 b 649 194 596 296 649 263 b 494 103 649 133 597 103 z "},"게":{"ha":1013,"x_min":0,"x_max":0,"o":"m 315 903 b 106 85 319 514 250 242 b 81 33 83 65 75 47 b 124 11 88 18 101 11 l 186 11 b 276 39 228 11 258 21 b 476 629 368 131 435 328 l 565 629 l 565 40 b 610 -10 565 7 581 -10 l 689 -10 b 732 40 718 -10 732 7 l 732 1074 b 689 1113 732 1100 718 1113 l 610 1113 b 565 1074 581 1113 565 1100 l 565 804 l 496 804 b 504 1031 501 869 504 944 b 457 1090 504 1069 489 1090 l 97 1090 b 54 1049 68 1090 54 1076 l 54 969 b 97 928 54 942 68 928 l 283 928 b 315 903 304 928 315 919 z m 779 1074 l 779 40 b 824 -10 779 7 794 -10 l 903 -10 b 944 40 931 -10 944 7 l 944 1074 b 903 1113 944 1100 931 1113 l 824 1113 b 779 1074 794 1113 779 1100 z "},"겍":{"ha":1057,"x_min":0,"x_max":0,"o":"m 532 1090 l 92 1090 b 53 1050 67 1090 53 1076 l 53 969 b 92 931 53 943 67 931 l 322 931 b 350 901 342 931 350 921 b 121 467 340 738 265 593 b 103 425 104 451 97 438 b 144 408 107 414 122 408 l 233 408 b 326 450 271 408 303 422 b 485 696 392 514 444 596 l 614 696 l 614 451 b 660 408 614 422 629 408 l 736 408 b 782 449 767 408 782 422 l 782 1075 b 738 1114 782 1101 767 1114 l 658 1114 b 614 1075 629 1114 614 1101 l 614 872 l 536 872 b 564 1039 550 919 558 975 b 532 1090 565 1074 556 1090 z m 114 181 l 815 181 l 815 31 b 857 -10 815 4 829 -10 l 951 -10 b 992 31 979 -10 992 4 l 992 296 b 950 336 992 322 978 336 l 114 336 b 74 296 86 336 74 322 l 74 219 b 114 181 74 193 86 181 z m 821 1075 l 821 451 b 868 408 821 422 836 408 l 944 408 b 989 449 974 408 989 422 l 989 1075 b 944 1114 989 1101 974 1114 l 867 1114 b 821 1075 836 1114 821 1101 z "},"겎":{"ha":850,"x_min":0,"x_max":0,"o":""},"겏":{"ha":850,"x_min":0,"x_max":0,"o":""},"겐":{"ha":1057,"x_min":0,"x_max":0,"o":"m 964 147 l 264 147 l 264 294 b 222 336 264 322 250 336 l 128 336 b 86 297 100 336 86 324 l 86 32 b 128 -10 86 4 100 -10 l 964 -10 b 1006 35 992 -10 1006 6 l 1006 108 b 964 147 1006 135 992 147 z m 532 1090 l 92 1090 b 53 1050 67 1090 53 1076 l 53 969 b 92 931 53 943 67 931 l 322 931 b 350 901 342 931 350 921 b 121 467 340 738 265 593 b 103 425 104 451 97 438 b 144 408 107 414 122 408 l 233 408 b 326 450 271 408 303 422 b 485 696 392 514 444 596 l 614 696 l 614 451 b 660 408 614 422 629 408 l 736 408 b 782 449 767 408 782 422 l 782 1075 b 738 1114 782 1101 767 1114 l 658 1114 b 614 1075 629 1114 614 1101 l 614 872 l 536 872 b 564 1039 550 919 558 975 b 532 1090 565 1074 556 1090 z m 821 1075 l 821 451 b 868 408 821 422 836 408 l 944 408 b 989 449 974 408 989 422 l 989 1075 b 944 1114 989 1101 974 1114 l 867 1114 b 821 1075 836 1114 821 1101 z "},"겑":{"ha":850,"x_min":0,"x_max":0,"o":""}}}
